<svg width="19" height="25" fill="none" xmlns="http://www.w3.org/2000/svg"><path d="M.657 6.116c0-.351.188-.953.564-1.805.376-.852.977-1.741 1.804-2.669C3.852.715 4.78.264 5.807.29c1.028 0 1.855.288 2.481.865.627.576.952 1.378.977 2.405-.05.477-.087.74-.112.79 0 .075-.2.651-.602 1.729a75.81 75.81 0 0 0-1.24 3.646c-.426 1.354-.627 2.431-.602 3.233 0 1.078.176 1.83.527 2.255.35.427.877.652 1.578.677a3.3 3.3 0 0 0 1.617-.413c.5-.276.89-.564 1.165-.865.276-.3.614-.714 1.015-1.24 0-.026.063-.276.188-.752s.3-1.216.526-2.218c.226-1.002.464-1.93.714-2.782.953-3.759 1.479-5.726 1.58-5.901.325-.677.864-1.015 1.616-1.015.325 0 .588.087.789.263.2.175.338.326.413.45.076.126.1.239.076.34 0 .325-.614 2.956-1.842 7.893-1.228 4.937-1.93 7.644-2.105 8.12-.702 2.08-1.917 3.734-3.647 4.962-1.729 1.227-3.458 1.854-5.187 1.88-1.128 0-2.118-.277-2.97-.828-.852-.551-1.278-1.378-1.278-2.48 0-.552.088-1.016.263-1.392.176-.376.414-.651.715-.827.3-.175.55-.3.751-.376.2-.075.414-.112.64-.112 1.102 0 1.653.526 1.653 1.578 0 .502-.15.94-.45 1.316-.301.376-.59.627-.865.752-.276.125-.439.188-.489.188l-.113.038c.05.125.288.275.714.45.427.176.853.264 1.279.264h.3c.426 0 .752-.025.978-.075.827-.226 1.591-.702 2.293-1.429.701-.727 1.24-1.504 1.616-2.33.376-.828.664-1.53.865-2.106.2-.576.3-.952.3-1.127l-.225.15c-.15.1-.389.238-.714.413a8.481 8.481 0 0 1-.978.452c-.501.125-.99.188-1.466.188-1.153 0-2.168-.276-3.045-.827-.877-.552-1.453-1.441-1.729-2.67-.025-.175-.037-.563-.037-1.165 0-1.428.438-3.295 1.315-5.6.877-2.306 1.316-3.772 1.316-4.399v-.525c0-.076-.05-.164-.15-.264a.559.559 0 0 0-.414-.15h-.15c-.577 0-1.103.238-1.579.714s-.852.99-1.128 1.541a9.935 9.935 0 0 0-.639 1.579c-.15.501-.25.777-.3.827-.05.05-.251.075-.602.075H.883c-.15-.15-.226-.263-.226-.338Z" fill="#102C57"/></svg>