<svg width="11" height="15" fill="none" xmlns="http://www.w3.org/2000/svg"><path d="M.438 3.536c0-.206.11-.558.33-1.058.22-.5.573-1.02 1.058-1.564C2.311.37 2.855.105 3.457.12c.602 0 1.087.17 1.455.507.367.338.558.808.572 1.41-.029.28-.05.434-.066.463 0 .044-.117.382-.352 1.014a44.441 44.441 0 0 0-.727 2.138c-.25.793-.368 1.425-.353 1.895 0 .632.103 1.073.308 1.322.206.25.515.382.926.397.338 0 .654-.08.948-.242a2.66 2.66 0 0 0 .683-.507c.161-.177.36-.42.595-.728 0-.014.037-.161.11-.44.074-.28.176-.713.309-1.3.132-.588.271-1.132.418-1.631.559-2.204.867-3.358.926-3.46.19-.397.507-.595.948-.595.19 0 .345.051.462.154.118.103.199.19.243.264.044.074.059.14.044.199 0 .19-.36 1.733-1.08 4.628-.72 2.894-1.131 4.48-1.234 4.76-.412 1.22-1.124 2.189-2.138 2.909-1.014.72-2.027 1.087-3.041 1.102-.661 0-1.242-.162-1.741-.485-.5-.323-.75-.808-.75-1.455 0-.323.052-.595.155-.815.103-.22.242-.382.419-.485.176-.103.323-.176.44-.22.118-.044.243-.066.375-.066.646 0 .97.308.97.925 0 .294-.088.551-.265.772-.176.22-.345.367-.507.44-.161.074-.257.11-.286.11l-.066.023c.03.073.169.161.418.264.25.103.5.154.75.154H3.5c.25 0 .44-.014.573-.044.485-.132.933-.411 1.344-.837.412-.426.728-.882.948-1.367.22-.484.39-.896.507-1.234.117-.338.176-.558.176-.66l-.132.087c-.088.06-.228.14-.419.243a4.981 4.981 0 0 1-.573.264c-.294.074-.58.11-.86.11-.675 0-1.27-.161-1.784-.484-.515-.324-.852-.845-1.014-1.565a6.34 6.34 0 0 1-.022-.683c0-.838.257-1.932.771-3.284.514-1.352.772-2.211.772-2.578V1.2c0-.044-.03-.095-.089-.154a.328.328 0 0 0-.242-.088h-.088c-.338 0-.647.14-.926.418-.279.28-.5.58-.66.904a5.825 5.825 0 0 0-.376.925c-.088.294-.146.456-.176.485-.03.03-.147.044-.352.044H.57C.482 3.646.438 3.58.438 3.536Z" fill="#000"/></svg>