<svg width="10" height="11" fill="none" xmlns="http://www.w3.org/2000/svg"><path d="M7.029 2.412c-.147 0-.537-.08-1.168-.242-.632-.162-1.095-.243-1.389-.243-.294 0-.543.03-.75.088a1.811 1.811 0 0 0-.506.22.868.868 0 0 0-.264.243 6.098 6.098 0 0 1-.155.243l-.044.088c-.044.044-.154.066-.33.066-.309 0-.463-.059-.463-.176 0-.074.022-.177.066-.309A3.505 3.505 0 0 1 2.974.914c.44-.412.925-.662 1.454-.75.176-.03.301-.044.375-.044.367 0 .698.125.991.375.294.25.573.492.838.727.264.235.544.36.837.375.324 0 .647-.243.97-.728.323-.484.492-.727.507-.727.015-.015.125-.022.33-.022h.287c.088.088.132.147.132.176 0 .06-.037.162-.11.309a2.53 2.53 0 0 1-.309.463c-.132.161-.257.323-.374.485-.118.161-.22.3-.309.418l-.154.199c-.632.749-1.63 1.74-2.997 2.975-1.367 1.234-2.211 2.027-2.535 2.38l-.264.264.33.022c.324 0 .794.081 1.411.243.617.161 1.08.242 1.388.242.559 0 1.073-.14 1.543-.418.47-.28.779-.647.926-1.102.058-.133.11-.213.154-.243s.154-.044.33-.044c.28 0 .42.074.42.22a.82.82 0 0 1-.023.199 4.414 4.414 0 0 1-1.454 2.27c-.72.602-1.44.91-2.16.925a1.52 1.52 0 0 1-1.014-.374c-.294-.25-.58-.5-.86-.75-.278-.25-.558-.374-.837-.374-.646 0-1.227.44-1.74 1.322a.44.44 0 0 1-.375.176H.285c-.088-.088-.132-.154-.132-.198 0-.22.426-.852 1.278-1.895.573-.661 1.543-1.616 2.909-2.865 1.366-1.249 2.211-2.042 2.534-2.38.177-.235.228-.353.155-.353Z" fill="#000"/></svg>