<svg width="19" height="25" fill="none" xmlns="http://www.w3.org/2000/svg"><path d="M.05 6.062c0-.355.191-.965.572-1.829.381-.864.991-1.765 1.83-2.705C3.29.588 4.23.13 5.271.156c1.041 0 1.88.292 2.515.876.635.584.965 1.397.99 2.439-.05.483-.089.75-.114.8 0 .077-.203.66-.61 1.753a76.85 76.85 0 0 0-1.257 3.697c-.432 1.372-.635 2.464-.61 3.277 0 1.093.178 1.855.534 2.287.355.431.889.66 1.6.685.584 0 1.13-.14 1.639-.419.508-.28.902-.571 1.181-.876.28-.305.622-.724 1.029-1.258 0-.025.063-.28.19-.762a71.16 71.16 0 0 0 .534-2.248 45.16 45.16 0 0 1 .724-2.82c.966-3.811 1.5-5.805 1.6-5.983.331-.686.877-1.03 1.64-1.03.33 0 .596.09.8.268.203.177.343.33.419.457.076.127.101.241.076.343 0 .33-.622 2.998-1.867 8.003s-1.957 7.748-2.134 8.23c-.712 2.11-1.944 3.786-3.697 5.031-1.753 1.245-3.506 1.88-5.259 1.906-1.143 0-2.147-.28-3.01-.839-.864-.559-1.296-1.397-1.296-2.515 0-.559.089-1.029.267-1.41.178-.381.419-.66.724-.838.305-.178.559-.305.762-.381.203-.077.42-.115.648-.115 1.118 0 1.677.534 1.677 1.6 0 .509-.153.954-.458 1.335-.305.38-.597.635-.876.762-.28.127-.445.19-.496.19l-.114.039c.05.127.292.279.724.457a3.38 3.38 0 0 0 1.296.266h.305c.432 0 .762-.025.99-.076.839-.228 1.614-.711 2.325-1.448.711-.737 1.258-1.524 1.639-2.362.38-.839.673-1.55.876-2.135.204-.584.305-.965.305-1.143l-.229.153a9.764 9.764 0 0 1-.724.419c-.33.178-.66.33-.99.457a6.118 6.118 0 0 1-1.487.19c-1.168 0-2.197-.279-3.086-.838-.89-.559-1.474-1.46-1.753-2.705-.026-.178-.039-.572-.039-1.182 0-1.448.445-3.34 1.334-5.678.89-2.337 1.334-3.823 1.334-4.459v-.533c0-.076-.05-.165-.152-.267a.566.566 0 0 0-.42-.152H5.12c-.584 0-1.118.241-1.6.724A6.013 6.013 0 0 0 2.374 3.89c-.28.56-.495 1.093-.648 1.6-.152.509-.254.788-.304.84-.051.05-.255.075-.61.075H.279C.127 6.253.051 6.14.051 6.062Z" fill="#102C57"/></svg>