<svg width="18" height="18" fill="none" xmlns="http://www.w3.org/2000/svg"><path d="M12.428 4.12c-.255 0-.928-.14-2.02-.42-1.093-.279-1.893-.419-2.401-.419-.508 0-.94.051-1.296.153a3.132 3.132 0 0 0-.876.38c-.229.153-.381.293-.458.42-.076.127-.165.267-.266.42l-.077.152c-.076.076-.266.114-.571.114-.534 0-.8-.102-.8-.305 0-.127.038-.305.114-.533a6.06 6.06 0 0 1 1.639-2.554C6.178.817 7.016.385 7.93.233c.305-.051.52-.077.648-.077.635 0 1.206.216 1.714.648.509.432.991.851 1.449 1.258.457.406.94.622 1.448.648.559 0 1.117-.42 1.676-1.258.56-.838.851-1.257.877-1.257.025-.026.216-.039.571-.039h.496c.152.153.229.254.229.305 0 .102-.064.28-.19.534-.128.254-.306.52-.535.8-.228.28-.444.559-.647.838-.204.28-.381.521-.534.724l-.267.343c-1.092 1.296-2.82 3.011-5.182 5.145C7.32 10.98 5.86 12.351 5.3 12.961l-.457.457.572.038c.558 0 1.371.14 2.439.42 1.067.279 1.867.419 2.4.419a5.13 5.13 0 0 0 2.668-.725c.813-.482 1.346-1.117 1.6-1.905.102-.229.191-.368.267-.42.076-.05.267-.075.572-.075.482 0 .724.127.724.38 0 .128-.013.242-.038.344a7.632 7.632 0 0 1-2.515 3.925c-1.245 1.041-2.49 1.575-3.735 1.6-.66 0-1.245-.216-1.753-.647a77.607 77.607 0 0 1-1.486-1.296c-.483-.432-.966-.648-1.448-.648-1.118 0-2.122.762-3.01 2.287-.153.203-.37.304-.649.304H.766c-.152-.152-.228-.266-.228-.343 0-.38.736-1.473 2.21-3.277.99-1.143 2.668-2.794 5.03-4.954 2.363-2.16 3.824-3.531 4.383-4.116.305-.406.394-.61.267-.61Z" fill="#102C57"/></svg>