<svg width="17" height="18" fill="none" xmlns="http://www.w3.org/2000/svg"><path d="M12.04 4.12c-.254 0-.927-.14-2.02-.42-1.092-.279-1.892-.419-2.4-.419-.509 0-.94.051-1.296.153a3.132 3.132 0 0 0-.877.38c-.228.153-.38.293-.457.42-.076.127-.165.267-.267.42l-.076.152c-.076.076-.267.114-.572.114-.533 0-.8-.102-.8-.305 0-.127.038-.305.114-.533a6.06 6.06 0 0 1 1.64-2.554C5.79.817 6.628.385 7.542.233c.305-.051.521-.077.648-.077.635 0 1.207.216 1.715.648.508.432.99.851 1.448 1.258.457.406.94.622 1.448.648.56 0 1.118-.42 1.677-1.258.559-.838.851-1.257.877-1.257.025-.026.215-.039.571-.039h.495c.153.153.23.254.23.305 0 .102-.064.28-.191.534s-.305.52-.534.8c-.229.28-.444.559-.648.838-.203.28-.38.521-.533.724l-.267.343c-1.092 1.296-2.82 3.011-5.183 5.145-2.362 2.134-3.823 3.506-4.382 4.116l-.457.457.571.038c.559 0 1.372.14 2.44.42 1.066.279 1.866.419 2.4.419a5.13 5.13 0 0 0 2.668-.725c.812-.482 1.346-1.117 1.6-1.905.102-.229.19-.368.267-.42.076-.05.266-.075.571-.075.483 0 .724.127.724.38 0 .128-.012.242-.038.344a7.632 7.632 0 0 1-2.515 3.925c-1.245 1.041-2.49 1.575-3.734 1.6-.661 0-1.245-.216-1.753-.647a77.639 77.639 0 0 1-1.487-1.296c-.482-.432-.965-.648-1.448-.648-1.118 0-2.121.762-3.01 2.287-.153.203-.369.304-.648.304H.379c-.153-.152-.229-.266-.229-.343 0-.38.737-1.473 2.21-3.277.991-1.143 2.668-2.794 5.03-4.954 2.364-2.16 3.824-3.531 4.383-4.116.305-.406.394-.61.267-.61Z" fill="#102C57"/></svg>