<svg width="28" height="24" fill="none" xmlns="http://www.w3.org/2000/svg"><path d="M11.291.654c.022 0 .82-.055 2.394-.166 1.574-.11 2.383-.177 2.428-.2.265 0 .399.09.399.267 0 .155-.81 3.502-2.428 10.042-1.618 6.539-2.45 9.875-2.494 10.008-.044.133-.055.3-.033.499 0 .93.31 1.396.931 1.396.2-.022.421-.122.665-.299.466-.443.92-1.507 1.363-3.192.133-.443.244-.676.333-.698.044-.022.155-.033.332-.033h.266c.333 0 .5.088.5.266 0 .11-.034.288-.1.532-.289 1.108-.621 2.006-.998 2.693-.377.687-.687 1.13-.931 1.33-.244.2-.554.377-.931.532-.178.044-.444.067-.798.067-.754 0-1.386-.167-1.896-.5-.51-.332-.842-.675-.997-1.03l-.2-.499c-.022-.022-.066-.01-.133.033-.044.045-.088.09-.133.133-1.307 1.242-2.637 1.863-3.99 1.863-1.219 0-2.294-.444-3.225-1.33C.684 21.48.218 20.072.218 18.145c0-1.064.222-2.15.665-3.26.444-1.107.976-2.06 1.596-2.859C3.521 10.763 4.563 9.887 5.605 9.4c1.042-.487 1.984-.731 2.826-.731 1.242 0 2.173.465 2.794 1.397.11.133.166.177.166.133l.898-3.625c.576-2.327.886-3.558.93-3.69 0-.289-.077-.466-.232-.533-.155-.066-.588-.122-1.297-.166h-.698c-.133-.133-.2-.222-.2-.266 0-.044.022-.255.067-.632.11-.421.255-.632.432-.632Zm-.466 11.871c-.51-1.751-1.34-2.627-2.493-2.627-.776 0-1.519.344-2.228 1.031-.71.687-1.264 1.585-1.663 2.693a26.546 26.546 0 0 0-1.363 5.454v.365c0 .178-.011.31-.033.4 0 .997.2 1.684.598 2.06.4.378.876.577 1.43.6 1.197 0 2.427-.799 3.69-2.395l.267-.365 1.796-7.216ZM17.276 10.562c-.155-.155-.232-.266-.232-.333 0-.088.033-.266.1-.532.066-.266.121-.42.166-.465.044-.111.144-.167.299-.167s.72-.01 1.696-.033h1.762l.632-2.66c.066-.244.144-.565.232-.964.09-.4.167-.687.233-.865.067-.177.133-.399.2-.665.066-.266.155-.454.266-.565.11-.11.222-.244.332-.399a.75.75 0 0 1 .466-.3c.2-.044.399-.066.598-.066.4.022.676.144.832.366.155.222.232.432.232.632 0 .155-.1.676-.299 1.563-.2.886-.421 1.762-.665 2.626l-.332 1.23c0 .045.554.067 1.662.067h1.696c.155.155.233.277.233.366 0 .488-.144.876-.433 1.164h-3.557l-1.197 4.821c-.865 3.547-1.297 5.453-1.297 5.72 0 .93.299 1.396.898 1.396.775 0 1.53-.377 2.26-1.13.732-.754 1.32-1.685 1.763-2.794.044-.133.1-.21.166-.232.067-.023.233-.045.499-.067h.133c.332 0 .499.089.499.266 0 .067-.034.2-.1.4-.11.354-.31.775-.599 1.263a11.813 11.813 0 0 1-1.13 1.562 6.15 6.15 0 0 1-1.696 1.397c-.665.377-1.341.565-2.028.565a3.846 3.846 0 0 1-1.896-.498c-.598-.333-1.03-.91-1.296-1.73-.045-.177-.067-.476-.067-.897v-.599l1.164-4.655c.776-3.126 1.175-4.7 1.197-4.722 0-.044-.565-.066-1.696-.066h-1.696Z" fill="#102C57"/></svg>