<svg width="47" height="30" fill="none" xmlns="http://www.w3.org/2000/svg"><path d="M6.634 22.092c0 .532.51.843 1.53.931.399 0 .598.122.598.366 0 .022-.022.166-.066.432-.067.31-.133.51-.2.599-.066.088-.21.133-.432.133h-.399c-.222 0-.598-.011-1.13-.034a53.576 53.576 0 0 0-2.128-.033c-1.574 0-2.583.022-3.026.067h-.266c-.156-.155-.233-.277-.233-.366.044-.599.188-.986.432-1.164h.466c1.551-.066 2.682-.62 3.391-1.662.133-.133 2.14-3.514 6.019-10.142 3.88-6.628 5.852-9.986 5.918-10.075.156-.266.422-.4.799-.4h.831c.133.2.2.311.2.333l.93 10.74c.621 7.16.954 10.774.998 10.84.11.244.831.366 2.161.366.554 0 .831.111.831.333 0 .044-.033.2-.1.465-.066.333-.121.532-.166.599-.044.066-.2.11-.465.133h-.466c-.243 0-.676-.011-1.296-.034-.621-.022-1.43-.033-2.428-.033-2.084 0-3.447.022-4.09.067h-.399c-.133-.133-.2-.233-.2-.3 0-.066.023-.265.067-.598.089-.288.155-.466.2-.532l.133-.1h.665c1.197-.066 1.906-.255 2.128-.565l-.399-4.988H9.128L7.998 19.4c-.91 1.53-1.364 2.427-1.364 2.693Zm10.242-6.185c0-.243-.133-1.973-.4-5.187-.265-3.214-.42-4.832-.465-4.854l-.898 1.43c-.354.598-1.053 1.784-2.094 3.557l-2.993 5.054 3.425.034c2.283 0 3.425-.011 3.425-.034ZM27.284 23.123c-.133 0-.433-.066-.898-.199-.466-.133-.71-.266-.732-.399 0-.155.61-2.727 1.83-7.714 1.218-4.988 1.894-7.593 2.027-7.814.333-.71.91-1.064 1.73-1.064.443 0 .908.166 1.396.498.488.333.731.82.731 1.463 0 .111-.022.278-.066.5-.022.154-.986 2.626-2.893 7.414-1.906 4.788-2.893 7.205-2.96 7.249a.323.323 0 0 1-.166.067ZM35.023 22.746c.11-.659.533-1.419 1.27-2.28.736-.863 1.645-1.302 2.727-1.317.548 0 1.05.14 1.504.423.455.282.792.635 1.011 1.058.658-.988 1.45-1.481 2.375-1.481.58 0 1.08.172 1.504.517.423.345.643.807.658 1.387 0 .454-.11.823-.329 1.105-.22.282-.43.454-.635.517a1.867 1.867 0 0 1-.54.094c-.298 0-.541-.086-.729-.258a.88.88 0 0 1-.282-.682c0-.721.392-1.215 1.175-1.481-.172-.204-.486-.306-.94-.306-.204 0-.353.016-.447.047-.595.25-1.034.768-1.316 1.552-.94 3.463-1.41 5.485-1.41 6.065 0 .439.125.752.375.94.251.188.526.282.823.282.58 0 1.152-.258 1.716-.775a3.92 3.92 0 0 0 1.152-1.905c.047-.156.094-.242.141-.258.047-.016.173-.031.377-.047h.093c.236 0 .353.063.353.188 0 .015-.016.102-.047.259-.25.893-.736 1.684-1.457 2.374-.721.69-1.56 1.034-2.516 1.034-1.097 0-1.927-.493-2.492-1.48-.642.97-1.379 1.457-2.21 1.457h-.14c-.769 0-1.317-.204-1.646-.611-.33-.408-.502-.839-.517-1.294 0-.501.148-.909.446-1.222.298-.313.65-.47 1.058-.47.674 0 1.011.329 1.011.987 0 .314-.094.588-.282.823-.188.235-.368.392-.54.47-.173.079-.275.118-.306.118l-.07.023c0 .016.046.047.14.094.094.047.22.102.376.165a.92.92 0 0 0 .447.07c.564 0 1.05-.352 1.457-1.058.142-.25.322-.783.541-1.598a145.462 145.462 0 0 0 1.035-4.09c.078-.424.117-.73.117-.917 0-.44-.117-.753-.352-.94a1.245 1.245 0 0 0-.8-.283c-.627 0-1.214.25-1.763.752-.549.502-.933 1.145-1.152 1.928-.031.141-.07.22-.117.235a2.226 2.226 0 0 1-.377.047h-.329c-.094-.094-.14-.18-.14-.258Z" fill="#102C57"/></svg>