<svg width="17" height="18" fill="none" xmlns="http://www.w3.org/2000/svg"><path d="M12.371 4.2c-.25 0-.914-.138-1.992-.414-1.077-.276-1.867-.414-2.368-.414-.501 0-.927.05-1.278.15-.35.101-.64.226-.865.377-.225.15-.376.288-.45.413a10.4 10.4 0 0 1-.264.414l-.075.15c-.075.075-.263.113-.564.113-.526 0-.79-.1-.79-.3 0-.126.038-.302.113-.527a5.978 5.978 0 0 1 1.617-2.519C6.207.942 7.034.516 7.935.365c.302-.05.515-.075.64-.075.626 0 1.19.213 1.692.64.5.425.977.839 1.428 1.24.451.4.927.614 1.428.639.552 0 1.103-.414 1.654-1.24.552-.828.84-1.241.865-1.241.025-.025.213-.038.564-.038h.488c.15.15.226.25.226.3 0 .101-.063.276-.188.527-.125.25-.3.514-.526.79a18.33 18.33 0 0 0-.64.826c-.2.276-.375.514-.526.715l-.263.338c-1.077 1.278-2.781 2.97-5.112 5.075-2.33 2.105-3.772 3.458-4.323 4.06l-.451.45.564.038c.551 0 1.353.138 2.406.414 1.052.275 1.842.413 2.368.413a5.06 5.06 0 0 0 2.631-.714c.802-.476 1.328-1.103 1.579-1.88.1-.225.188-.363.263-.413.075-.05.263-.075.564-.075.476 0 .714.125.714.376 0 .125-.012.238-.037.338a7.529 7.529 0 0 1-2.481 3.872c-1.228 1.027-2.456 1.553-3.684 1.579a2.592 2.592 0 0 1-1.73-.64c-.5-.426-.99-.852-1.465-1.278-.477-.426-.953-.639-1.429-.639-1.102 0-2.092.752-2.97 2.256-.15.2-.363.3-.639.3H.868c-.15-.15-.225-.263-.225-.338 0-.376.727-1.453 2.18-3.233.978-1.127 2.632-2.756 4.962-4.886 2.331-2.13 3.772-3.484 4.323-4.06.301-.401.389-.602.263-.602Z" fill="#102C57"/></svg>