<svg width="17" height="24" fill="none" xmlns="http://www.w3.org/2000/svg"><path d="M11.399.367c.022 0 .82-.056 2.394-.167C15.366.09 16.175.023 16.22 0c.266 0 .399.09.399.267 0 .155-.81 3.502-2.427 10.042-1.619 6.54-2.45 9.875-2.494 10.008a1.18 1.18 0 0 0-.034.5c0 .93.31 1.396.931 1.396.2-.022.422-.122.665-.3.466-.443.92-1.507 1.364-3.192.133-.443.244-.676.332-.698.045-.022.155-.033.333-.033h.266c.332 0 .499.088.499.266 0 .11-.034.288-.1.532-.288 1.108-.62 2.006-.998 2.693-.377.687-.687 1.13-.93 1.33-.245.2-.555.377-.932.532-.177.045-.443.067-.798.067-.753 0-1.385-.166-1.895-.499-.51-.333-.842-.676-.998-1.03l-.2-.5c-.021-.022-.066-.01-.132.034l-.133.133C7.63 22.789 6.3 23.41 4.948 23.41c-1.22 0-2.295-.444-3.226-1.33-.93-.887-1.396-2.295-1.396-4.223 0-1.064.221-2.15.665-3.259.443-1.108.975-2.061 1.596-2.86C3.629 10.476 4.67 9.6 5.713 9.113c1.041-.488 1.983-.732 2.826-.732 1.241 0 2.172.466 2.793 1.397.11.133.166.177.166.133l.898-3.625c.576-2.327.887-3.557.931-3.69 0-.289-.078-.466-.233-.533-.155-.066-.587-.121-1.296-.166h-.699c-.133-.133-.2-.221-.2-.266 0-.044.023-.255.067-.632.111-.42.255-.631.433-.631Zm-.466 11.87c-.51-1.75-1.341-2.626-2.494-2.626-.776 0-1.518.343-2.228 1.03-.71.688-1.263 1.585-1.662 2.694a26.544 26.544 0 0 0-1.364 5.453v.366c0 .177-.01.31-.033.399 0 .997.2 1.684.599 2.061a2.14 2.14 0 0 0 1.43.599c1.197 0 2.427-.798 3.69-2.394l.266-.366 1.796-7.216Z" fill="#102C57"/></svg>