<svg width="17" height="18" fill="none" xmlns="http://www.w3.org/2000/svg"><path d="M11.897 4.2c-.25 0-.915-.138-1.992-.414-1.078-.276-1.867-.414-2.369-.414-.5 0-.927.05-1.278.15-.35.101-.639.226-.864.377-.226.15-.376.288-.451.413a10.4 10.4 0 0 1-.264.414l-.075.15c-.075.075-.263.113-.564.113-.526 0-.789-.1-.789-.3 0-.126.038-.302.113-.527A5.978 5.978 0 0 1 4.98 1.643C5.732.942 6.56.516 7.461.365c.3-.05.514-.075.64-.075.626 0 1.19.213 1.69.64.502.425.978.839 1.43 1.24.45.4.926.614 1.428.639.551 0 1.102-.414 1.654-1.24.55-.828.84-1.241.864-1.241.025-.025.213-.038.564-.038h.489c.15.15.225.25.225.3 0 .101-.062.276-.188.527-.125.25-.3.514-.526.79a18.33 18.33 0 0 0-.639.826c-.2.276-.376.514-.526.715l-.263.338c-1.078 1.278-2.782 2.97-5.113 5.075-2.33 2.105-3.771 3.458-4.323 4.06l-.45.45.563.038c.552 0 1.353.138 2.406.414 1.053.275 1.842.413 2.368.413a5.06 5.06 0 0 0 2.632-.714c.801-.476 1.328-1.103 1.578-1.88.1-.225.188-.363.263-.413.076-.05.264-.075.564-.075.476 0 .714.125.714.376 0 .125-.012.238-.037.338a7.529 7.529 0 0 1-2.481 3.872c-1.228 1.027-2.456 1.553-3.684 1.579a2.592 2.592 0 0 1-1.73-.64c-.5-.426-.989-.852-1.465-1.278-.476-.426-.952-.639-1.429-.639-1.102 0-2.092.752-2.97 2.256-.15.2-.363.3-.638.3H.394c-.15-.15-.225-.263-.225-.338 0-.376.726-1.453 2.18-3.233.977-1.127 2.631-2.756 4.962-4.886 2.33-2.13 3.771-3.484 4.323-4.06.3-.401.388-.602.263-.602Z" fill="#102C57"/></svg>