<svg width="11" height="11" fill="none" xmlns="http://www.w3.org/2000/svg"><path d="M.475 3.492c.103-.617.5-1.33 1.19-2.138C2.355.546 3.208.134 4.222.12c.514 0 .984.132 1.41.397.426.264.742.595.948.992C7.197.583 7.939.12 8.806.12c.543 0 1.013.162 1.41.485.397.323.602.757.617 1.3 0 .426-.103.772-.309 1.036-.205.264-.403.426-.595.485-.19.059-.36.088-.506.088-.28 0-.507-.08-.684-.242a.826.826 0 0 1-.264-.64c0-.675.367-1.138 1.102-1.388-.162-.19-.456-.286-.882-.286-.19 0-.33.014-.418.044-.559.235-.97.72-1.235 1.454C6.161 5.703 5.72 7.598 5.72 8.142c0 .411.118.705.353.882.235.176.492.264.771.264.544 0 1.08-.242 1.609-.727a3.674 3.674 0 0 0 1.08-1.785c.044-.147.088-.228.132-.243.044-.014.162-.03.353-.044h.088c.22 0 .33.059.33.176 0 .015-.014.096-.044.243-.235.837-.69 1.58-1.366 2.226-.676.646-1.462.97-2.358.97-1.029 0-1.807-.463-2.336-1.389-.603.91-1.293 1.366-2.072 1.366h-.132c-.72 0-1.234-.19-1.543-.573C.277 9.126.115 8.722.1 8.296c0-.47.14-.852.42-1.146.278-.294.609-.44.99-.44.633 0 .949.308.949.925 0 .294-.089.551-.265.771-.176.22-.345.368-.507.441-.161.074-.257.11-.286.11l-.066.022c0 .015.044.045.132.089.088.044.206.095.352.154.147.059.287.08.42.066.528 0 .984-.33 1.366-.992.132-.235.3-.734.506-1.498a136.71 136.71 0 0 0 .97-3.835c.074-.397.11-.683.11-.86 0-.41-.11-.705-.33-.881a1.167 1.167 0 0 0-.75-.264c-.587 0-1.138.235-1.652.705-.515.47-.875 1.072-1.08 1.807-.03.132-.066.206-.11.22-.045.015-.162.03-.353.044H.607C.52 3.646.475 3.565.475 3.492Z" fill="#000"/></svg>