<svg width="11" height="11" fill="none" xmlns="http://www.w3.org/2000/svg"><path d="M7.403 2.594c-.156 0-.572-.086-1.245-.259-.674-.172-1.168-.258-1.482-.258-.313 0-.58.03-.799.094-.22.062-.4.14-.54.235a.926.926 0 0 0-.283.258 6.504 6.504 0 0 1-.164.259l-.047.094c-.047.047-.165.07-.353.07-.329 0-.494-.062-.494-.188 0-.078.024-.188.071-.329A3.739 3.739 0 0 1 3.077.995c.471-.439.988-.705 1.552-.8.189-.03.322-.046.4-.046.392 0 .745.133 1.058.4.313.266.611.524.893.775.282.251.58.384.894.4.344 0 .69-.259 1.034-.776.345-.517.525-.776.54-.776.016-.015.134-.023.353-.023h.306c.094.094.141.157.141.188 0 .063-.04.172-.117.329a2.7 2.7 0 0 1-.33.494c-.14.172-.274.344-.4.517-.125.172-.234.321-.328.447l-.165.211c-.674.8-1.74 1.857-3.197 3.174-1.458 1.316-2.359 2.163-2.704 2.539l-.282.282.353.023c.345 0 .846.087 1.504.259.659.172 1.152.259 1.481.259.596 0 1.145-.15 1.646-.447.502-.298.83-.69.987-1.176.063-.14.118-.227.165-.258.047-.032.165-.047.353-.047.297 0 .446.078.446.235a.874.874 0 0 1-.023.211 4.708 4.708 0 0 1-1.552 2.422c-.768.642-1.536.972-2.304.987-.407 0-.768-.133-1.081-.4-.313-.266-.62-.532-.917-.799-.298-.266-.595-.4-.893-.4-.69 0-1.309.47-1.857 1.411a.47.47 0 0 1-.4.188H.21c-.094-.094-.141-.164-.141-.211 0-.235.454-.91 1.363-2.022.612-.705 1.646-1.724 3.103-3.056 1.458-1.332 2.36-2.179 2.704-2.54.188-.25.243-.375.164-.375Z" fill="#102C57"/></svg>