<svg width="12" height="16" fill="none" xmlns="http://www.w3.org/2000/svg"><path d="M.131 3.794c0-.22.118-.596.353-1.129S1.095 1.576 1.612.996C2.13.416 2.71.134 3.352.15c.643 0 1.16.18 1.552.54.391.36.595.862.61 1.505-.03.298-.054.462-.07.494 0 .047-.125.407-.376 1.081a47.4 47.4 0 0 0-.776 2.28c-.266.847-.391 1.52-.376 2.022 0 .674.11 1.144.33 1.41.219.267.548.408.987.424.36 0 .697-.086 1.01-.259.314-.172.557-.352.73-.54.172-.188.383-.447.634-.776 0-.016.04-.173.118-.47.078-.298.188-.76.329-1.387.14-.627.29-1.207.447-1.74.595-2.35.924-3.581.987-3.69.204-.424.54-.636 1.01-.636.205 0 .369.055.494.165.126.11.212.204.259.282.047.078.063.149.047.212 0 .203-.384 1.849-1.152 4.936-.768 3.088-1.207 4.78-1.316 5.078-.44 1.301-1.2 2.335-2.28 3.103-1.082.768-2.163 1.16-3.245 1.176-.705 0-1.324-.172-1.857-.517-.533-.345-.8-.862-.8-1.552 0-.345.055-.635.165-.87.11-.235.259-.407.447-.517.188-.11.345-.188.47-.235a1.13 1.13 0 0 1 .4-.07c.69 0 1.034.329 1.034.987 0 .313-.094.588-.282.823-.188.235-.368.391-.54.47-.173.078-.275.117-.306.117l-.07.024c.03.078.18.172.446.282.266.11.533.165.8.165h.187a3 3 0 0 0 .611-.048c.518-.14.996-.438 1.434-.893.44-.454.776-.94 1.011-1.457.235-.518.416-.956.54-1.317.126-.36.189-.595.189-.705l-.141.094a6.03 6.03 0 0 1-.447.258c-.203.11-.407.204-.61.283-.314.078-.62.117-.918.117-.72 0-1.355-.172-1.904-.517-.548-.345-.909-.901-1.081-1.67a6.767 6.767 0 0 1-.024-.728c0-.893.274-2.06.823-3.503.548-1.442.823-2.358.823-2.75V1.302c0-.047-.032-.102-.094-.165a.35.35 0 0 0-.259-.094h-.094c-.36 0-.69.149-.987.447a3.71 3.71 0 0 0-.706.964 6.214 6.214 0 0 0-.4.987c-.093.313-.156.486-.187.517-.032.032-.157.047-.376.047h-.33c-.094-.094-.14-.164-.14-.211Z" fill="#102C57"/></svg>