<svg width="16" height="18" fill="none" xmlns="http://www.w3.org/2000/svg"><path d="M0 6.117a2.6 2.6 0 0 0 .075-.301c.025-.125.088-.401.188-.827.1-.426.226-.815.376-1.165.15-.351.338-.765.564-1.241.225-.476.476-.852.752-1.128.275-.275.601-.551.977-.827.376-.275.79-.388 1.24-.338.727 0 1.366.15 1.918.451.551.3.94.576 1.165.827.225.25.363.501.413.752.05.15.088.225.113.225.025 0 .126-.087.3-.263C9.286.98 10.677.328 12.256.328h.112c1.203 0 2.105.513 2.707 1.54.2.477.3.94.3 1.392 0 .751-.162 1.353-.488 1.804-.326.451-.652.74-.977.865-.326.125-.64.175-.94.15-.502 0-.902-.138-1.203-.414-.3-.275-.451-.639-.451-1.09 0-1.203.701-2.004 2.105-2.405-.552-.326-1.003-.49-1.354-.49-1.403 0-2.693.928-3.871 2.783-.25.4-.439.814-.564 1.24-.125.426-.551 2.093-1.278 5-.852 3.508-1.34 5.375-1.466 5.6-.326.677-.865 1.015-1.617 1.015-.325 0-.589-.075-.789-.225-.2-.15-.338-.3-.414-.451-.075-.15-.1-.276-.075-.376 0-.326.502-2.481 1.504-6.466C4.498 5.816 5 3.598 5 3.147c0-.977-.326-1.466-.978-1.466-.526 0-.977.35-1.353 1.052a10.924 10.924 0 0 0-.902 2.293c-.226.827-.364 1.278-.414 1.354-.05.05-.25.075-.601.075H.226C.076 6.305 0 6.192 0 6.117Z" fill="#102C57"/></svg>