<svg width="228" height="69" fill="none" xmlns="http://www.w3.org/2000/svg"><path d="M15.332 1.086c.022 0 .811-.055 2.369-.165 1.557-.11 2.357-.175 2.401-.197.264 0 .395.087.395.263 0 .153-.8 3.465-2.401 9.936-1.602 6.47-2.424 9.772-2.468 9.903a1.168 1.168 0 0 0-.033.494c0 .92.307 1.381.921 1.381.198-.021.417-.12.658-.296.46-.438.91-1.491 1.35-3.158.13-.439.24-.67.328-.691.044-.022.154-.033.33-.033h.262c.33 0 .494.088.494.263 0 .11-.033.285-.099.527-.285 1.096-.614 1.985-.987 2.665-.373.68-.68 1.118-.921 1.316a3.631 3.631 0 0 1-.921.526c-.176.044-.439.066-.79.066-.746 0-1.37-.165-1.875-.494-.505-.329-.834-.669-.987-1.02l-.198-.493c-.022-.022-.066-.011-.131.033a81.64 81.64 0 0 1-.132.131c-1.294 1.229-2.61 1.843-3.948 1.843-1.206 0-2.27-.439-3.191-1.316-.922-.878-1.382-2.27-1.382-4.179 0-1.052.22-2.127.658-3.224.439-1.097.965-2.04 1.58-2.83 1.03-1.25 2.06-2.116 3.092-2.598 1.03-.483 1.963-.724 2.796-.724 1.229 0 2.15.46 2.764 1.381.11.132.165.176.165.132l.888-3.586c.57-2.303.877-3.52.921-3.652 0-.285-.077-.46-.23-.526-.154-.066-.582-.121-1.283-.165h-.691c-.132-.132-.198-.22-.198-.263 0-.044.022-.252.066-.625.11-.417.252-.625.428-.625Zm-.46 11.745c-.505-1.733-1.328-2.599-2.468-2.599-.768 0-1.503.34-2.205 1.02-.702.68-1.25 1.568-1.645 2.665a26.267 26.267 0 0 0-1.349 5.396v.362c0 .175-.01.307-.033.394 0 .987.198 1.667.593 2.04.394.373.866.57 1.414.592 1.185 0 2.402-.79 3.652-2.368l.264-.362 1.776-7.14ZM27.242 21.122c0 .527.504.834 1.513.922.395 0 .593.12.593.361 0 .022-.022.165-.066.428-.066.307-.132.505-.198.592-.065.088-.208.132-.427.132h-.395c-.22 0-.592-.011-1.119-.033a53.16 53.16 0 0 0-2.105-.033c-1.558 0-2.556.022-2.994.066h-.264c-.153-.153-.23-.274-.23-.362.044-.592.186-.976.428-1.151h.46c1.536-.066 2.654-.615 3.356-1.646.132-.131 2.117-3.476 5.955-10.034 3.839-6.558 5.79-9.881 5.857-9.97.153-.262.416-.394.79-.394H39.217c.131.197.197.307.197.329l.922 10.627c.614 7.085.943 10.66.986 10.726.11.24.823.362 2.14.362.547 0 .822.11.822.329a3.5 3.5 0 0 1-.1.46c-.065.33-.12.527-.164.592-.044.066-.197.11-.46.132h-.46c-.242 0-.67-.011-1.284-.033a70.252 70.252 0 0 0-2.402-.033c-2.062 0-3.41.022-4.047.066h-.394c-.132-.132-.198-.23-.198-.296 0-.066.022-.263.066-.592.088-.285.154-.46.197-.527l.132-.098h.658c1.184-.066 1.886-.253 2.106-.56l-.395-4.935h-7.83l-1.12 1.908c-.898 1.514-1.348 2.402-1.348 2.665Zm10.133-6.12c0-.24-.131-1.951-.394-5.132-.264-3.18-.417-4.781-.461-4.803l-.888 1.414c-.351.593-1.042 1.766-2.073 3.52l-2.961 5.002 3.389.033c2.259 0 3.388-.011 3.388-.033ZM21.731 45.9c.022 0 .812-.055 2.369-.165 1.557-.11 2.358-.175 2.402-.197.263 0 .395.088.395.263 0 .154-.801 3.466-2.402 9.936-1.602 6.47-2.424 9.772-2.468 9.903a1.17 1.17 0 0 0-.033.494c0 .921.307 1.382.922 1.382.197-.022.416-.12.657-.296.461-.439.91-1.492 1.35-3.159.131-.439.24-.669.328-.69.044-.023.154-.034.33-.034h.263c.329 0 .493.088.493.264 0 .11-.033.285-.099.526-.285 1.097-.614 1.985-.987 2.665-.373.68-.68 1.119-.92 1.316a3.634 3.634 0 0 1-.922.526c-.175.044-.439.066-.79.066-.745 0-1.37-.164-1.875-.493-.505-.33-.834-.67-.987-1.02l-.197-.494c-.022-.022-.066-.01-.132.033l-.132.132c-1.294 1.228-2.61 1.842-3.948 1.842-1.206 0-2.27-.439-3.191-1.316-.921-.877-1.382-2.27-1.382-4.178 0-1.053.22-2.128.658-3.225.439-1.096.965-2.04 1.58-2.829 1.03-1.25 2.061-2.117 3.092-2.6 1.03-.482 1.963-.723 2.797-.723 1.228 0 2.15.46 2.763 1.382.11.132.165.175.165.132l.888-3.587c.57-2.303.877-3.52.921-3.652 0-.285-.076-.46-.23-.526-.154-.066-.581-.12-1.283-.165h-.691c-.132-.131-.197-.219-.197-.263 0-.044.021-.252.065-.625.11-.417.253-.625.428-.625Zm-.46 11.745c-.505-1.732-1.328-2.599-2.468-2.599-.768 0-1.503.34-2.204 1.02-.702.68-1.25 1.569-1.646 2.665a26.265 26.265 0 0 0-1.348 5.396v.362c0 .175-.011.307-.033.395 0 .987.197 1.667.592 2.04.395.372.866.57 1.415.592 1.184 0 2.401-.79 3.652-2.37l.263-.361 1.776-7.14ZM27.653 55.701c-.153-.153-.23-.263-.23-.329 0-.087.033-.263.099-.526.065-.263.12-.417.164-.46.044-.11.143-.165.296-.165.154 0 .713-.011 1.678-.033h1.744l.625-2.632c.066-.241.142-.56.23-.954.088-.395.165-.68.23-.856.066-.175.132-.395.198-.658s.154-.45.263-.56c.11-.109.22-.24.33-.394a.74.74 0 0 1 .46-.296 2.72 2.72 0 0 1 .592-.066c.395.022.669.143.823.362.153.22.23.428.23.625 0 .154-.099.67-.296 1.547a50.078 50.078 0 0 1-.658 2.599l-.33 1.217c0 .044.55.066 1.646.066h1.678c.153.153.23.274.23.362 0 .482-.143.866-.428 1.151h-3.52l-1.184 4.77c-.856 3.51-1.284 5.397-1.284 5.66 0 .921.296 1.382.889 1.382.767 0 1.513-.373 2.237-1.119.724-.746 1.305-1.667 1.744-2.764.044-.131.098-.208.164-.23.066-.022.23-.044.494-.066h.131c.33 0 .494.088.494.263 0 .066-.033.198-.099.395-.11.351-.307.768-.592 1.25-.285.483-.658.998-1.119 1.547a6.084 6.084 0 0 1-1.678 1.382c-.658.372-1.327.559-2.007.559a3.806 3.806 0 0 1-1.875-.493c-.592-.33-1.02-.9-1.283-1.711-.044-.176-.066-.472-.066-.889v-.592l1.152-4.606c.767-3.093 1.162-4.65 1.184-4.672 0-.044-.56-.066-1.678-.066h-1.678ZM48.364 38.559H0v-1.974h48.364v1.974ZM63.295 34.382c0-.286.153-.505.46-.658h20.958c.33.175.494.394.494.658 0 .24-.154.45-.461.625l-10.462.032H63.82c-.35-.11-.526-.328-.526-.657Zm0 6.382c0-.329.175-.548.526-.658h20.925c.307.22.46.439.46.658 0 .285-.164.505-.493.658H63.755c-.307-.153-.46-.373-.46-.658ZM115.469 1.086c.022 0 .811-.055 2.369-.165 1.557-.11 2.358-.175 2.401-.197.264 0 .395.087.395.263 0 .153-.8 3.465-2.401 9.936-1.602 6.47-2.424 9.772-2.468 9.903a1.164 1.164 0 0 0-.033.494c0 .92.307 1.381.921 1.381.198-.021.417-.12.658-.296.461-.438.911-1.491 1.349-3.158.132-.439.241-.67.329-.691.044-.022.154-.033.329-.033h.263c.329 0 .494.088.494.263 0 .11-.033.285-.099.527-.285 1.096-.614 1.985-.987 2.665-.373.68-.68 1.118-.921 1.316a3.624 3.624 0 0 1-.921.526c-.176.044-.439.066-.79.066-.746 0-1.371-.165-1.875-.494-.505-.329-.834-.669-.987-1.02l-.198-.493c-.022-.022-.065-.011-.131.033l-.132.131c-1.294 1.229-2.61 1.843-3.948 1.843-1.206 0-2.27-.439-3.191-1.316-.922-.878-1.382-2.27-1.382-4.179 0-1.052.219-2.127.658-3.224.439-1.097.965-2.04 1.579-2.83 1.031-1.25 2.062-2.116 3.093-2.598 1.031-.483 1.963-.724 2.796-.724 1.229 0 2.15.46 2.764 1.381.11.132.165.176.165.132l.888-3.586c.57-2.303.877-3.52.921-3.652 0-.285-.077-.46-.23-.526-.154-.066-.581-.121-1.283-.165h-.691c-.132-.132-.198-.22-.198-.263 0-.044.022-.252.066-.625.11-.417.252-.625.428-.625Zm-.461 11.745c-.504-1.733-1.327-2.599-2.467-2.599-.768 0-1.503.34-2.205 1.02-.702.68-1.25 1.568-1.645 2.665a26.323 26.323 0 0 0-1.349 5.396v.362c0 .175-.011.307-.033.394 0 .987.198 1.667.593 2.04.394.373.866.57 1.414.592 1.185 0 2.402-.79 3.652-2.368l.264-.362 1.776-7.14ZM127.379 21.122c0 .527.504.834 1.513.922.395 0 .593.12.593.361 0 .022-.022.165-.066.428-.066.307-.132.505-.198.592-.065.088-.208.132-.427.132h-.395c-.22 0-.592-.011-1.119-.033a53.116 53.116 0 0 0-2.105-.033c-1.558 0-2.556.022-2.994.066h-.264c-.153-.153-.23-.274-.23-.362.044-.592.186-.976.428-1.151h.46c1.536-.066 2.654-.615 3.356-1.646.132-.131 2.117-3.476 5.955-10.034 3.839-6.558 5.791-9.881 5.857-9.97.153-.262.416-.394.789-.394H139.355c.131.197.197.307.197.329l.921 10.627c.615 7.085.944 10.66.987 10.726.11.24.823.362 2.139.362.548 0 .823.11.823.329 0 .043-.033.197-.099.46-.066.33-.121.527-.165.592-.044.066-.197.11-.46.132h-.461c-.241 0-.669-.011-1.283-.033a70.267 70.267 0 0 0-2.402-.033c-2.062 0-3.411.022-4.047.066h-.394c-.132-.132-.198-.23-.198-.296 0-.066.022-.263.066-.592.088-.285.154-.46.197-.527l.132-.098h.658c1.184-.066 1.886-.253 2.106-.56l-.395-4.935h-7.831l-1.118 1.908c-.899 1.514-1.349 2.402-1.349 2.665Zm10.133-6.12c0-.24-.131-1.951-.394-5.132-.264-3.18-.417-4.781-.461-4.803l-.888 1.414c-.351.593-1.042 1.766-2.073 3.52l-2.961 5.002 3.389.033c2.259 0 3.388-.011 3.388-.033ZM147.81 22.144c-.131 0-.427-.066-.888-.198-.461-.131-.702-.263-.724-.395 0-.153.603-2.697 1.81-7.632 1.206-4.936 1.875-7.513 2.007-7.732.329-.702.899-1.053 1.71-1.053.439 0 .9.164 1.382.493.483.33.724.812.724 1.448 0 .11-.022.274-.066.494-.022.153-.976 2.599-2.862 7.337-1.886 4.737-2.862 7.128-2.928 7.172a.322.322 0 0 1-.165.066ZM126.392 45.9c.022 0 .811-.055 2.369-.165 1.557-.11 2.357-.175 2.401-.197.264 0 .395.088.395.263 0 .154-.8 3.466-2.402 9.936-1.601 6.47-2.423 9.772-2.467 9.903a1.164 1.164 0 0 0-.033.494c0 .921.307 1.382.921 1.382.198-.022.417-.12.658-.296.461-.439.91-1.492 1.349-3.159.132-.439.241-.669.329-.69.044-.023.154-.034.329-.034h.263c.329 0 .494.088.494.264 0 .11-.033.285-.099.526-.285 1.097-.614 1.985-.987 2.665-.373.68-.68 1.119-.921 1.316a3.624 3.624 0 0 1-.921.526c-.176.044-.439.066-.79.066-.746 0-1.371-.164-1.875-.493-.505-.33-.834-.67-.987-1.02l-.198-.494c-.022-.022-.066-.01-.131.033l-.132.132c-1.294 1.228-2.61 1.842-3.948 1.842-1.206 0-2.27-.439-3.191-1.316-.922-.877-1.382-2.27-1.382-4.178 0-1.053.219-2.128.658-3.225.438-1.096.965-2.04 1.579-2.829 1.031-1.25 2.062-2.117 3.093-2.6 1.031-.482 1.963-.723 2.796-.723 1.229 0 2.15.46 2.764 1.382.11.132.164.175.164.132l.889-3.587c.57-2.303.877-3.52.921-3.652 0-.285-.077-.46-.23-.526-.154-.066-.582-.12-1.283-.165h-.691c-.132-.131-.198-.219-.198-.263 0-.044.022-.252.066-.625.11-.417.252-.625.428-.625Zm-.461 11.745c-.504-1.732-1.327-2.599-2.467-2.599-.768 0-1.503.34-2.205 1.02-.702.68-1.25 1.569-1.645 2.665a26.259 26.259 0 0 0-1.349 5.396v.362c0 .175-.011.307-.033.395 0 .987.198 1.667.593 2.04.394.372.866.57 1.414.592 1.185 0 2.402-.79 3.652-2.37l.263-.361 1.777-7.14ZM132.314 55.701c-.154-.153-.23-.263-.23-.329 0-.087.033-.263.098-.526.066-.263.121-.417.165-.46.044-.11.142-.165.296-.165.153 0 .713-.011 1.678-.033h1.744l.625-2.632c.066-.241.142-.56.23-.954.088-.395.165-.68.23-.856a6.18 6.18 0 0 0 .198-.658c.066-.263.153-.45.263-.56.11-.109.219-.24.329-.394a.741.741 0 0 1 .461-.296c.197-.044.394-.066.592-.066.395.022.669.143.822.362.154.22.231.428.231.625 0 .154-.099.67-.296 1.547a50.902 50.902 0 0 1-.658 2.599l-.329 1.217c0 .044.548.066 1.645.066h1.677c.154.153.231.274.231.362 0 .482-.143.866-.428 1.151h-3.52l-1.185 4.77c-.855 3.51-1.283 5.397-1.283 5.66 0 .921.296 1.382.888 1.382.768 0 1.514-.373 2.238-1.119s1.305-1.667 1.743-2.764c.044-.131.099-.208.165-.23.066-.022.23-.044.493-.066h.132c.329 0 .494.088.494.263 0 .066-.033.198-.099.395-.11.351-.307.768-.592 1.25-.285.483-.658.998-1.119 1.547a6.09 6.09 0 0 1-1.678 1.382c-.658.372-1.327.559-2.007.559a3.803 3.803 0 0 1-1.875-.493c-.592-.33-1.02-.9-1.283-1.711-.044-.176-.066-.472-.066-.889v-.592l1.151-4.606c.768-3.093 1.163-4.65 1.185-4.672 0-.044-.559-.066-1.678-.066h-1.678ZM157.549 38.559h-57.412v-1.974h57.412v1.974ZM170.65 38.002v-.428c0-.285.154-.504.461-.658h9.837v-4.935l.033-4.935c.219-.285.428-.428.625-.428.285 0 .504.165.658.494v9.804h9.804c.329.176.494.395.494.658 0 .264-.165.483-.494.658h-9.804v9.805c-.175.307-.373.46-.592.46h-.132c-.263 0-.46-.153-.592-.46v-9.805h-9.837c-.307-.153-.461-.373-.461-.658v.428ZM203.426 24.477c0-.482.143-.866.428-1.151h.362c.921.066 2.072.099 3.454.099 2.588 0 4.113-.033 4.573-.1h.329c.132.133.198.231.198.297 0 .066-.022.263-.066.592-.11.33-.208.538-.296.625h-.691c-.483.044-.812.066-.987.066-.636.11-.987.274-1.053.494 0 .043.318 2.796.954 8.258.636 5.461.965 8.214.987 8.258l2.402-3.85c1.601-2.566 3.202-5.154 4.804-7.764 1.601-2.61 2.423-3.96 2.467-4.047a.976.976 0 0 0 .132-.493c0-.527-.483-.834-1.448-.922-.395 0-.592-.12-.592-.361 0-.023.022-.165.066-.428.065-.307.131-.505.197-.593.066-.087.208-.131.428-.131h.395c.219 0 .592.01 1.118.033a52.98 52.98 0 0 0 2.106.033c1.513 0 2.467-.022 2.862-.066h.231c.153.154.23.274.23.362 0 .373-.099.724-.296 1.053-.066.066-.253.098-.56.098a55.53 55.53 0 0 0-.789.066 2.443 2.443 0 0 0-.691.165 7.368 7.368 0 0 0-.527.23 2.054 2.054 0 0 0-.394.263c-.132.11-.242.187-.329.23-.088.044-.176.143-.264.297-.087.153-.164.23-.23.23l-6.35 10.2c-3.948 6.382-5.988 9.65-6.119 9.804a5.246 5.246 0 0 0-.231.164l-.592.033h-.23c-.395 0-.592-.077-.592-.23-.066-.132-.494-3.641-1.283-10.529-.834-6.974-1.262-10.495-1.284-10.56-.109-.242-.789-.363-2.039-.363h-.56c-.153-.11-.23-.23-.23-.361Z" fill="#102C57"/></svg>