<svg width="4" height="8" fill="none" xmlns="http://www.w3.org/2000/svg"><path d="M.149 4.974c0-.793.161-1.55.484-2.27.324-.72.654-1.256.992-1.609.338-.352.551-.528.64-.528.043 0 .132.066.264.198s.205.228.22.286c0 .044-.088.162-.264.353a10.69 10.69 0 0 0-.573.683c-.206.265-.412.647-.617 1.146A4.438 4.438 0 0 0 .964 4.82c0 .176.007.264.022.264a.387.387 0 0 0 .11-.044 7.81 7.81 0 0 1 .287-.132.757.757 0 0 1 .396-.066c.368 0 .676.125.926.375s.382.565.397.947a1.18 1.18 0 0 1-.375.948c-.264.25-.573.382-.926.397-.426 0-.808-.191-1.146-.573C.318 6.554.15 5.9.15 4.974Z" fill="#000"/></svg>