<svg width="19" height="18" fill="none" xmlns="http://www.w3.org/2000/svg"><path d="M1.25 6.041c.175-1.052.851-2.268 2.03-3.646C4.456 1.017 5.91.315 7.64.29c.877 0 1.679.226 2.405.677.727.45 1.266 1.015 1.617 1.691C12.714 1.08 13.98.29 15.458.29c.928 0 1.73.276 2.406.827.677.551 1.028 1.29 1.053 2.218 0 .727-.176 1.316-.527 1.767-.35.45-.689.726-1.015.827-.325.1-.613.15-.864.15-.476 0-.865-.138-1.165-.414-.301-.275-.451-.639-.451-1.09 0-1.152.626-1.942 1.879-2.368-.276-.326-.777-.489-1.504-.489-.325 0-.563.026-.714.076-.952.4-1.654 1.228-2.105 2.48-1.504 5.539-2.255 8.772-2.255 9.699 0 .702.2 1.203.601 1.504.401.3.84.45 1.316.45.927 0 1.842-.413 2.744-1.24a6.266 6.266 0 0 0 1.842-3.045c.075-.25.15-.388.225-.413.076-.025.276-.05.602-.075h.15c.376 0 .564.1.564.3 0 .025-.025.163-.075.414-.401 1.428-1.178 2.694-2.33 3.796-1.154 1.103-2.494 1.655-4.023 1.655-1.754 0-3.082-.79-3.984-2.369-1.028 1.554-2.206 2.33-3.534 2.33h-.226c-1.227 0-2.105-.325-2.63-.977-.527-.651-.803-1.34-.828-2.067 0-.802.238-1.453.714-1.955.476-.5 1.04-.751 1.692-.751 1.078 0 1.616.526 1.616 1.578 0 .502-.15.94-.45 1.316-.302.376-.59.627-.865.752-.276.125-.439.188-.489.188l-.113.037c0 .025.075.076.226.15.15.076.35.164.601.264.25.1.489.138.714.113.903 0 1.68-.564 2.331-1.692.226-.4.514-1.253.865-2.556.35-1.303.701-2.656 1.052-4.06.351-1.403.551-2.23.602-2.48.125-.677.188-1.166.188-1.467 0-.702-.188-1.203-.564-1.503a1.991 1.991 0 0 0-1.278-.452c-1.003 0-1.943.401-2.82 1.203-.877.802-1.49 1.83-1.842 3.083-.05.225-.112.35-.188.376-.075.025-.275.05-.601.075h-.526c-.15-.15-.226-.288-.226-.414Z" fill="#102C57"/></svg>