<svg width="216" height="81" fill="none" xmlns="http://www.w3.org/2000/svg"><path d="M17.994 1.276c.025 0 .952-.065 2.78-.193C22.602.954 23.54.877 23.593.85c.308 0 .463.103.463.309 0 .18-.94 4.067-2.819 11.661-1.879 7.594-2.844 11.468-2.896 11.623a1.37 1.37 0 0 0-.038.579c0 1.081.36 1.622 1.08 1.622.232-.026.49-.142.773-.348.54-.515 1.068-1.75 1.583-3.707.155-.514.283-.785.386-.81.052-.026.18-.04.386-.04h.309c.386 0 .58.104.58.31 0 .128-.04.334-.116.618-.335 1.287-.721 2.33-1.159 3.127-.437.798-.798 1.313-1.08 1.545a4.267 4.267 0 0 1-1.082.618c-.206.051-.515.077-.927.077-.875 0-1.609-.193-2.2-.58-.593-.385-.979-.784-1.16-1.196l-.23-.58c-.027-.025-.078-.012-.155.039l-.155.154c-1.518 1.442-3.063 2.163-4.633 2.163-1.416 0-2.665-.515-3.746-1.545-1.08-1.03-1.622-2.664-1.622-4.904 0-1.235.258-2.497.773-3.784s1.132-2.394 1.853-3.32c1.21-1.468 2.42-2.485 3.63-3.05 1.21-.567 2.304-.85 3.282-.85 1.441 0 2.523.54 3.243 1.621.13.155.194.206.194.155l1.042-4.209c.67-2.703 1.03-4.132 1.081-4.286 0-.335-.09-.54-.27-.618-.18-.077-.682-.141-1.506-.193h-.81c-.155-.154-.232-.257-.232-.309 0-.051.025-.296.077-.734.128-.489.296-.733.502-.733Zm-.54 13.785c-.593-2.034-1.558-3.05-2.897-3.05-.9 0-1.763.398-2.587 1.196-.824.798-1.467 1.84-1.93 3.128a30.83 30.83 0 0 0-1.584 6.333v.424c0 .206-.013.36-.038.464 0 1.158.231 1.956.695 2.394.463.437 1.016.669 1.66.695 1.39 0 2.819-.927 4.286-2.78l.309-.425 2.085-8.38ZM31.971 24.79c0 .618.592.978 1.777 1.081.463 0 .695.142.695.425 0 .026-.026.193-.078.502-.077.36-.154.592-.231.695-.077.103-.245.154-.502.154h-.463c-.258 0-.696-.013-1.313-.038a62.39 62.39 0 0 0-2.472-.039c-1.827 0-2.999.026-3.513.077h-.31c-.18-.18-.27-.322-.27-.424.052-.696.22-1.146.502-1.352h.54c1.803-.077 3.116-.72 3.94-1.93.154-.155 2.484-4.08 6.988-11.778C41.767 4.466 44.057.566 44.136.463c.18-.308.489-.463.926-.463h.966c.154.232.231.36.231.386l1.081 12.472c.721 8.315 1.107 12.511 1.159 12.588.129.283.965.425 2.51.425.643 0 .965.129.965.386 0 .052-.038.232-.116.54-.077.387-.141.619-.193.696-.051.077-.232.129-.54.154h-.541c-.283 0-.785-.013-1.506-.038-.72-.026-1.66-.039-2.819-.039-2.42 0-4.003.026-4.75.077h-.462c-.155-.154-.232-.27-.232-.347 0-.078.026-.31.077-.695.103-.335.18-.54.232-.618l.154-.116h.773c1.39-.077 2.213-.296 2.47-.656l-.463-5.792h-9.19l-1.312 2.24c-1.056 1.775-1.584 2.818-1.584 3.127Zm11.893-7.182c0-.283-.154-2.291-.463-6.024-.309-3.732-.49-5.612-.54-5.637l-1.043 1.66c-.412.695-1.223 2.072-2.433 4.132l-3.475 5.869 3.977.038c2.652 0 3.977-.012 3.977-.038ZM25.504 53.866c.026 0 .952-.065 2.78-.193 1.828-.129 2.768-.206 2.819-.232.309 0 .463.103.463.309 0 .18-.94 4.067-2.818 11.661-1.88 7.594-2.845 11.468-2.896 11.623a1.37 1.37 0 0 0-.04.579c0 1.081.361 1.622 1.082 1.622.232-.026.49-.142.772-.348.541-.515 1.069-1.75 1.584-3.707.154-.515.283-.785.386-.81.051-.026.18-.04.386-.04h.309c.386 0 .579.104.579.31 0 .128-.039.334-.116.617-.335 1.288-.72 2.33-1.158 3.128-.438.798-.798 1.313-1.081 1.545a4.265 4.265 0 0 1-1.082.617c-.206.052-.514.078-.926.078-.876 0-1.61-.193-2.201-.58-.592-.386-.979-.785-1.159-1.197l-.231-.579c-.026-.025-.078-.013-.155.039l-.154.154c-1.52 1.442-3.064 2.163-4.634 2.163-1.416 0-2.664-.515-3.745-1.545-1.082-1.03-1.622-2.664-1.622-4.904 0-1.235.257-2.497.772-3.784s1.133-2.394 1.854-3.32c1.21-1.468 2.42-2.485 3.63-3.05 1.21-.567 2.303-.85 3.281-.85 1.442 0 2.523.54 3.244 1.621.128.155.193.206.193.155l1.042-4.209c.67-2.703 1.03-4.132 1.082-4.286 0-.335-.09-.54-.27-.618-.18-.077-.683-.142-1.507-.193h-.81c-.155-.154-.232-.257-.232-.309 0-.051.026-.296.077-.734.129-.489.296-.733.502-.733Zm-.54 13.785c-.593-2.034-1.558-3.05-2.896-3.05-.902 0-1.764.398-2.588 1.196-.823.798-1.467 1.84-1.93 3.128a30.826 30.826 0 0 0-1.583 6.332v.425c0 .206-.013.36-.039.464 0 1.158.232 1.956.695 2.394.463.437 1.017.669 1.66.695 1.39 0 2.82-.927 4.286-2.78l.31-.425 2.084-8.38ZM32.454 65.372c-.18-.18-.27-.308-.27-.386 0-.103.038-.309.116-.618.077-.308.141-.489.193-.54.051-.129.167-.193.347-.193.18 0 .837-.013 1.97-.039h2.046l.734-3.089c.077-.283.167-.656.27-1.12.103-.463.193-.798.27-1.004.077-.206.155-.463.232-.772.077-.309.18-.528.309-.656.128-.129.257-.283.386-.464a.87.87 0 0 1 .54-.347c.232-.052.464-.077.695-.077.464.025.786.167.966.424.18.258.27.502.27.734 0 .18-.116.785-.347 1.815a58.707 58.707 0 0 1-.773 3.05l-.386 1.429c0 .051.644.077 1.93.077h1.97c.18.18.27.322.27.425 0 .566-.167 1.017-.502 1.351H39.56l-1.39 5.6c-1.004 4.118-1.506 6.332-1.506 6.64 0 1.082.347 1.623 1.042 1.623.901 0 1.777-.438 2.626-1.313.85-.876 1.532-1.957 2.047-3.244.051-.154.115-.244.193-.27.077-.026.27-.052.579-.077h.154c.386 0 .58.103.58.308 0 .078-.04.232-.116.464-.129.412-.36.9-.695 1.467a13.717 13.717 0 0 1-1.313 1.815 7.139 7.139 0 0 1-1.97 1.622c-.772.437-1.557.656-2.355.656a4.466 4.466 0 0 1-2.2-.579c-.696-.386-1.198-1.055-1.507-2.008-.051-.206-.077-.553-.077-1.042v-.696l1.351-5.405c.901-3.63 1.365-5.458 1.39-5.483 0-.052-.656-.078-1.969-.078h-1.969ZM56.761 45.255H0v-2.317h56.761v2.317ZM74.283 40.351c0-.334.18-.592.54-.772h24.598c.386.206.579.463.579.772 0 .283-.18.528-.54.734l-12.28.038H74.901c-.412-.128-.618-.386-.618-.772Zm0 7.491c0-.386.206-.643.618-.772H99.46c.36.257.54.515.54.772 0 .335-.192.592-.578.773H74.823c-.36-.18-.54-.438-.54-.773ZM115.012 36.22c0-1.261.257-2.446.772-3.553.515-1.107 1.184-2.02 2.008-2.741a13.98 13.98 0 0 1 2.703-1.853 14.166 14.166 0 0 1 2.896-1.159c.953-.257 1.789-.373 2.51-.348h.579c1.133 0 1.802.013 2.008.04 3.166.411 5.638 1.544 7.414 3.397 1.776 1.854 2.677 3.926 2.703 6.217 0 1.596-.399 3.192-1.197 4.788s-1.776 3.27-2.935 5.02c-1.158 1.75-1.931 3.256-2.317 4.517v.116h1.699c1.184-.026 1.918-.064 2.201-.116.283-.051.502-.18.657-.386.128-.231.283-.772.463-1.621.18-.85.27-1.326.27-1.43l.039-.192h1.544v.077l-.656 3.32c-.386 2.215-.592 3.334-.618 3.36v.077h-6.023c-.695 0-1.107-.038-1.236-.116-.129-.077-.193-.296-.193-.656 0-1.776.618-4.544 1.853-8.302 1.236-3.758 1.867-6.59 1.892-8.495 0-1.467-.231-2.754-.695-3.861-.463-1.107-1.068-1.97-1.814-2.587-.747-.618-1.506-1.056-2.279-1.313a9.469 9.469 0 0 0-2.432-.463c-.747 0-1.493.128-2.24.386-.746.257-1.519.669-2.317 1.235-.798.567-1.441 1.416-1.93 2.549-.489 1.133-.734 2.471-.734 4.016 0 1.956.618 4.826 1.853 8.61 1.236 3.785 1.854 6.526 1.854 8.225 0 .335-.09.592-.27.772h-7.182v-.077c-.026-.026-.232-1.145-.618-3.36l-.657-3.32v-.077h1.545l.038.193a24.558 24.558 0 0 0 .425 2.046c.129.515.232.85.309 1.004.129.18.335.296.618.348.283.051 1.03.103 2.239.154h1.699v-.116c-.411-1.261-1.184-2.754-2.316-4.479a46.882 46.882 0 0 1-2.896-5.02c-.798-1.621-1.21-3.23-1.236-4.826ZM173.673 52.63c0 .515-.271.773-.811.773-.129 0-.412-.206-.85-.618-.437-.412-1.647-1.609-3.629-3.591l-4.016-4.016-4.055 4.055c-2.728 2.677-4.131 4.041-4.208 4.093a.625.625 0 0 1-.271.077.739.739 0 0 1-.54-.232.907.907 0 0 1-.271-.54c0-.18.181-.464.541-.85.36-.386 1.57-1.609 3.63-3.668l4.015-4.016-4.015-4.016c-2.086-2.085-3.295-3.308-3.63-3.668-.335-.36-.515-.643-.541-.85 0-.231.078-.411.232-.54a.874.874 0 0 1 .579-.193c.129 0 .219.013.271.038.077.052 1.48 1.416 4.208 4.093l4.055 4.055L168.383 39c1.982-1.982 3.192-3.18 3.629-3.59.438-.413.721-.619.85-.619.54 0 .811.258.811.773 0 .18-.129.411-.387.695-.257.283-1.518 1.544-3.784 3.784l-4.015 4.054 4.015 4.054c2.163 2.163 3.398 3.411 3.707 3.746.309.335.464.58.464.734ZM195.998 50.893c0 .618.592.978 1.776 1.081.464 0 .696.142.696.425 0 .026-.026.193-.078.502-.077.36-.154.592-.231.695-.078.103-.245.154-.502.154h-.464c-.257 0-.695-.013-1.313-.038a62.34 62.34 0 0 0-2.471-.039c-1.828 0-2.999.026-3.514.077h-.309c-.18-.18-.27-.322-.27-.425.052-.695.219-1.145.502-1.351h.541c1.802-.077 3.115-.72 3.938-1.93.155-.155 2.484-4.08 6.989-11.778 4.505-7.697 6.796-11.596 6.873-11.7.181-.308.49-.463.927-.463H210.053c.155.232.232.36.232.386l1.081 12.472c.721 8.315 1.107 12.511 1.159 12.588.128.284.965.425 2.51.425.643 0 .965.129.965.386 0 .052-.039.232-.116.54-.077.387-.142.619-.193.696-.051.077-.232.129-.541.154h-.54c-.283 0-.785-.013-1.506-.038a82.466 82.466 0 0 0-2.819-.039c-2.42 0-4.003.026-4.749.077h-.464c-.154-.154-.231-.27-.231-.347 0-.078.025-.31.077-.695.103-.335.18-.54.232-.618l.154-.116h.772c1.39-.077 2.214-.296 2.472-.656l-.464-5.792h-9.19l-1.313 2.24c-1.055 1.775-1.583 2.818-1.583 3.127Zm11.893-7.182c0-.283-.154-2.291-.463-6.024-.309-3.732-.489-5.612-.541-5.637l-1.042 1.66c-.412.695-1.223 2.072-2.433 4.132l-3.475 5.869 3.977.038c2.651 0 3.977-.013 3.977-.038Z" fill="#102C57"/></svg>