<svg width="178" height="37" fill="none" xmlns="http://www.w3.org/2000/svg"><path d="M0 15.888c0-.41.22-.725.662-.945h30.121c.473.252.71.567.71.945 0 .347-.221.647-.663.899l-15.036.047H.756C.252 16.677 0 16.361 0 15.888Zm0 9.174c0-.473.252-.788.757-.946H30.83c.442.315.662.63.662.946 0 .41-.236.725-.709.946H.662C.221 25.787 0 25.472 0 25.062ZM55.457 14.327c0-.788-.3-1.183-.899-1.183-.756 0-1.544.457-2.364 1.372-.82.914-1.497 2.317-2.033 4.208a.553.553 0 0 0-.095.142.363.363 0 0 0-.047.142c0 .031-.032.063-.095.094a.362.362 0 0 1-.142.048h-1.229c-.19-.19-.284-.331-.284-.426 0-.22.126-.678.379-1.371.252-.694.63-1.513 1.134-2.459a7.256 7.256 0 0 1 2.081-2.412 5.094 5.094 0 0 1 2.979-1.04c1.324 0 2.349.378 3.074 1.135.725.757 1.103 1.64 1.134 2.648 0 .536-.047.946-.141 1.23 0 .189-.237.882-.71 2.08a62.752 62.752 0 0 0-1.466 4.208c-.504 1.608-.788 3.011-.85 4.209 0 .851.078 1.544.236 2.08.41 1.356 1.403 2.034 2.979 2.034 1.166 0 2.254-.536 3.262-1.608a11.77 11.77 0 0 0 2.365-3.736 42.438 42.438 0 0 0 1.371-3.924c.347-1.198.52-2.065.52-2.601 0-.725-.126-1.355-.378-1.891s-.536-.946-.851-1.23a10.858 10.858 0 0 1-.851-.851 1.51 1.51 0 0 1-.379-1.04c0-.694.3-1.34.899-1.939s1.245-.898 1.938-.898c.6 0 1.135.283 1.608.85.473.568.725 1.482.757 2.743 0 .851-.19 2.16-.568 3.925-.378 1.765-.961 3.736-1.75 5.91-.787 2.176-1.906 4.052-3.357 5.628-1.45 1.576-3.12 2.38-5.012 2.411-2.017 0-3.625-.52-4.823-1.56-1.166-1.009-1.75-2.506-1.75-4.492 0-.978.127-1.986.379-3.027.252-1.04.898-2.884 1.938-5.532.694-2.018 1.04-3.31 1.04-3.877ZM73.945 30.264c-.189 0-.614-.095-1.276-.284-.662-.19-1.009-.378-1.04-.568 0-.22.866-3.877 2.6-10.97 1.734-7.093 2.695-10.797 2.885-11.112.472-1.009 1.292-1.513 2.459-1.513.63 0 1.292.236 1.986.71.693.472 1.04 1.165 1.04 2.08 0 .157-.032.394-.095.709-.031.22-1.403 3.736-4.114 10.545-2.71 6.809-4.114 10.245-4.208 10.308a.46.46 0 0 1-.237.095ZM96.368 21.09v-.616c0-.41.221-.725.663-.945h14.138v-7.093l.047-7.093c.315-.41.615-.615.899-.615.409 0 .725.237.945.71v14.09h14.091c.473.253.71.568.71.947 0 .378-.237.693-.71.945H113.06v14.091c-.252.442-.536.662-.851.662h-.189c-.378 0-.662-.22-.851-.662v-14.09H97.031c-.442-.221-.663-.537-.663-.947v.615ZM143.474 1.655c0-.694.205-1.245.615-1.655h.52c1.324.094 2.979.142 4.965.142 3.72 0 5.911-.048 6.573-.142h.473c.189.189.283.33.283.425 0 .095-.031.379-.094.852-.158.472-.3.772-.426.898h-.993c-.693.063-1.166.095-1.418.095-.915.157-1.419.394-1.513.709 0 .063.457 4.02 1.371 11.869.914 7.849 1.387 11.805 1.418 11.868l3.452-5.532c2.301-3.688 4.603-7.408 6.904-11.16 2.301-3.75 3.483-5.69 3.546-5.816.126-.22.19-.457.19-.709 0-.757-.694-1.198-2.081-1.324-.567 0-.851-.173-.851-.52 0-.032.031-.237.094-.615.095-.441.19-.725.284-.851.095-.126.3-.19.615-.19h.567c.315 0 .851.017 1.608.048.757.032 1.765.047 3.026.047 2.175 0 3.547-.031 4.114-.094h.331c.221.22.331.394.331.52 0 .536-.142 1.04-.425 1.513-.095.095-.363.142-.804.142-.41.032-.788.063-1.135.095-.347.031-.678.11-.993.236-.315.126-.568.236-.757.331-.189.095-.378.22-.567.378a2.644 2.644 0 0 1-.473.331c-.126.063-.252.205-.378.426-.126.22-.237.33-.331.33l-9.126 14.66c-5.675 9.173-8.606 13.87-8.796 14.09a7.698 7.698 0 0 0-.331.237l-.851.047h-.331c-.567 0-.851-.11-.851-.33-.094-.19-.709-5.234-1.844-15.132-1.198-10.025-1.813-15.084-1.844-15.179-.158-.347-1.135-.52-2.932-.52h-.804c-.22-.158-.331-.331-.331-.52Z" fill="#102C57"/></svg>