<svg width="16" height="18" fill="none" xmlns="http://www.w3.org/2000/svg"><path d="M0 6.063c.025-.076.05-.178.076-.305.026-.127.09-.406.19-.838.102-.432.23-.826.382-1.181.152-.356.343-.775.571-1.258.23-.483.483-.864.763-1.143.28-.28.61-.56.99-.839.382-.28.8-.393 1.258-.343.737 0 1.385.153 1.944.458.558.305.952.584 1.18.838.23.254.37.508.42.762.05.153.089.229.114.229.026 0 .127-.089.305-.267C9.413.855 10.823.195 12.423.195h.115c1.22 0 2.134.52 2.743 1.562.204.483.305.953.305 1.41 0 .762-.165 1.372-.495 1.83-.33.456-.66.749-.99.876-.331.127-.649.177-.954.152-.508 0-.914-.14-1.22-.42-.304-.279-.456-.647-.456-1.104 0-1.22.71-2.033 2.134-2.44-.56-.33-1.017-.495-1.372-.495-1.423 0-2.731.94-3.925 2.82a5.064 5.064 0 0 0-.572 1.258c-.127.432-.559 2.121-1.296 5.068-.863 3.557-1.359 5.45-1.486 5.678-.33.686-.876 1.03-1.639 1.03-.33 0-.597-.077-.8-.23-.203-.152-.343-.304-.419-.457-.076-.152-.102-.279-.076-.38 0-.33.508-2.516 1.524-6.555C4.56 5.758 5.068 3.51 5.068 3.053c0-.991-.33-1.487-.99-1.487-.534 0-.991.356-1.372 1.067a11.074 11.074 0 0 0-.915 2.325c-.229.838-.368 1.296-.42 1.372-.05.05-.253.076-.609.076H.23C.076 6.254 0 6.14 0 6.063Z" fill="#102C57"/></svg>