<svg width="12" height="11" fill="none" xmlns="http://www.w3.org/2000/svg"><path d="M1.208 3.492c.102-.617.5-1.33 1.19-2.138C3.088.546 3.94.134 4.954.12c.514 0 .984.132 1.41.397.427.264.742.595.948.992C7.93.583 8.672.12 9.538.12c.543 0 1.014.162 1.41.485.397.323.603.757.617 1.3 0 .426-.102.772-.308 1.036-.206.264-.404.426-.595.485-.191.059-.36.088-.507.088-.28 0-.507-.08-.683-.242a.826.826 0 0 1-.265-.64c0-.675.368-1.138 1.102-1.388-.161-.19-.455-.286-.881-.286-.191 0-.33.014-.419.044-.558.235-.97.72-1.234 1.454-.882 3.247-1.322 5.142-1.322 5.686 0 .411.117.705.352.882.235.176.492.264.772.264.543 0 1.08-.242 1.608-.727a3.674 3.674 0 0 0 1.08-1.785c.044-.147.088-.228.132-.243.044-.014.162-.03.353-.044h.088c.22 0 .33.059.33.176 0 .015-.014.096-.043.243-.235.837-.69 1.58-1.367 2.226-.676.646-1.462.97-2.358.97-1.028 0-1.807-.463-2.336-1.389-.602.91-1.293 1.366-2.071 1.366H2.86c-.72 0-1.234-.19-1.542-.573-.309-.382-.47-.786-.485-1.212 0-.47.14-.852.419-1.146.279-.294.61-.44.991-.44.632 0 .948.308.948.925 0 .294-.088.551-.264.771-.177.22-.346.368-.507.441-.162.074-.257.11-.287.11l-.066.022c0 .015.044.045.132.089.088.044.206.095.353.154s.286.08.419.066c.528 0 .984-.33 1.366-.992.132-.235.301-.734.507-1.498a136.62 136.62 0 0 0 .97-3.835c.073-.397.11-.683.11-.86 0-.41-.11-.705-.33-.881a1.167 1.167 0 0 0-.75-.264c-.588 0-1.139.235-1.653.705s-.874 1.072-1.08 1.807c-.03.132-.066.206-.11.22-.044.015-.162.03-.353.044H1.34c-.088-.088-.132-.169-.132-.242Z" fill="#000"/></svg>