<svg width="10" height="11" fill="none" xmlns="http://www.w3.org/2000/svg"><path d="M.463 3.536c.014-.044.03-.103.044-.176.015-.074.051-.235.11-.485.059-.25.132-.478.22-.683.089-.206.199-.448.331-.728.132-.279.28-.5.44-.66.162-.162.353-.324.574-.486.22-.161.463-.227.727-.198.426 0 .8.088 1.124.265.323.176.55.338.683.484a.948.948 0 0 1 .243.441c.029.088.051.132.066.132.014 0 .073-.051.176-.154C5.906.524 6.721.142 7.647.142h.066c.706 0 1.234.301 1.587.904.118.279.176.55.176.815 0 .44-.095.794-.286 1.058-.191.264-.382.433-.573.507a1.239 1.239 0 0 1-.551.088c-.294 0-.529-.08-.705-.242a.826.826 0 0 1-.265-.64c0-.705.412-1.175 1.234-1.41-.323-.19-.587-.286-.793-.286-.823 0-1.58.543-2.27 1.63a2.929 2.929 0 0 0-.33.728c-.074.25-.324 1.226-.75 2.93-.5 2.058-.786 3.152-.86 3.284-.19.397-.506.595-.947.595a.752.752 0 0 1-.463-.132.794.794 0 0 1-.242-.264c-.044-.088-.059-.162-.044-.22 0-.192.294-1.455.881-3.791.588-2.336.882-3.637.882-3.901 0-.573-.191-.86-.573-.86-.309 0-.573.206-.794.618-.22.411-.396.86-.528 1.344-.133.485-.213.75-.243.793-.03.03-.147.044-.352.044H.595C.507 3.646.463 3.58.463 3.536Z" fill="#000"/></svg>