<svg width="18" height="24" fill="none" xmlns="http://www.w3.org/2000/svg"><path d="M12.008.366c.022 0 .82-.056 2.394-.166C15.976.089 16.785.022 16.83 0c.266 0 .399.089.399.266 0 .155-.81 3.503-2.428 10.042-1.618 6.54-2.45 9.876-2.494 10.009-.044.133-.055.299-.033.498 0 .931.31 1.397.931 1.397.2-.022.421-.122.665-.3.466-.443.92-1.507 1.364-3.191.133-.444.243-.677.332-.699.044-.022.155-.033.332-.033h.267c.332 0 .498.089.498.266 0 .11-.033.288-.1.532-.288 1.108-.62 2.006-.997 2.693-.377.688-.687 1.13-.931 1.33-.244.2-.554.377-.931.532-.177.045-.443.067-.798.067-.754 0-1.386-.166-1.895-.499-.51-.332-.843-.676-.998-1.03l-.2-.5c-.022-.022-.066-.01-.132.034-.045.044-.09.088-.133.133-1.308 1.241-2.638 1.862-3.99 1.862-1.22 0-2.295-.443-3.226-1.33S.935 19.785.935 17.856c0-1.064.222-2.15.666-3.259.443-1.108.975-2.061 1.596-2.86C4.238 10.475 5.28 9.6 6.322 9.112c1.042-.488 1.984-.732 2.827-.732 1.24 0 2.172.466 2.793 1.397.11.133.166.177.166.133l.898-3.624c.576-2.328.886-3.558.93-3.691 0-.289-.077-.466-.232-.532-.155-.067-.588-.122-1.297-.167h-.698c-.133-.133-.2-.221-.2-.266 0-.044.022-.255.067-.631.11-.422.255-.632.432-.632Zm-.465 11.87c-.51-1.75-1.341-2.626-2.494-2.626-.776 0-1.519.343-2.228 1.03-.71.688-1.264 1.585-1.663 2.694a26.546 26.546 0 0 0-1.363 5.453v.366c0 .177-.011.31-.033.399 0 .997.2 1.684.598 2.061.4.377.876.577 1.43.599 1.197 0 2.427-.798 3.691-2.394l.266-.366 1.796-7.216Z" fill="#102C57"/></svg>