<svg width="45" height="30" fill="none" xmlns="http://www.w3.org/2000/svg"><path d="M6.237 22.092c0 .532.51.843 1.53.931.398 0 .598.122.598.366 0 .022-.023.166-.067.432-.066.31-.133.51-.2.599-.066.088-.21.133-.432.133h-.399c-.221 0-.598-.011-1.13-.034a53.576 53.576 0 0 0-2.128-.033c-1.574 0-2.583.022-3.026.067H.717c-.155-.155-.233-.277-.233-.366.044-.599.188-.986.432-1.164h.466c1.552-.066 2.682-.62 3.391-1.662.133-.133 2.14-3.514 6.019-10.142 3.88-6.628 5.852-9.986 5.919-10.075.155-.266.42-.4.798-.4h.831c.133.2.2.311.2.333l.93 10.74c.621 7.16.954 10.774.998 10.84.11.244.831.366 2.161.366.555 0 .832.111.832.333 0 .044-.034.2-.1.465-.067.333-.122.532-.166.599-.045.066-.2.11-.466.133h-.465c-.244 0-.677-.011-1.297-.034-.62-.022-1.43-.033-2.427-.033-2.084 0-3.448.022-4.09.067h-.4c-.132-.133-.199-.233-.199-.3 0-.066.022-.265.067-.598.088-.288.155-.466.2-.532l.132-.1h.665c1.197-.066 1.907-.255 2.128-.565l-.399-4.988H8.73L7.6 19.4c-.909 1.53-1.363 2.427-1.363 2.693Zm10.24-6.185c0-.243-.132-1.973-.398-5.187-.266-3.214-.421-4.832-.466-4.854l-.897 1.43c-.355.598-1.053 1.784-2.095 3.557l-2.993 5.054 3.425.034c2.283 0 3.425-.011 3.425-.034ZM26.886 23.123c-.133 0-.432-.066-.898-.199-.465-.133-.71-.266-.731-.399 0-.155.61-2.727 1.828-7.714 1.22-4.988 1.896-7.593 2.029-7.814.332-.71.909-1.064 1.729-1.064.443 0 .909.166 1.396.498.488.333.732.82.732 1.463 0 .111-.022.278-.067.5-.022.154-.986 2.626-2.892 7.414-1.907 4.788-2.893 7.205-2.96 7.249a.323.323 0 0 1-.166.067ZM41.56 21.594c-.157 0-.572-.087-1.246-.259-.674-.172-1.167-.259-1.481-.259-.313 0-.58.032-.8.095-.219.062-.399.14-.54.235a.93.93 0 0 0-.282.258 6.407 6.407 0 0 1-.165.259l-.047.094c-.047.047-.164.07-.352.07-.33 0-.494-.062-.494-.188 0-.078.024-.188.07-.329a3.74 3.74 0 0 1 1.011-1.575c.47-.439.988-.705 1.552-.8.188-.03.321-.046.4-.046.392 0 .744.133 1.057.4.314.266.612.524.894.775.282.251.58.384.893.4.345 0 .69-.259 1.035-.776.344-.517.525-.776.54-.776.016-.015.134-.023.353-.023h.306c.094.094.14.156.14.188 0 .063-.039.172-.117.329a2.693 2.693 0 0 1-.33.494c-.14.172-.273.345-.399.517-.125.172-.235.321-.329.447l-.164.211c-.674.8-1.74 1.857-3.198 3.174-1.457 1.316-2.358 2.163-2.703 2.539l-.282.282.352.023c.345 0 .847.086 1.505.259.658.172 1.152.259 1.481.259.596 0 1.144-.15 1.646-.447.501-.298.83-.69.987-1.176.063-.14.117-.227.165-.258.047-.031.164-.047.352-.047.298 0 .447.078.447.235a.872.872 0 0 1-.024.212 4.709 4.709 0 0 1-1.551 2.42c-.768.643-1.536.973-2.304.988-.407 0-.768-.133-1.082-.4a48.459 48.459 0 0 1-.916-.799c-.298-.266-.596-.4-.894-.4-.69 0-1.308.47-1.857 1.411a.47.47 0 0 1-.4.188h-.423c-.094-.094-.14-.164-.14-.211 0-.235.454-.91 1.363-2.022.611-.705 1.645-1.724 3.103-3.056 1.458-1.332 2.359-2.179 2.703-2.54.188-.25.243-.375.165-.375Z" fill="#102C57"/></svg>