<svg width="4" height="8" fill="none" xmlns="http://www.w3.org/2000/svg"><path d="M.52 4.974c0-.793.161-1.55.484-2.27.324-.72.654-1.256.992-1.609.338-.352.551-.528.64-.528.043 0 .131.066.264.198.132.132.205.228.22.286 0 .044-.088.162-.264.353a10.69 10.69 0 0 0-.573.683c-.206.265-.412.647-.617 1.146a4.438 4.438 0 0 0-.331 1.587c0 .176.007.264.022.264a.387.387 0 0 0 .11-.044c.059-.03.154-.073.287-.132a.757.757 0 0 1 .396-.066c.368 0 .676.125.926.375s.382.565.397.947a1.18 1.18 0 0 1-.375.948c-.264.25-.573.382-.926.397-.426 0-.808-.191-1.146-.573C.69 6.554.52 5.9.52 4.974Z" fill="#000"/></svg>