<svg width="17" height="23" fill="none" xmlns="http://www.w3.org/2000/svg"><path d="M.687 6.01c0-.31.166-.842.498-1.595.333-.754.865-1.541 1.596-2.361.732-.82 1.552-1.22 2.46-1.197.91 0 1.641.255 2.196.765.554.51.842 1.219.864 2.128-.044.42-.078.654-.1.698 0 .066-.177.576-.532 1.53-.354.953-.72 2.028-1.097 3.225s-.554 2.15-.532 2.86c0 .953.155 1.618.465 1.995.31.376.776.576 1.397.598.51 0 .986-.122 1.43-.366.443-.243.787-.498 1.03-.764.245-.267.544-.632.898-1.098 0-.022.056-.244.167-.665.11-.421.266-1.075.465-1.962.2-.886.41-1.707.632-2.46.842-3.325 1.308-5.065 1.397-5.22.288-.6.764-.898 1.43-.898.287 0 .52.077.698.232.177.156.299.289.365.4.067.11.089.21.067.299 0 .288-.543 2.615-1.63 6.982-1.086 4.367-1.706 6.762-1.862 7.183-.62 1.84-1.695 3.303-3.225 4.389-1.53 1.086-3.059 1.64-4.589 1.662-.997 0-1.873-.244-2.626-.731-.754-.488-1.131-1.22-1.131-2.195 0-.487.078-.897.233-1.23.155-.333.366-.576.632-.732.266-.155.487-.266.665-.332.177-.067.365-.1.565-.1.975 0 1.463.466 1.463 1.397 0 .443-.133.831-.4 1.163-.265.333-.52.555-.764.666-.244.11-.388.166-.432.166l-.1.033c.044.11.255.244.632.4a2.95 2.95 0 0 0 1.13.232h.266c.377 0 .665-.022.865-.067.731-.2 1.408-.62 2.028-1.263a7.352 7.352 0 0 0 1.43-2.062 22.57 22.57 0 0 0 .765-1.862c.177-.51.266-.842.266-.997l-.2.133c-.133.088-.343.21-.631.365a7.536 7.536 0 0 1-.865.4c-.443.11-.876.166-1.297.166-1.02 0-1.917-.244-2.693-.732s-1.286-1.274-1.53-2.36c-.022-.156-.033-.5-.033-1.031 0-1.264.388-2.916 1.164-4.955.776-2.04 1.164-3.336 1.164-3.89v-.466c0-.066-.045-.144-.133-.233a.494.494 0 0 0-.366-.133h-.133c-.51 0-.975.21-1.397.632a5.247 5.247 0 0 0-.997 1.363 8.788 8.788 0 0 0-.565 1.397c-.133.443-.222.687-.266.732-.045.044-.222.066-.532.066H.886c-.133-.133-.2-.233-.2-.3Z" fill="#102C57"/></svg>