<svg width="11" height="11" fill="none" xmlns="http://www.w3.org/2000/svg"><path d="M7.662 2.412c-.147 0-.536-.08-1.168-.242-.632-.162-1.095-.243-1.388-.243-.294 0-.544.03-.75.088a1.811 1.811 0 0 0-.507.22.868.868 0 0 0-.264.243 6.098 6.098 0 0 1-.154.243l-.044.088c-.045.044-.155.066-.331.066-.309 0-.463-.059-.463-.176 0-.074.022-.177.066-.309A3.505 3.505 0 0 1 3.607.914c.44-.412.926-.662 1.454-.75.177-.03.302-.044.375-.044.367 0 .698.125.992.375.294.25.573.492.837.727.265.235.544.36.838.375.323 0 .646-.243.97-.728.323-.484.492-.727.506-.727.015-.015.125-.022.33-.022h.287c.088.088.133.147.133.176 0 .06-.037.162-.11.309a2.53 2.53 0 0 1-.31.463c-.131.161-.256.323-.374.485-.117.161-.22.3-.308.418l-.155.199c-.631.749-1.63 1.74-2.997 2.975-1.366 1.234-2.21 2.027-2.534 2.38l-.265.264.331.022c.323 0 .793.081 1.41.243.617.161 1.08.242 1.389.242.558 0 1.072-.14 1.542-.418.47-.28.78-.647.926-1.102.059-.133.11-.213.154-.243s.155-.044.33-.044c.28 0 .42.074.42.22a.82.82 0 0 1-.022.199A4.414 4.414 0 0 1 8.3 9.178c-.72.602-1.44.91-2.16.925a1.52 1.52 0 0 1-1.013-.374c-.294-.25-.58-.5-.86-.75s-.558-.374-.837-.374c-.647 0-1.227.44-1.741 1.322a.44.44 0 0 1-.375.176H.918C.83 10.015.786 9.95.786 9.905c0-.22.426-.852 1.278-1.895.573-.661 1.543-1.616 2.91-2.865 1.366-1.249 2.21-2.042 2.534-2.38.176-.235.227-.353.154-.353Z" fill="#000"/></svg>