<svg width="24" height="25" fill="none" xmlns="http://www.w3.org/2000/svg"><path d="M5.924 22.092c0 .532.51.843 1.53.931.398 0 .598.122.598.366 0 .022-.022.166-.067.432-.066.31-.133.51-.2.599-.066.088-.21.133-.432.133h-.399c-.221 0-.598-.011-1.13-.034a53.576 53.576 0 0 0-2.128-.033c-1.574 0-2.583.022-3.026.067H.404c-.155-.155-.233-.277-.233-.366.045-.599.189-.986.432-1.164h.466c1.552-.066 2.682-.62 3.392-1.662.133-.133 2.139-3.514 6.018-10.142 3.88-6.628 5.852-9.986 5.919-10.075.155-.266.421-.4.798-.4h.831c.133.2.2.311.2.333l.93 10.74c.621 7.16.954 10.774.998 10.84.111.244.831.366 2.162.366.554 0 .83.111.83.333 0 .044-.032.2-.099.465-.066.333-.122.532-.166.599-.045.066-.2.11-.466.133h-.465c-.244 0-.676-.011-1.297-.034-.62-.022-1.43-.033-2.427-.033-2.084 0-3.447.022-4.09.067h-.4c-.132-.133-.199-.233-.199-.3 0-.066.022-.265.067-.598.088-.288.155-.466.2-.532l.132-.1h.665c1.197-.066 1.907-.255 2.128-.565l-.399-4.988H8.417L7.287 19.4c-.909 1.53-1.363 2.427-1.363 2.693Zm10.241-6.185c0-.243-.133-1.973-.399-5.187-.266-3.214-.421-4.832-.466-4.854l-.897 1.43c-.355.598-1.053 1.784-2.095 3.557l-2.993 5.054 3.425.034c2.283 0 3.425-.011 3.425-.034Z" fill="#102C57"/></svg>