<svg width="19" height="25" fill="none" xmlns="http://www.w3.org/2000/svg"><path d="M.713 6.116c0-.351.188-.953.563-1.805.376-.852.978-1.741 1.805-2.669C3.908.715 4.835.264 5.863.29c1.027 0 1.854.288 2.48.865.627.576.953 1.378.978 2.405-.05.477-.088.74-.113.79 0 .075-.2.651-.601 1.729a75.81 75.81 0 0 0-1.24 3.646c-.427 1.354-.627 2.431-.602 3.233 0 1.078.175 1.83.526 2.255.35.427.877.652 1.579.677a3.3 3.3 0 0 0 1.616-.413c.501-.276.89-.564 1.165-.865.276-.3.614-.714 1.015-1.24 0-.026.063-.276.188-.752.126-.476.301-1.216.527-2.218.225-1.002.463-1.93.714-2.782.952-3.759 1.478-5.726 1.579-5.901.325-.677.864-1.015 1.616-1.015.326 0 .589.087.79.263.2.175.338.326.413.45.075.126.1.239.075.34 0 .325-.614 2.956-1.842 7.893-1.228 4.937-1.93 7.644-2.105 8.12-.702 2.08-1.917 3.734-3.646 4.962-1.73 1.227-3.458 1.854-5.188 1.88-1.127 0-2.117-.277-2.97-.828-.851-.551-1.277-1.378-1.277-2.48 0-.552.087-1.016.263-1.392.175-.376.413-.651.714-.827.3-.175.551-.3.752-.376.2-.075.413-.112.639-.112 1.102 0 1.654.526 1.654 1.578 0 .502-.15.94-.451 1.316-.301.376-.59.627-.865.752-.276.125-.438.188-.489.188l-.112.038c.05.125.288.275.714.45.426.176.852.264 1.278.264h.3c.427 0 .753-.025.978-.075.827-.226 1.591-.702 2.293-1.429.702-.727 1.24-1.504 1.617-2.33.375-.828.664-1.53.864-2.106.2-.576.3-.952.3-1.127l-.225.15c-.15.1-.388.238-.714.413a8.481 8.481 0 0 1-.977.452c-.502.125-.99.188-1.466.188-1.153 0-2.168-.276-3.045-.827-.877-.552-1.454-1.441-1.73-2.67-.024-.175-.037-.563-.037-1.165 0-1.428.439-3.295 1.316-5.6.877-2.306 1.315-3.772 1.315-4.399v-.525c0-.076-.05-.164-.15-.264a.559.559 0 0 0-.413-.15h-.15c-.577 0-1.103.238-1.58.714-.476.476-.852.99-1.127 1.541a9.935 9.935 0 0 0-.64 1.579c-.15.501-.25.777-.3.827-.05.05-.25.075-.602.075H.938c-.15-.15-.225-.263-.225-.338Z" fill="#102C57"/></svg>