<svg width="19" height="18" fill="none" xmlns="http://www.w3.org/2000/svg"><path d="M.987 5.987c.178-1.067.864-2.3 2.058-3.697C4.24.893 5.713.182 7.465.156c.89 0 1.703.23 2.44.686.736.458 1.283 1.03 1.638 1.715 1.067-1.6 2.35-2.4 3.85-2.4.94 0 1.752.279 2.438.838.686.559 1.042 1.308 1.067 2.248 0 .737-.178 1.334-.533 1.791-.356.458-.699.737-1.03.839-.33.101-.622.152-.876.152-.482 0-.876-.14-1.181-.42-.305-.279-.457-.647-.457-1.104 0-1.169.635-1.97 1.905-2.401-.28-.33-.788-.495-1.524-.495-.33 0-.572.025-.724.076-.966.406-1.677 1.245-2.134 2.515-1.525 5.614-2.287 8.892-2.287 9.832 0 .711.203 1.22.61 1.524.406.305.85.457 1.334.457.94 0 1.867-.419 2.782-1.257a6.353 6.353 0 0 0 1.867-3.087c.076-.254.152-.394.228-.42.077-.024.28-.05.61-.075h.153c.38 0 .571.101.571.305 0 .025-.025.165-.076.419-.406 1.448-1.194 2.73-2.363 3.849-1.168 1.117-2.528 1.676-4.077 1.676-1.779 0-3.125-.8-4.04-2.4-1.041 1.575-2.235 2.362-3.582 2.362h-.229c-1.244 0-2.134-.33-2.667-.99-.534-.661-.813-1.36-.839-2.096 0-.813.242-1.474.724-1.982.483-.508 1.055-.762 1.715-.762 1.093 0 1.639.533 1.639 1.6 0 .508-.152.953-.457 1.334-.305.381-.597.635-.877.762s-.444.19-.495.19l-.115.039c0 .025.077.076.23.152a8.3 8.3 0 0 0 .609.267c.254.102.495.14.724.114.915 0 1.702-.571 2.363-1.714.228-.407.52-1.27.876-2.592.356-1.32.711-2.693 1.067-4.115.356-1.423.56-2.262.61-2.516.127-.686.19-1.181.19-1.486 0-.711-.19-1.22-.571-1.524a2.019 2.019 0 0 0-1.296-.457c-1.016 0-1.969.406-2.858 1.219-.89.813-1.512 1.855-1.867 3.125-.051.229-.115.356-.19.38-.077.026-.28.052-.61.077h-.534c-.153-.152-.229-.292-.229-.419Z" fill="#102C57"/></svg>