<svg width="28" height="24" fill="none" xmlns="http://www.w3.org/2000/svg"><path d="M11.815.655c.022 0 .82-.056 2.394-.167 1.574-.11 2.383-.177 2.428-.2.266 0 .399.09.399.267 0 .155-.81 3.502-2.428 10.042-1.618 6.54-2.45 9.875-2.494 10.008a1.18 1.18 0 0 0-.033.499c0 .931.31 1.397.931 1.397.2-.023.421-.122.665-.3.466-.443.92-1.507 1.364-3.192.133-.443.243-.676.332-.698.044-.022.155-.033.333-.033h.266c.332 0 .498.088.498.266 0 .11-.033.288-.1.532-.288 1.108-.62 2.006-.997 2.693-.377.687-.687 1.13-.931 1.33-.244.2-.554.377-.931.532-.177.044-.443.067-.798.067-.754 0-1.385-.167-1.895-.5-.51-.332-.843-.675-.998-1.03l-.2-.499c-.022-.022-.066-.01-.132.034-.045.044-.09.088-.133.133-1.308 1.24-2.638 1.862-3.99 1.862-1.22 0-2.295-.444-3.226-1.33-.931-.887-1.397-2.295-1.397-4.223 0-1.064.222-2.15.666-3.259.443-1.108.975-2.061 1.596-2.86C4.045 10.764 5.087 9.888 6.129 9.4c1.042-.488 1.984-.732 2.827-.732 1.24 0 2.172.466 2.793 1.397.11.133.166.177.166.133l.898-3.625c.576-2.327.886-3.558.93-3.69 0-.289-.077-.466-.232-.533-.155-.066-.587-.122-1.297-.166h-.698c-.133-.133-.2-.222-.2-.266 0-.044.022-.255.067-.632.11-.42.255-.631.432-.631Zm-.465 11.87c-.51-1.751-1.341-2.627-2.494-2.627-.776 0-1.519.344-2.228 1.031-.71.687-1.264 1.585-1.663 2.694a26.546 26.546 0 0 0-1.363 5.453v.366c0 .177-.011.31-.033.398 0 .998.2 1.685.598 2.062.4.377.876.576 1.43.599 1.197 0 2.428-.798 3.691-2.395l.266-.365 1.796-7.216ZM17.8 10.562c-.154-.155-.232-.266-.232-.333 0-.088.033-.266.1-.532.066-.266.122-.42.166-.465.044-.111.144-.166.3-.166.155 0 .72-.012 1.695-.034h1.762l.632-2.66c.067-.244.144-.565.233-.964.089-.4.166-.687.233-.865.066-.177.133-.399.2-.665.066-.266.155-.454.265-.565.111-.11.222-.244.333-.399a.75.75 0 0 1 .465-.3c.2-.043.4-.066.599-.066.399.023.676.144.831.366.155.222.233.432.233.632 0 .155-.1.676-.3 1.563-.199.886-.42 1.762-.664 2.627l-.333 1.23c0 .044.554.066 1.663.066h1.695c.156.155.233.277.233.366 0 .488-.144.876-.432 1.164h-3.558l-1.197 4.821c-.864 3.547-1.297 5.454-1.297 5.72 0 .93.3 1.396.898 1.396.776 0 1.53-.377 2.261-1.13.732-.754 1.32-1.685 1.762-2.794.045-.133.1-.21.167-.232.066-.023.232-.045.498-.067h.134c.332 0 .498.089.498.266 0 .067-.033.2-.1.4-.11.354-.31.775-.598 1.263a11.817 11.817 0 0 1-1.13 1.563 6.147 6.147 0 0 1-1.696 1.396c-.665.377-1.341.565-2.029.565a3.846 3.846 0 0 1-1.895-.498c-.599-.333-1.03-.91-1.297-1.73-.044-.177-.066-.476-.066-.897v-.599l1.163-4.655c.776-3.126 1.175-4.7 1.197-4.722 0-.044-.565-.066-1.695-.066H17.8Z" fill="#102C57"/></svg>