<svg width="28" height="24" fill="none" xmlns="http://www.w3.org/2000/svg"><path d="M11.479.654c.022 0 .82-.055 2.394-.166 1.574-.11 2.383-.177 2.427-.2.266 0 .4.09.4.267 0 .155-.81 3.502-2.428 10.042-1.618 6.539-2.45 9.875-2.494 10.008a1.18 1.18 0 0 0-.033.499c0 .93.31 1.396.93 1.396.2-.022.422-.122.666-.299.465-.443.92-1.507 1.363-3.192.133-.443.244-.676.333-.698.044-.022.155-.033.332-.033h.266c.333 0 .499.088.499.266 0 .11-.033.288-.1.532-.288 1.108-.62 2.006-.997 2.693-.377.687-.688 1.13-.931 1.33-.244.2-.555.377-.931.532-.178.044-.444.067-.799.067-.753 0-1.385-.167-1.895-.5-.51-.332-.842-.675-.997-1.03l-.2-.499c-.022-.022-.066-.01-.133.033l-.133.133c-1.308 1.242-2.638 1.863-3.99 1.863-1.22 0-2.294-.444-3.225-1.33C.872 21.48.406 20.072.406 18.145c0-1.064.222-2.15.665-3.26.443-1.107.975-2.06 1.596-2.859C3.71 10.763 4.751 9.887 5.793 9.4c1.042-.487 1.984-.731 2.826-.731 1.241 0 2.172.465 2.793 1.397.111.133.166.177.166.133l.898-3.625c.577-2.327.887-3.558.931-3.69 0-.289-.077-.466-.232-.533-.156-.066-.588-.122-1.297-.166h-.698c-.133-.133-.2-.222-.2-.266 0-.044.022-.255.066-.632.111-.421.255-.632.433-.632Zm-.466 11.871c-.51-1.751-1.34-2.627-2.494-2.627-.776 0-1.518.344-2.227 1.031-.71.687-1.264 1.585-1.663 2.693a26.546 26.546 0 0 0-1.363 5.454v.365c0 .178-.011.31-.034.4 0 .997.2 1.684.599 2.06.399.378.876.577 1.43.6 1.197 0 2.427-.799 3.69-2.395l.267-.365 1.795-7.216ZM17.464 10.562c-.155-.155-.233-.266-.233-.333 0-.088.033-.266.1-.532.066-.266.122-.42.166-.465.044-.111.144-.167.3-.167.154 0 .72-.01 1.695-.033h1.762l.632-2.66c.067-.244.144-.565.233-.964.089-.4.166-.687.233-.865.066-.177.133-.399.2-.665.066-.266.154-.454.265-.565.111-.11.222-.244.333-.399a.75.75 0 0 1 .465-.3c.2-.044.4-.066.599-.066.399.022.676.144.831.366.155.222.233.432.233.632 0 .155-.1.676-.3 1.563-.199.886-.42 1.762-.665 2.626l-.332 1.23c0 .045.554.067 1.662.067h1.696c.155.155.233.277.233.366 0 .488-.144.876-.432 1.164h-3.558l-1.197 4.821c-.865 3.547-1.297 5.453-1.297 5.72 0 .93.3 1.396.898 1.396.776 0 1.53-.377 2.261-1.13.732-.754 1.319-1.685 1.762-2.794.045-.133.1-.21.166-.232.067-.023.233-.045.5-.067h.132c.333 0 .5.089.5.266 0 .067-.034.2-.1.4-.111.354-.311.775-.6 1.263a11.822 11.822 0 0 1-1.13 1.562 6.15 6.15 0 0 1-1.695 1.397c-.666.377-1.342.565-2.029.565a3.846 3.846 0 0 1-1.895-.498c-.599-.333-1.031-.91-1.297-1.73-.044-.177-.067-.476-.067-.897v-.599l1.164-4.655c.776-3.126 1.175-4.7 1.197-4.722 0-.044-.565-.066-1.695-.066h-1.696Z" fill="#102C57"/></svg>