<svg width="19" height="25" fill="none" xmlns="http://www.w3.org/2000/svg"><path d="M.187 6.062c0-.355.191-.965.572-1.829.381-.864.99-1.765 1.83-2.705C3.426.588 4.366.13 5.408.156c1.04 0 1.88.292 2.514.876.636.584.966 1.397.991 2.439-.05.483-.089.75-.114.8 0 .077-.203.66-.61 1.753a76.84 76.84 0 0 0-1.257 3.697c-.432 1.372-.636 2.464-.61 3.277 0 1.093.178 1.855.533 2.287.356.431.89.66 1.6.685.585 0 1.131-.14 1.64-.419.508-.28.901-.571 1.18-.876.28-.305.623-.724 1.03-1.258 0-.025.063-.28.19-.762a71.16 71.16 0 0 0 .534-2.248 45.16 45.16 0 0 1 .724-2.82c.965-3.811 1.499-5.805 1.6-5.983.33-.686.877-1.03 1.64-1.03.33 0 .596.09.8.268.203.177.342.33.419.457.076.127.101.241.076.343 0 .33-.623 2.998-1.867 8.003-1.245 5.005-1.957 7.748-2.135 8.23-.71 2.11-1.943 3.786-3.696 5.031-1.753 1.245-3.506 1.88-5.259 1.906-1.143 0-2.147-.28-3.01-.839-.864-.559-1.296-1.397-1.296-2.515 0-.559.089-1.029.267-1.41.177-.381.419-.66.724-.838.304-.178.559-.305.762-.381.203-.077.419-.115.648-.115 1.117 0 1.676.534 1.676 1.6 0 .509-.152.954-.457 1.335-.305.38-.597.635-.876.762-.28.127-.445.19-.496.19l-.114.039c.05.127.292.279.724.457a3.38 3.38 0 0 0 1.296.266h.304c.432 0 .763-.025.991-.076.839-.228 1.614-.711 2.325-1.448.711-.737 1.257-1.524 1.638-2.362.382-.839.674-1.55.877-2.135.203-.584.305-.965.305-1.143l-.229.153a9.785 9.785 0 0 1-.724.419c-.33.178-.66.33-.99.457a6.118 6.118 0 0 1-1.487.19c-1.169 0-2.197-.279-3.087-.838-.889-.559-1.473-1.46-1.753-2.705-.025-.178-.038-.572-.038-1.182 0-1.448.445-3.34 1.334-5.678.89-2.337 1.334-3.823 1.334-4.459v-.533c0-.076-.051-.165-.153-.267a.566.566 0 0 0-.419-.152h-.152c-.585 0-1.118.241-1.6.724A6.013 6.013 0 0 0 2.511 3.89c-.28.56-.495 1.093-.648 1.6-.152.509-.254.788-.305.84-.05.05-.254.075-.61.075H.417C.264 6.253.187 6.14.187 6.062Z" fill="#102C57"/></svg>