<svg width="15" height="16" fill="none" xmlns="http://www.w3.org/2000/svg"><path d="M10.962 4.314c-.222 0-.81-.122-1.762-.366-.953-.243-1.652-.365-2.095-.365-.443 0-.82.044-1.13.133-.311.088-.566.2-.765.332-.2.133-.333.255-.4.366-.066.11-.144.233-.232.366l-.067.133c-.066.066-.232.1-.498.1-.466 0-.699-.09-.699-.267 0-.11.034-.266.1-.465a5.288 5.288 0 0 1 1.43-2.228c.665-.62 1.396-.997 2.194-1.13a3.99 3.99 0 0 1 .566-.067 2.25 2.25 0 0 1 1.496.565c.443.377.864.743 1.264 1.098.398.354.82.543 1.263.565.488 0 .975-.366 1.463-1.097.488-.732.743-1.098.765-1.098.022-.022.188-.033.499-.033h.432c.133.133.2.222.2.266 0 .089-.056.244-.167.466a3.82 3.82 0 0 1-.465.698c-.2.244-.388.488-.566.731-.177.244-.332.455-.465.632l-.233.3c-.953 1.13-2.46 2.626-4.522 4.488-2.062 1.862-3.336 3.06-3.824 3.591l-.399.4.499.033c.487 0 1.197.122 2.128.365.93.244 1.63.366 2.095.366.842 0 1.618-.21 2.327-.632.71-.42 1.175-.975 1.397-1.662.088-.2.166-.322.233-.366.066-.044.232-.066.498-.066.422 0 .632.11.632.332 0 .111-.01.21-.033.3a6.66 6.66 0 0 1-2.195 3.424c-1.086.91-2.172 1.375-3.258 1.397a2.293 2.293 0 0 1-1.53-.565 67.721 67.721 0 0 1-1.297-1.131c-.42-.377-.842-.565-1.263-.565-.976 0-1.851.665-2.627 1.995-.133.177-.321.266-.565.266H.787c-.133-.133-.2-.233-.2-.3 0-.332.643-1.285 1.93-2.859.864-.998 2.327-2.438 4.388-4.323 2.062-1.884 3.337-3.081 3.824-3.59.266-.356.344-.533.233-.533Z" fill="#102C57"/></svg>