<svg width="11" height="15" fill="none" xmlns="http://www.w3.org/2000/svg"><path d="M.402 3.536c0-.206.11-.558.33-1.058.221-.5.574-1.02 1.059-1.564S2.819.105 3.42.12c.603 0 1.088.17 1.455.507.367.338.558.808.573 1.41-.03.28-.051.434-.066.463 0 .044-.118.382-.353 1.014a44.452 44.452 0 0 0-.727 2.138c-.25.793-.367 1.425-.353 1.895 0 .632.103 1.073.309 1.322.206.25.514.382.926.397.338 0 .653-.08.947-.242a2.66 2.66 0 0 0 .683-.507 10.8 10.8 0 0 0 .595-.728c0-.014.037-.161.11-.44.074-.28.177-.713.31-1.3.131-.588.271-1.132.418-1.631.558-2.204.867-3.358.926-3.46.19-.397.506-.595.947-.595.191 0 .345.051.463.154.117.103.198.19.242.264.044.074.06.14.044.199 0 .19-.36 1.733-1.08 4.628-.72 2.894-1.13 4.48-1.234 4.76-.41 1.22-1.124 2.189-2.137 2.909-1.014.72-2.028 1.087-3.042 1.102-.66 0-1.241-.162-1.74-.485-.5-.323-.75-.808-.75-1.455 0-.323.052-.595.154-.815.103-.22.243-.382.42-.485.175-.103.322-.176.44-.22.117-.044.242-.066.375-.066.646 0 .97.308.97.925 0 .294-.089.551-.265.772-.177.22-.345.367-.507.44-.162.074-.257.11-.287.11l-.066.023c.03.073.17.161.419.264.25.103.5.154.75.154h.176c.25 0 .44-.014.573-.044.484-.132.933-.411 1.344-.837.411-.426.727-.882.948-1.367.22-.484.389-.896.506-1.234.118-.338.177-.558.177-.66l-.132.087c-.089.06-.228.14-.42.243a4.981 4.981 0 0 1-.572.264c-.294.074-.58.11-.86.11-.675 0-1.27-.161-1.785-.484-.514-.324-.852-.845-1.014-1.565a6.344 6.344 0 0 1-.022-.683c0-.838.258-1.932.772-3.284.514-1.352.771-2.211.771-2.578V1.2c0-.044-.03-.095-.088-.154a.328.328 0 0 0-.242-.088h-.089c-.338 0-.646.14-.925.418-.28.28-.5.58-.661.904a5.824 5.824 0 0 0-.375.925c-.088.294-.147.456-.176.485-.03.03-.147.044-.353.044H.535C.446 3.646.402 3.58.402 3.536Z" fill="#000"/></svg>