<svg width="45" height="35" fill="none" xmlns="http://www.w3.org/2000/svg"><path d="M6.173 22.092c0 .532.51.843 1.53.931.399 0 .598.122.598.366 0 .022-.022.166-.066.432-.067.31-.133.51-.2.599-.066.088-.21.133-.432.133h-.4c-.22 0-.598-.011-1.13-.034a53.576 53.576 0 0 0-2.128-.033c-1.574 0-2.582.022-3.026.067H.653c-.155-.155-.232-.277-.232-.366.044-.599.188-.986.432-1.164h.465c1.552-.066 2.683-.62 3.392-1.662.133-.133 2.14-3.514 6.019-10.142s5.852-9.986 5.918-10.075c.155-.266.421-.4.798-.4h.832c.133.2.199.311.199.333l.931 10.74c.62 7.16.953 10.774.998 10.84.11.244.83.366 2.16.366.555 0 .832.111.832.333 0 .044-.033.2-.1.465-.066.333-.122.532-.166.599-.044.066-.2.11-.465.133H22.2c-.244 0-.676-.011-1.297-.034-.62-.022-1.43-.033-2.427-.033-2.084 0-3.447.022-4.09.067h-.399c-.133-.133-.2-.233-.2-.3 0-.066.023-.265.067-.598.089-.288.155-.466.2-.532l.133-.1h.665c1.197-.066 1.906-.255 2.128-.565l-.4-4.988H8.668L7.537 19.4c-.91 1.53-1.364 2.427-1.364 2.693Zm10.241-6.185c0-.243-.133-1.973-.399-5.187-.266-3.214-.42-4.832-.465-4.854l-.898 1.43c-.355.598-1.053 1.784-2.095 3.557l-2.992 5.054 3.425.034c2.283 0 3.424-.011 3.424-.034ZM26.822 23.124c-.133 0-.432-.067-.898-.2-.465-.133-.71-.266-.731-.399 0-.155.61-2.726 1.829-7.714 1.219-4.988 1.895-7.592 2.028-7.814.332-.71.909-1.064 1.729-1.064.443 0 .909.166 1.396.499.488.332.732.82.732 1.463 0 .11-.022.277-.066.498-.023.156-.987 2.627-2.893 7.415-1.907 4.789-2.893 7.205-2.96 7.25a.323.323 0 0 1-.166.066ZM33.833 22.794c0-.22.117-.596.352-1.129s.611-1.089 1.129-1.669c.517-.58 1.097-.862 1.74-.846.642 0 1.16.18 1.55.54.393.36.596.862.612 1.505-.031.298-.055.462-.07.494 0 .047-.126.407-.377 1.081-.25.674-.509 1.434-.775 2.28-.267.847-.392 1.52-.377 2.022 0 .674.11 1.144.33 1.41.22.267.548.408.987.424.36 0 .697-.086 1.01-.259.314-.172.557-.352.73-.54.172-.188.384-.447.634-.776 0-.016.04-.173.118-.47.078-.298.188-.76.329-1.387.141-.627.29-1.207.447-1.74.595-2.35.924-3.581.987-3.69.204-.424.54-.636 1.01-.636.205 0 .37.055.495.165.125.11.211.204.258.282.047.078.063.149.047.212 0 .203-.384 1.849-1.152 4.936-.768 3.088-1.206 4.78-1.316 5.078-.439 1.301-1.2 2.335-2.28 3.103-1.082.768-2.163 1.16-3.245 1.176-.705 0-1.324-.172-1.857-.517-.533-.345-.8-.862-.8-1.552 0-.345.056-.635.165-.87.11-.235.259-.407.447-.517.188-.11.345-.188.47-.235a1.13 1.13 0 0 1 .4-.07c.69 0 1.034.329 1.034.987 0 .313-.094.588-.282.823-.188.235-.368.392-.54.47-.173.078-.275.117-.306.117l-.07.024c.03.078.18.172.446.282.266.11.533.165.8.165h.187c.267 0 .47-.016.612-.047.517-.142.995-.44 1.434-.894.438-.454.775-.94 1.01-1.457a16 16 0 0 0 .541-1.317c.125-.36.188-.595.188-.705l-.14.094a6.035 6.035 0 0 1-.447.259c-.204.11-.408.203-.612.282-.313.078-.619.117-.916.117-.722 0-1.356-.172-1.905-.517-.548-.345-.909-.901-1.081-1.67a6.749 6.749 0 0 1-.024-.728c0-.893.275-2.06.823-3.503.549-1.442.823-2.358.823-2.75V20.302c0-.047-.031-.102-.094-.165a.35.35 0 0 0-.259-.094h-.094c-.36 0-.69.149-.987.447a3.707 3.707 0 0 0-.705.964 6.218 6.218 0 0 0-.4.987c-.094.313-.157.486-.188.517-.031.032-.157.047-.376.047h-.33c-.093-.094-.14-.164-.14-.211Z" fill="#102C57"/></svg>