<svg width="4" height="8" fill="none" xmlns="http://www.w3.org/2000/svg"><path d="M.078 4.974c0-.793.161-1.55.485-2.27.323-.72.653-1.256.991-1.609.338-.352.551-.528.64-.528.043 0 .132.066.264.198s.206.228.22.286c0 .044-.088.162-.264.353-.177.191-.368.419-.573.683-.206.265-.412.647-.617 1.146a4.438 4.438 0 0 0-.33 1.587c0 .176.007.264.021.264a.387.387 0 0 0 .11-.044c.06-.03.155-.073.287-.132a.757.757 0 0 1 .397-.066c.367 0 .675.125.925.375s.382.565.397.947a1.18 1.18 0 0 1-.375.948c-.264.25-.573.382-.925.397-.426 0-.808-.191-1.146-.573C.247 6.554.078 5.9.078 4.974Z" fill="#000"/></svg>