<svg width="216" height="81" viewBox="0 0 216 81" fill="none" xmlns="http://www.w3.org/2000/svg">
<path d="M17.9937 1.27583C18.0194 1.27583 18.9461 1.21148 20.7738 1.08277C22.6015 0.954056 23.5411 0.876829 23.5926 0.851086C23.9015 0.851086 24.0559 0.954056 24.0559 1.15999C24.0559 1.34019 23.1164 5.22725 21.2372 12.8212C19.358 20.4151 18.3927 24.2893 18.3412 24.4438C18.2897 24.5982 18.2768 24.7913 18.3026 25.023C18.3026 26.1041 18.663 26.6447 19.3837 26.6447C19.6154 26.619 19.8728 26.5031 20.156 26.2972C20.6966 25.7824 21.2243 24.5467 21.7391 22.5903C21.8936 22.0755 22.0223 21.8052 22.1253 21.7794C22.1768 21.7537 22.3055 21.7408 22.5114 21.7408H22.6659H22.8203C23.2064 21.7408 23.3995 21.8438 23.3995 22.0497C23.3995 22.1785 23.3609 22.3844 23.2837 22.6676C22.949 23.9547 22.5629 24.9972 22.1253 25.7952C21.6877 26.5932 21.3273 27.1081 21.0441 27.3398C20.7609 27.5714 20.4006 27.7774 19.9629 27.9576C19.757 28.009 19.4481 28.0348 19.0362 28.0348C18.161 28.0348 17.4273 27.8417 16.8353 27.4556C16.2432 27.0695 15.8571 26.6705 15.6769 26.2586L15.4452 25.6794C15.4195 25.6536 15.368 25.6665 15.2907 25.718C15.2393 25.7695 15.1878 25.821 15.1363 25.8724C13.6175 27.314 12.073 28.0348 10.5027 28.0348C9.08689 28.0348 7.83839 27.5199 6.75722 26.4903C5.67605 25.4606 5.13547 23.8259 5.13547 21.5864C5.13547 20.3508 5.39289 19.0894 5.90773 17.8023C6.42257 16.5152 7.04039 15.4083 7.76117 14.4816C8.97105 13.0142 10.1809 11.9974 11.3908 11.4311C12.6007 10.8648 13.6947 10.5816 14.6729 10.5816C16.1145 10.5816 17.1957 11.1222 17.9164 12.2034C18.0451 12.3578 18.1095 12.4093 18.1095 12.3578C18.1352 12.2549 18.4828 10.8519 19.1521 8.14898C19.8214 5.44606 20.1817 4.01737 20.2332 3.86292C20.2332 3.52827 20.1431 3.32233 19.9629 3.24511C19.7827 3.16788 19.2808 3.10352 18.457 3.05204H17.6461C17.4917 2.89759 17.4145 2.79462 17.4145 2.74313C17.4145 2.69165 17.4402 2.4471 17.4917 2.00948C17.6204 1.52038 17.7877 1.27583 17.9937 1.27583ZM17.4531 15.0608C16.861 13.0271 15.8957 12.0103 14.5571 12.0103C13.6561 12.0103 12.7938 12.4093 11.97 13.2073C11.1463 14.0053 10.5027 15.0479 10.0393 16.335C9.29282 18.3686 8.76511 20.4795 8.4562 22.6676C8.4562 22.7448 8.4562 22.8864 8.4562 23.0923C8.4562 23.2982 8.44333 23.4527 8.41759 23.5557C8.41759 24.7141 8.64927 25.5121 9.11263 25.9497C9.57599 26.3873 10.1294 26.619 10.773 26.6447C12.1631 26.6447 13.5918 25.718 15.0591 23.8646L15.368 23.4398L17.4531 15.0608Z" fill="#102C57"/>
<path d="M31.9715 24.7898C31.9715 25.4076 32.5635 25.768 33.7477 25.871C34.211 25.871 34.4427 26.0126 34.4427 26.2958C34.4427 26.3215 34.417 26.4888 34.3655 26.7977C34.2882 27.1581 34.211 27.3898 34.1338 27.4928C34.0566 27.5957 33.8892 27.6472 33.6318 27.6472C33.5803 27.6472 33.4259 27.6472 33.1685 27.6472C32.911 27.6472 32.4734 27.6343 31.8556 27.6086C31.2378 27.5829 30.4141 27.57 29.3844 27.57C27.5567 27.57 26.3854 27.5957 25.8706 27.6472H25.5617C25.3815 27.467 25.2914 27.3254 25.2914 27.2225C25.3429 26.5274 25.5102 26.0769 25.7933 25.871H26.3339C28.1359 25.7938 29.4487 25.1502 30.2725 23.9403C30.4269 23.7859 32.7566 19.8602 37.2615 12.1633C41.7663 4.46641 44.0574 0.566477 44.1346 0.463509C44.3148 0.154602 44.6237 0.000148773 45.0613 0.000148773H45.3702H46.0267C46.1811 0.231829 46.2583 0.36054 46.2583 0.386282L47.3395 12.8584C48.0603 21.1731 48.4464 25.369 48.4979 25.4463C48.6266 25.7294 49.4632 25.871 51.0078 25.871C51.6513 25.871 51.9731 25.9997 51.9731 26.2571C51.9731 26.3086 51.9345 26.4888 51.8573 26.7977C51.78 27.1839 51.7157 27.4155 51.6642 27.4928C51.6127 27.57 51.4325 27.6215 51.1236 27.6472C51.0464 27.6472 50.8662 27.6472 50.583 27.6472C50.2999 27.6472 49.7979 27.6343 49.0771 27.6086C48.3563 27.5829 47.4167 27.57 46.2583 27.57C43.8386 27.57 42.2554 27.5957 41.5089 27.6472H41.0456C40.8911 27.4928 40.8139 27.3769 40.8139 27.2997C40.8139 27.2225 40.8396 26.9908 40.8911 26.6047C40.9941 26.27 41.0713 26.0641 41.1228 25.9868L41.2772 25.871H42.0495C43.4396 25.7938 44.2633 25.575 44.5208 25.2146L44.0574 19.4226H34.8674L33.5546 21.6622C32.4992 23.4384 31.9715 24.4809 31.9715 24.7898ZM43.8643 17.6078C43.8643 17.3246 43.7099 15.3167 43.401 11.5841C43.0921 7.85151 42.9119 5.97233 42.8604 5.94659L41.8178 7.60695C41.406 8.30199 40.5951 9.6792 39.3852 11.7386L35.91 17.6078L39.8872 17.6464C42.5386 17.6464 43.8643 17.6335 43.8643 17.6078Z" fill="#102C57"/>
<path d="M25.504 53.8658C25.5298 53.8658 26.4565 53.8014 28.2842 53.6727C30.1119 53.544 31.0515 53.4668 31.103 53.4411C31.4119 53.4411 31.5663 53.544 31.5663 53.75C31.5663 53.9302 30.6267 57.8172 28.7476 65.4111C26.8684 73.0051 25.903 76.8793 25.8516 77.0337C25.8001 77.1882 25.7872 77.3812 25.8129 77.6129C25.8129 78.6941 26.1733 79.2347 26.8941 79.2347C27.1258 79.2089 27.3832 79.0931 27.6664 78.8872C28.207 78.3723 28.7347 77.1367 29.2495 75.1803C29.404 74.6654 29.5327 74.3952 29.6357 74.3694C29.6871 74.3437 29.8158 74.3308 30.0218 74.3308H30.1762H30.3307C30.7168 74.3308 30.9099 74.4338 30.9099 74.6397C30.9099 74.7684 30.8713 74.9744 30.7941 75.2575C30.4594 76.5446 30.0733 77.5872 29.6357 78.3852C29.198 79.1832 28.8376 79.698 28.5545 79.9297C28.2713 80.1614 27.9109 80.3673 27.4733 80.5475C27.2674 80.599 26.9585 80.6248 26.5466 80.6248C25.6714 80.6248 24.9377 80.4317 24.3456 80.0456C23.7536 79.6594 23.3674 79.2604 23.1872 78.8485L22.9556 78.2693C22.9298 78.2436 22.8783 78.2565 22.8011 78.308C22.7496 78.3594 22.6981 78.4109 22.6467 78.4624C21.1279 79.904 19.5833 80.6248 18.0131 80.6248C16.5973 80.6248 15.3488 80.1099 14.2676 79.0802C13.1864 78.0505 12.6458 76.4159 12.6458 74.1763C12.6458 72.9407 12.9033 71.6794 13.4181 70.3923C13.933 69.1051 14.5508 67.9982 15.2715 67.0715C16.4814 65.6042 17.6913 64.5874 18.9012 64.0211C20.1111 63.4547 21.2051 63.1716 22.1833 63.1716C23.6249 63.1716 24.706 63.7122 25.4268 64.7933C25.5555 64.9478 25.6199 64.9993 25.6199 64.9478C25.6456 64.8448 25.9931 63.4419 26.6624 60.739C27.3317 58.036 27.6921 56.6073 27.7436 56.4529C27.7436 56.1182 27.6535 55.9123 27.4733 55.8351C27.2931 55.7578 26.7911 55.6935 25.9674 55.642H25.1565C25.0021 55.4876 24.9248 55.3846 24.9248 55.3331C24.9248 55.2816 24.9506 55.0371 25.0021 54.5994C25.1308 54.1103 25.2981 53.8658 25.504 53.8658ZM24.9635 67.6507C24.3714 65.6171 23.4061 64.6003 22.0675 64.6003C21.1665 64.6003 20.3041 64.9993 19.4804 65.7973C18.6566 66.5953 18.0131 67.6378 17.5497 68.925C16.8032 70.9586 16.2755 73.0694 15.9666 75.2575C15.9666 75.3347 15.9666 75.4763 15.9666 75.6823C15.9666 75.8882 15.9537 76.0427 15.928 76.1456C15.928 77.304 16.1596 78.102 16.623 78.5396C17.0864 78.9773 17.6398 79.2089 18.2834 79.2347C19.6734 79.2347 21.1021 78.308 22.5694 76.4545L22.8783 76.0298L24.9635 67.6507Z" fill="#102C57"/>
<path d="M32.454 65.3724C32.2738 65.1922 32.1837 65.0635 32.1837 64.9862C32.1837 64.8833 32.2223 64.6773 32.2995 64.3684C32.3768 64.0595 32.4411 63.8793 32.4926 63.8279C32.5441 63.6991 32.6599 63.6348 32.8401 63.6348C33.0203 63.6348 33.6767 63.6219 34.8094 63.5962H36.8559L37.5896 60.5071C37.6668 60.2239 37.7569 59.8507 37.8598 59.3873C37.9628 58.924 38.0529 58.5893 38.1301 58.3834C38.2074 58.1775 38.2846 57.92 38.3618 57.6111C38.439 57.3022 38.542 57.0834 38.6707 56.9547C38.7994 56.826 38.9281 56.6715 39.0569 56.4913C39.1856 56.3111 39.3658 56.1953 39.5974 56.1438C39.8291 56.0923 40.0608 56.0666 40.2925 56.0666C40.7558 56.0923 41.0776 56.2339 41.2578 56.4913C41.438 56.7488 41.5281 56.9933 41.5281 57.225C41.5281 57.4052 41.4123 58.0101 41.1806 59.0398C40.9489 60.0695 40.6915 61.0863 40.4083 62.0903L40.0222 63.5189C40.0222 63.5704 40.6657 63.5962 41.9528 63.5962H43.9221C44.1023 63.7764 44.1924 63.9179 44.1924 64.0209C44.1924 64.5872 44.0251 65.0377 43.6904 65.3724H39.5588L38.1688 70.9713C37.1648 75.09 36.6628 77.3039 36.6628 77.6128C36.6628 78.6939 37.0104 79.2345 37.7054 79.2345C38.6064 79.2345 39.4816 78.7969 40.3311 77.9217C41.1806 77.0464 41.8627 75.9653 42.3776 74.6782C42.4291 74.5237 42.4934 74.4336 42.5707 74.4079C42.6479 74.3821 42.841 74.3564 43.1499 74.3306H43.3043C43.6904 74.3306 43.8835 74.4336 43.8835 74.6395C43.8835 74.7168 43.8449 74.8712 43.7677 75.1029C43.639 75.5148 43.4073 76.0039 43.0726 76.5702C42.738 77.1365 42.3004 77.7415 41.7598 78.385C41.2192 79.0286 40.5628 79.5692 39.7905 80.0068C39.0182 80.4444 38.2331 80.6632 37.4351 80.6632C36.6628 80.6632 35.9292 80.4701 35.2341 80.084C34.5391 79.6979 34.0371 79.0286 33.7282 78.0761C33.6767 77.8702 33.651 77.5227 33.651 77.0336V76.3385L35.0025 70.9327C35.9034 67.303 36.3668 65.4753 36.3925 65.4496C36.3925 65.3981 35.7361 65.3724 34.4233 65.3724H32.454Z" fill="#102C57"/>
<path d="M56.7615 45.2549H0V42.9381H56.7615V45.2549Z" fill="#102C57"/>
<path d="M74.2833 40.3513C74.2833 40.0166 74.4635 39.7592 74.8239 39.579H99.4205C99.8066 39.7849 99.9997 40.0424 99.9997 40.3513C99.9997 40.6344 99.8195 40.879 99.4591 41.0849L87.1801 41.1235H74.9011C74.4892 40.9948 74.2833 40.7374 74.2833 40.3513ZM74.2833 47.8422C74.2833 47.4561 74.4892 47.1987 74.9011 47.07H99.4591C99.8195 47.3274 99.9997 47.5848 99.9997 47.8422C99.9997 48.1769 99.8066 48.4343 99.4205 48.6145H74.8239C74.4635 48.4343 74.2833 48.1769 74.2833 47.8422Z" fill="#102C57"/>
<path d="M115.012 36.2198C115.012 34.9585 115.269 33.7743 115.784 32.6674C116.299 31.5605 116.968 30.6467 117.792 29.9259C118.616 29.2051 119.517 28.5873 120.495 28.0725C121.473 27.5576 122.439 27.1715 123.391 26.9141C124.344 26.6566 125.18 26.5408 125.901 26.5665H126.48C127.613 26.5665 128.282 26.5794 128.488 26.6052C131.654 27.017 134.126 28.1497 135.902 30.0031C137.678 31.8566 138.579 33.9288 138.605 36.2198C138.605 37.8159 138.206 39.4119 137.408 41.0079C136.61 42.6039 135.632 44.2771 134.473 46.0276C133.315 47.7781 132.542 49.284 132.156 50.5453V50.6612H133.855C135.039 50.6354 135.773 50.5968 136.056 50.5453C136.339 50.4939 136.558 50.3652 136.713 50.1592C136.841 49.9275 136.996 49.387 137.176 48.5375C137.356 47.688 137.446 47.2117 137.446 47.1088L137.485 46.9157H139.029V46.9929L138.373 50.3137C137.987 52.5275 137.781 53.6473 137.755 53.673V53.7502H134.203H131.732C131.037 53.7502 130.625 53.7116 130.496 53.6344C130.367 53.5572 130.303 53.3384 130.303 52.978C130.303 51.2018 130.921 48.4345 132.156 44.6761C133.392 40.9178 134.023 38.0862 134.048 36.1812C134.048 34.7139 133.817 33.4268 133.353 32.3199C132.89 31.213 132.285 30.3506 131.539 29.7328C130.792 29.115 130.033 28.6774 129.26 28.42C128.488 28.1626 127.677 28.0081 126.828 27.9566C126.081 27.9566 125.335 28.0853 124.588 28.3427C123.842 28.6002 123.069 29.012 122.271 29.5784C121.473 30.1447 120.83 30.9942 120.341 32.1268C119.852 33.2595 119.607 34.5981 119.607 36.1426C119.607 38.099 120.225 40.9693 121.46 44.7534C122.696 48.5375 123.314 51.279 123.314 52.978C123.314 53.3126 123.224 53.57 123.044 53.7502H115.862V53.673C115.836 53.6473 115.63 52.5275 115.244 50.3137L114.587 46.9929V46.9157H116.132L116.17 47.1088C116.17 47.1345 116.209 47.3533 116.286 47.7652C116.364 48.1771 116.466 48.6404 116.595 49.1553C116.724 49.6701 116.827 50.0048 116.904 50.1592C117.033 50.3394 117.239 50.4552 117.522 50.5067C117.805 50.5582 118.552 50.6097 119.761 50.6612H121.46V50.5453C121.049 49.284 120.276 47.7909 119.144 46.0662C118.011 44.3415 117.046 42.6683 116.248 41.0465C115.45 39.4247 115.038 37.8159 115.012 36.2198Z" fill="#102C57"/>
<path d="M173.673 52.6306C173.673 53.1454 173.402 53.4028 172.862 53.4028C172.733 53.4028 172.45 53.1969 172.012 52.785C171.575 52.3731 170.365 51.1761 168.383 49.194L164.367 45.1782L160.312 49.2326C157.584 51.9098 156.181 53.2741 156.104 53.3256C156.001 53.3771 155.91 53.4028 155.833 53.4028C155.627 53.4028 155.447 53.3256 155.293 53.1712C155.138 53.0167 155.048 52.8365 155.022 52.6306C155.022 52.4504 155.203 52.1672 155.563 51.7811C155.923 51.3949 157.133 50.1722 159.193 48.1128L163.208 44.097L159.193 40.0813C157.107 37.9962 155.898 36.7734 155.563 36.413C155.228 36.0526 155.048 35.7695 155.022 35.5635C155.022 35.3318 155.1 35.1516 155.254 35.0229C155.408 34.8942 155.602 34.8299 155.833 34.8299C155.962 34.8299 156.052 34.8427 156.104 34.8685C156.181 34.92 157.584 36.2843 160.312 38.9615L164.367 43.0159L168.383 39.0001C170.365 37.018 171.575 35.8209 172.012 35.4091C172.45 34.9972 172.733 34.7913 172.862 34.7913C173.402 34.7913 173.673 35.0487 173.673 35.5635C173.673 35.7437 173.544 35.9754 173.286 36.2586C173.029 36.5417 171.768 37.8031 169.502 40.0427L165.487 44.097L169.502 48.1514C171.665 50.3138 172.9 51.5623 173.209 51.8969C173.518 52.2316 173.673 52.4761 173.673 52.6306Z" fill="#102C57"/>
<path d="M195.998 50.8929C195.998 51.5107 196.59 51.8711 197.774 51.974C198.238 51.974 198.47 52.1156 198.47 52.3988C198.47 52.4245 198.444 52.5918 198.392 52.9008C198.315 53.2611 198.238 53.4928 198.161 53.5958C198.083 53.6988 197.916 53.7502 197.659 53.7502C197.607 53.7502 197.453 53.7502 197.195 53.7502C196.938 53.7502 196.5 53.7374 195.882 53.7116C195.265 53.6859 194.441 53.673 193.411 53.673C191.583 53.673 190.412 53.6988 189.897 53.7502H189.588C189.408 53.57 189.318 53.4285 189.318 53.3255C189.37 52.6305 189.537 52.18 189.82 51.974H190.361C192.163 51.8968 193.476 51.2533 194.299 50.0434C194.454 49.8889 196.783 45.9632 201.288 38.2663C205.793 30.5694 208.084 26.6695 208.161 26.5665C208.342 26.2576 208.651 26.1032 209.088 26.1032H209.397H210.053C210.208 26.3349 210.285 26.4636 210.285 26.4893L211.366 38.9614C212.087 47.2761 212.473 51.4721 212.525 51.5493C212.653 51.8325 213.49 51.974 215.035 51.974C215.678 51.974 216 52.1027 216 52.3602C216 52.4117 215.961 52.5918 215.884 52.9008C215.807 53.2869 215.742 53.5186 215.691 53.5958C215.64 53.673 215.459 53.7245 215.15 53.7502C215.073 53.7502 214.893 53.7502 214.61 53.7502C214.327 53.7502 213.825 53.7374 213.104 53.7116C212.383 53.6859 211.444 53.673 210.285 53.673C207.865 53.673 206.282 53.6988 205.536 53.7502H205.072C204.918 53.5958 204.841 53.48 204.841 53.4027C204.841 53.3255 204.866 53.0938 204.918 52.7077C205.021 52.373 205.098 52.1671 205.15 52.0899L205.304 51.974H206.076C207.466 51.8968 208.29 51.678 208.548 51.3176L208.084 45.5256H198.894L197.581 47.7652C196.526 49.5414 195.998 50.584 195.998 50.8929ZM207.891 43.7108C207.891 43.4276 207.737 41.4198 207.428 37.6871C207.119 33.9545 206.939 32.0754 206.887 32.0496L205.845 33.71C205.433 34.405 204.622 35.7822 203.412 37.8416L199.937 43.7108L203.914 43.7494C206.565 43.7494 207.891 43.7365 207.891 43.7108Z" fill="#102C57"/>
</svg>
