<svg width="11" height="11" viewBox="0 0 11 11" fill="none" xmlns="http://www.w3.org/2000/svg">
<path d="M7.66195 2.4121C7.51503 2.4121 7.12569 2.3313 6.49394 2.16968C5.86218 2.00807 5.39938 1.92726 5.10554 1.92726C4.8117 1.92726 4.56193 1.95665 4.35624 2.01542C4.15055 2.07419 3.98159 2.14765 3.84937 2.2358C3.71714 2.32395 3.62898 2.40476 3.58491 2.47822C3.54083 2.55168 3.48941 2.63248 3.43064 2.72064L3.38657 2.80879C3.34249 2.85286 3.2323 2.8749 3.05599 2.8749C2.74746 2.8749 2.59319 2.81613 2.59319 2.6986C2.59319 2.62514 2.61523 2.52229 2.65931 2.39006C2.85031 1.81707 3.16618 1.32489 3.60695 0.913513C4.04771 0.502135 4.53255 0.25237 5.06146 0.164218C5.23776 0.134833 5.36265 0.120142 5.43611 0.120142C5.80341 0.120142 6.13398 0.245024 6.42782 0.494789C6.72166 0.744555 7.00081 0.986973 7.26527 1.22205C7.52973 1.45712 7.80887 1.582 8.10272 1.59669C8.42594 1.59669 8.74917 1.35427 9.07239 0.869436C9.39562 0.384599 9.56458 0.142179 9.57927 0.142179C9.59396 0.127488 9.70415 0.120142 9.90984 0.120142H10.1963C10.2845 0.208294 10.3286 0.267062 10.3286 0.296447C10.3286 0.355215 10.2918 0.458059 10.2184 0.60498C10.1449 0.7519 10.0421 0.906167 9.90984 1.06778C9.77761 1.22939 9.65273 1.391 9.53519 1.55262C9.41765 1.71423 9.31481 1.8538 9.22666 1.97134L9.07239 2.16968C8.44063 2.91898 7.44157 3.91069 6.07521 5.14482C4.70885 6.37896 3.86406 7.17233 3.54083 7.52494L3.27638 7.78939L3.60695 7.81143C3.93017 7.81143 4.40032 7.89224 5.01738 8.05385C5.63445 8.21546 6.09725 8.29627 6.40578 8.29627C6.96408 8.29627 7.4783 8.1567 7.94845 7.87755C8.41859 7.5984 8.72713 7.2311 8.87405 6.77564C8.93282 6.64341 8.98424 6.56261 9.02831 6.53322C9.07239 6.50384 9.18258 6.48915 9.35889 6.48915C9.63804 6.48915 9.77761 6.56261 9.77761 6.70953C9.77761 6.78299 9.77026 6.8491 9.75557 6.90787C9.50581 7.81878 9.02097 8.57542 8.30106 9.17779C7.58115 9.78017 6.86124 10.0887 6.14133 10.1034C5.75933 10.1034 5.42142 9.97851 5.12757 9.72875C4.83373 9.47898 4.54724 9.22922 4.26809 8.97945C3.98894 8.72969 3.70979 8.6048 3.43064 8.6048C2.78419 8.6048 2.20386 9.04557 1.68963 9.92709C1.60148 10.0446 1.4766 10.1034 1.31499 10.1034H1.2048H0.9183C0.830148 10.0152 0.786072 9.94913 0.786072 9.90505C0.786072 9.68467 1.21214 9.05291 2.06428 8.00978C2.63727 7.34863 3.60695 6.39365 4.97331 5.14482C6.33967 3.896 7.18446 3.10263 7.50769 2.76471C7.68399 2.52964 7.73541 2.4121 7.66195 2.4121Z" fill="black"/>
</svg>
