<svg width="17" height="18" viewBox="0 0 17 18" fill="none" xmlns="http://www.w3.org/2000/svg">
<path d="M12.3715 4.19944C12.1209 4.19944 11.4568 4.06161 10.3792 3.78595C9.30164 3.51028 8.51224 3.37245 8.01104 3.37245C7.50983 3.37245 7.08381 3.42257 6.73296 3.52281C6.38212 3.62306 6.09392 3.74836 5.86838 3.89872C5.64284 4.04908 5.49248 4.18691 5.4173 4.31221C5.34211 4.43751 5.2544 4.57535 5.15416 4.72571L5.07898 4.87607C5.0038 4.95125 4.81585 4.98884 4.51513 4.98884C3.98886 4.98884 3.72573 4.8886 3.72573 4.68812C3.72573 4.56281 3.76332 4.38739 3.8385 4.16185C4.16428 3.1845 4.70308 2.34498 5.45489 1.6433C6.2067 0.941608 7.03368 0.515585 7.93586 0.365223C8.23658 0.315104 8.44959 0.290043 8.57489 0.290043C9.2014 0.290043 9.76526 0.503054 10.2665 0.929079C10.7677 1.3551 11.2438 1.7686 11.6949 2.16956C12.146 2.57053 12.6221 2.78354 13.1233 2.8086C13.6747 2.8086 14.226 2.3951 14.7773 1.56812C15.3286 0.741127 15.6168 0.327633 15.6419 0.327633C15.667 0.302572 15.8549 0.290043 16.2058 0.290043H16.6944C16.8448 0.440403 16.92 0.540646 16.92 0.590765C16.92 0.691006 16.8573 0.866428 16.732 1.11703C16.6067 1.36763 16.4313 1.63077 16.2058 1.90643C15.9802 2.18209 15.7672 2.45775 15.5667 2.73342C15.3662 3.00908 15.1908 3.24715 15.0404 3.44763L14.7773 3.78595C13.6997 5.06402 11.9956 6.75559 9.66502 8.86065C7.33441 10.9657 5.89344 12.319 5.34211 12.9204L4.89103 13.3715L5.45489 13.4091C6.00621 13.4091 6.80814 13.5469 7.86067 13.8226C8.91321 14.0982 9.70261 14.2361 10.2289 14.2361C11.1812 14.2361 12.0583 13.998 12.8602 13.5219C13.6621 13.0457 14.1884 12.4192 14.439 11.6423C14.5392 11.4168 14.627 11.279 14.7021 11.2288C14.7773 11.1787 14.9653 11.1537 15.266 11.1537C15.7421 11.1537 15.9802 11.279 15.9802 11.5296C15.9802 11.6549 15.9677 11.7676 15.9426 11.8679C15.5166 13.4216 14.6896 14.7122 13.4616 15.7397C12.2337 16.7672 11.0057 17.2934 9.77779 17.3185C9.12622 17.3185 8.54983 17.1055 8.04863 16.6794C7.54742 16.2534 7.05874 15.8274 6.5826 15.4014C6.10645 14.9753 5.63031 14.7623 5.15416 14.7623C4.05151 14.7623 3.06163 15.5141 2.18452 17.0178C2.03416 17.2182 1.82114 17.3185 1.54548 17.3185H1.35753H0.868853C0.718491 17.1681 0.643311 17.0553 0.643311 16.9802C0.643311 16.6043 1.37006 15.5267 2.82356 13.7474C3.80091 12.6197 5.45489 10.9908 7.78549 8.86065C10.1161 6.73053 11.5571 5.37727 12.1084 4.80089C12.4091 4.39992 12.4968 4.19944 12.3715 4.19944Z" fill="#102C57"/>
</svg>
