<svg width="11" height="15" viewBox="0 0 11 15" fill="none" xmlns="http://www.w3.org/2000/svg">
<path d="M0.402344 3.53605C0.402344 3.33036 0.512534 2.97775 0.732915 2.47822C0.953296 1.97869 1.30591 1.45712 1.79074 0.913516C2.27558 0.36991 2.81919 0.105453 3.42156 0.120146C4.02394 0.120146 4.50877 0.289104 4.87607 0.627021C5.24338 0.964938 5.43437 1.43508 5.44906 2.03746C5.41968 2.31661 5.39764 2.47087 5.38295 2.50026C5.38295 2.54433 5.26541 2.88225 5.03034 3.51401C4.79527 4.14577 4.55285 4.85833 4.30308 5.6517C4.05332 6.44507 3.93578 7.07683 3.95048 7.54698C3.95048 8.17874 4.05332 8.6195 4.25901 8.86926C4.4647 9.11903 4.77323 9.25126 5.18461 9.26595C5.52253 9.26595 5.8384 9.18514 6.13225 9.02353C6.42609 8.86192 6.65381 8.69296 6.81543 8.51665C6.97704 8.34035 7.17538 8.09793 7.41045 7.7894C7.41045 7.77471 7.44718 7.62779 7.52064 7.34864C7.5941 7.06949 7.69695 6.63607 7.82918 6.04839C7.96141 5.46071 8.10098 4.9171 8.2479 4.41757C8.8062 2.21376 9.11473 1.06044 9.1735 0.957592C9.3645 0.560907 9.68038 0.362564 10.1211 0.362564C10.3121 0.362564 10.4664 0.413986 10.5839 0.51683C10.7015 0.619676 10.7823 0.707828 10.8264 0.781288C10.8704 0.854748 10.8851 0.920862 10.8704 0.97963C10.8704 1.17063 10.5105 2.71329 9.79057 5.60763C9.07066 8.50196 8.65928 10.0887 8.55643 10.3679C8.14506 11.5873 7.43249 12.557 6.41874 13.2769C5.40499 13.9968 4.39124 14.3641 3.37749 14.3788C2.71634 14.3788 2.13601 14.2172 1.63648 13.8939C1.13695 13.5707 0.887182 13.0859 0.887182 12.4394C0.887182 12.1162 0.938604 11.8444 1.04145 11.624C1.14429 11.4036 1.28387 11.242 1.46017 11.1392C1.63648 11.0363 1.7834 10.9629 1.90093 10.9188C2.01847 10.8747 2.14335 10.8527 2.27558 10.8527C2.92203 10.8527 3.24526 11.1612 3.24526 11.7783C3.24526 12.0721 3.1571 12.3292 2.9808 12.5496C2.80449 12.77 2.63554 12.9169 2.47392 12.9904C2.31231 13.0638 2.21681 13.1006 2.18743 13.1006L2.12131 13.1226C2.1507 13.1961 2.29027 13.2842 2.54004 13.3871C2.7898 13.4899 3.03957 13.5413 3.28933 13.5413H3.46564C3.7154 13.5413 3.9064 13.5266 4.03863 13.4973C4.52347 13.365 4.97157 13.0859 5.38295 12.6598C5.79433 12.2337 6.11021 11.7783 6.33059 11.2935C6.55097 10.8086 6.71993 10.3972 6.83746 10.0593C6.955 9.7214 7.01377 9.50102 7.01377 9.39818L6.88154 9.48633C6.79339 9.5451 6.65381 9.6259 6.46282 9.72875C6.27182 9.83159 6.08082 9.91975 5.88983 9.99321C5.59599 10.0667 5.30949 10.1034 5.03034 10.1034C4.35451 10.1034 3.75948 9.94178 3.24526 9.61856C2.73103 9.29533 2.39312 8.77377 2.2315 8.05385C2.21681 7.95101 2.20947 7.72328 2.20947 7.37067C2.20947 6.53323 2.46658 5.43867 2.9808 4.087C3.49502 2.73533 3.75213 1.87585 3.75213 1.50854C3.75213 1.49385 3.75213 1.47916 3.75213 1.46447C3.75213 1.33224 3.75213 1.24409 3.75213 1.20001C3.75213 1.15594 3.72275 1.10451 3.66398 1.04574C3.60521 0.986977 3.52441 0.957592 3.42156 0.957592H3.33341C2.99549 0.957592 2.68696 1.09717 2.40781 1.37632C2.12866 1.65547 1.90828 1.95665 1.74667 2.27988C1.58505 2.6031 1.46017 2.91164 1.37202 3.20548C1.28387 3.49932 1.2251 3.66093 1.19571 3.69031C1.16633 3.7197 1.04879 3.73439 0.843105 3.73439H0.534572C0.44642 3.64624 0.402344 3.58012 0.402344 3.53605Z" fill="black"/>
</svg>
