<svg width="23" height="23" viewBox="0 0 23 23" fill="none" xmlns="http://www.w3.org/2000/svg">
<path d="M0.710876 11.672C0.710876 11.672 0.710876 11.528 0.710876 11.2398C0.710876 10.9516 0.866049 10.7299 1.17639 10.5747H11.1185V5.58707L11.1518 0.599384C11.3734 0.311209 11.584 0.16712 11.7835 0.16712C12.0717 0.16712 12.2934 0.333376 12.4486 0.665888V10.5747H22.3574C22.6899 10.7521 22.8562 10.9738 22.8562 11.2398C22.8562 11.5058 22.6899 11.7275 22.3574 11.9048H12.4486V21.8137C12.2712 22.124 12.0717 22.2792 11.85 22.2792H11.7835H11.717C11.451 22.2792 11.2515 22.124 11.1185 21.8137V11.9048H1.17639C0.866049 11.7496 0.710876 11.528 0.710876 11.2398V11.672Z" fill="#102C57"/>
</svg>
