<svg width="12" height="11" viewBox="0 0 12 11" fill="none" xmlns="http://www.w3.org/2000/svg">
<path d="M0.777896 3.74564C0.887603 3.0874 1.31076 2.32728 2.04736 1.4653C2.78396 0.603319 3.69296 0.164493 4.77436 0.14882C5.32289 0.14882 5.82441 0.289871 6.27891 0.571975C6.73341 0.854078 7.07037 1.20671 7.28978 1.62986C7.94802 0.642501 8.73948 0.14882 9.66415 0.14882C10.244 0.14882 10.7455 0.321217 11.1687 0.666009C11.5919 1.0108 11.8113 1.47314 11.8269 2.05302C11.8269 2.50752 11.7172 2.87582 11.4978 3.15792C11.2784 3.44002 11.0668 3.61242 10.8631 3.67511C10.6593 3.7378 10.4791 3.76915 10.3224 3.76915C10.0246 3.76915 9.78169 3.68295 9.59362 3.51055C9.40556 3.33815 9.31152 3.1109 9.31152 2.8288C9.31152 2.10787 9.70333 1.61419 10.487 1.34776C10.3146 1.14402 10.0011 1.04215 9.54661 1.04215C9.34287 1.04215 9.19398 1.05782 9.09994 1.08916C8.50439 1.33992 8.06557 1.85711 7.78346 2.64073C6.84312 6.10433 6.37295 8.12607 6.37295 8.70595C6.37295 9.14478 6.49832 9.45823 6.74908 9.6463C6.99984 9.83437 7.27411 9.9284 7.57188 9.9284C8.15176 9.9284 8.72381 9.6698 9.28801 9.15262C9.85222 8.63543 10.2362 8.00069 10.4399 7.24842C10.487 7.09169 10.534 7.0055 10.581 6.98982C10.628 6.97415 10.7534 6.95848 10.9571 6.94281H11.0512C11.2862 6.94281 11.4038 7.0055 11.4038 7.13088C11.4038 7.14655 11.3881 7.23275 11.3568 7.38947C11.106 8.2828 10.6202 9.07425 9.89924 9.76384C9.17831 10.4534 8.33983 10.7982 7.38382 10.7982C6.28675 10.7982 5.45611 10.3045 4.8919 9.31718C4.24933 10.2889 3.51273 10.7747 2.68209 10.7747H2.54104C1.77309 10.7747 1.22456 10.571 0.89544 10.1635C0.566319 9.756 0.393923 9.32501 0.37825 8.87051C0.37825 8.369 0.527138 7.96151 0.824914 7.64806C1.12269 7.33462 1.47532 7.17789 1.8828 7.17789C2.55671 7.17789 2.89367 7.50701 2.89367 8.16525C2.89367 8.4787 2.79964 8.75297 2.61157 8.98806C2.4235 9.22314 2.24327 9.37987 2.07087 9.45823C1.89847 9.53659 1.7966 9.57577 1.76526 9.57577L1.69473 9.59928C1.69473 9.61495 1.74175 9.6463 1.83578 9.69331C1.92982 9.74033 2.0552 9.79518 2.21192 9.85787C2.36865 9.92056 2.51753 9.94407 2.65859 9.9284C3.22279 9.9284 3.70864 9.57577 4.11612 8.87051C4.25717 8.61975 4.4374 8.08689 4.65682 7.27193C4.87623 6.45696 5.09564 5.61065 5.31506 4.733C5.53447 3.85534 5.65985 3.33815 5.6912 3.18143C5.76956 2.75828 5.80874 2.45266 5.80874 2.26459C5.80874 1.82577 5.6912 1.51232 5.45611 1.32425C5.22102 1.13618 4.95459 1.04215 4.65682 1.04215C4.02992 1.04215 3.44221 1.2929 2.89367 1.79442C2.34514 2.29594 1.96116 2.93851 1.74175 3.72213C1.7104 3.86318 1.67122 3.94154 1.62421 3.95721C1.57719 3.97289 1.45181 3.98856 1.24807 4.00423H0.918948C0.824914 3.9102 0.777896 3.824 0.777896 3.74564Z" fill="#102C57"/>
</svg>
