<svg width="19" height="25" viewBox="0 0 19 25" fill="none" xmlns="http://www.w3.org/2000/svg">
<path d="M0.187408 6.0624C0.187408 5.70672 0.37795 5.09699 0.759032 4.2332C1.14011 3.36942 1.74985 2.46752 2.58823 1.52752C3.42661 0.587515 4.36661 0.130215 5.40824 0.155621C6.44986 0.155621 7.28825 0.447784 7.92338 1.03211C8.55852 1.61644 8.88879 2.42941 8.9142 3.47104C8.86339 3.95374 8.82528 4.2205 8.79987 4.27131C8.79987 4.34753 8.59663 4.93185 8.19014 6.02429C7.78365 7.11672 7.36446 8.34889 6.93257 9.72079C6.50067 11.0927 6.29743 12.1851 6.32284 12.9981C6.32284 14.0905 6.50067 14.8527 6.85635 15.2846C7.21203 15.7165 7.74554 15.9451 8.4569 15.9705C9.04122 15.9705 9.58744 15.8308 10.0956 15.5513C10.6037 15.2719 10.9974 14.9797 11.2769 14.6749C11.5564 14.37 11.8993 13.9508 12.3058 13.4173C12.3058 13.3919 12.3693 13.1378 12.4964 12.6551C12.6234 12.1724 12.8012 11.423 13.0299 10.4067C13.2585 9.39052 13.4999 8.45051 13.7539 7.58673C14.7194 3.7759 15.2529 1.78157 15.3545 1.60373C15.6848 0.917786 16.231 0.574812 16.9931 0.574812C17.3234 0.574812 17.5902 0.663731 17.7934 0.84157C17.9967 1.01941 18.1364 1.17184 18.2126 1.29887C18.2888 1.4259 18.3142 1.54022 18.2888 1.64184C18.2888 1.97211 17.6664 4.63969 16.4215 9.64457C15.1767 14.6495 14.4653 17.3932 14.2875 17.8759C13.5761 19.9846 12.3439 21.6614 10.591 22.9062C8.83798 24.1511 7.085 24.7862 5.33202 24.8116C4.18877 24.8116 3.18526 24.5322 2.32147 23.9733C1.45768 23.4143 1.02579 22.576 1.02579 21.4581C1.02579 20.8992 1.11471 20.4292 1.29255 20.0481C1.47039 19.667 1.71174 19.3876 2.0166 19.2097C2.32147 19.0319 2.57553 18.9049 2.77877 18.8287C2.98201 18.7524 3.19796 18.7143 3.42661 18.7143C4.54445 18.7143 5.10337 19.2478 5.10337 20.3149C5.10337 20.823 4.95094 21.2676 4.64607 21.6487C4.34121 22.0297 4.04904 22.2838 3.76958 22.4108C3.49012 22.5379 3.32499 22.6014 3.27418 22.6014L3.15985 22.6395C3.21066 22.7665 3.45202 22.9189 3.88391 23.0968C4.3158 23.2746 4.7477 23.3635 5.17959 23.3635H5.48446C5.91635 23.3635 6.24662 23.3381 6.47527 23.2873C7.31365 23.0587 8.08852 22.576 8.79987 21.8392C9.51123 21.1024 10.0574 20.3149 10.4385 19.4765C10.8196 18.6381 11.1118 17.9268 11.315 17.3424C11.5183 16.7581 11.6199 16.377 11.6199 16.1992L11.3912 16.3516C11.2388 16.4532 10.9974 16.593 10.6672 16.7708C10.3369 16.9486 10.0066 17.1011 9.67636 17.2281C9.16825 17.3551 8.67284 17.4186 8.19014 17.4186C7.02149 17.4186 5.99257 17.1392 5.10337 16.5803C4.21418 16.0213 3.62985 15.1195 3.35039 13.8746C3.32499 13.6967 3.31228 13.303 3.31228 12.6932C3.31228 11.2451 3.75688 9.35241 4.64607 7.0151C5.53527 4.6778 5.97986 3.19158 5.97986 2.55644C5.97986 2.53103 5.97986 2.50563 5.97986 2.48022C5.97986 2.25157 5.97986 2.09914 5.97986 2.02292C5.97986 1.94671 5.92905 1.85779 5.82743 1.75617C5.72581 1.65454 5.58608 1.60373 5.40824 1.60373H5.25581C4.67148 1.60373 4.13796 1.84509 3.65526 2.32779C3.17255 2.81049 2.79147 3.33131 2.51201 3.89023C2.23255 4.44915 2.0166 4.98266 1.86417 5.49077C1.71174 5.99888 1.61012 6.27834 1.55931 6.32915C1.50849 6.37996 1.30525 6.40537 0.949573 6.40537H0.416058C0.263625 6.25294 0.187408 6.13861 0.187408 6.0624Z" fill="#102C57"/>
</svg>
