<svg width="12" height="16" viewBox="0 0 12 16" fill="none" xmlns="http://www.w3.org/2000/svg">
<path d="M0.131439 3.79362C0.131439 3.5742 0.248982 3.19806 0.484068 2.6652C0.719155 2.13234 1.09529 1.57597 1.61248 0.99609C2.12967 0.41621 2.70955 0.134107 3.35212 0.149779C3.99469 0.149779 4.51188 0.330012 4.90369 0.690477C5.2955 1.05094 5.49924 1.55246 5.51491 2.19503C5.48357 2.49281 5.46006 2.65737 5.44439 2.68871C5.44439 2.73573 5.31901 3.09619 5.06825 3.77011C4.81749 4.44402 4.55889 5.20413 4.29246 6.05045C4.02603 6.89676 3.90065 7.57067 3.91633 8.07219C3.91633 8.7461 4.02603 9.21627 4.24545 9.48271C4.46486 9.74914 4.79398 9.89019 5.23281 9.90586C5.59327 9.90586 5.93023 9.81966 6.24368 9.64727C6.55713 9.47487 6.80005 9.29464 6.97245 9.10657C7.14484 8.9185 7.35642 8.6599 7.60718 8.33078C7.60718 8.31511 7.64636 8.15839 7.72472 7.86061C7.80308 7.56283 7.91279 7.1005 8.05384 6.4736C8.19489 5.8467 8.34378 5.26682 8.50051 4.73396C9.09606 2.3831 9.42518 1.15281 9.48787 1.04311C9.69161 0.619952 10.0286 0.408374 10.4987 0.408374C10.7025 0.408374 10.867 0.463227 10.9924 0.572934C11.1178 0.682642 11.204 0.776676 11.251 0.855038C11.298 0.9334 11.3137 1.00393 11.298 1.06662C11.298 1.27036 10.9141 2.91596 10.1461 6.00343C9.37816 9.0909 8.93933 10.7835 8.82963 11.0813C8.3908 12.3821 7.63069 13.4165 6.54929 14.1844C5.46789 14.9524 4.3865 15.3442 3.3051 15.3599C2.59984 15.3599 1.98078 15.1875 1.44792 14.8427C0.91506 14.4979 0.648629 13.9807 0.648629 13.2911C0.648629 12.9463 0.703482 12.6564 0.813189 12.4213C0.922896 12.1862 1.07178 12.0138 1.25985 11.9041C1.44792 11.7944 1.60465 11.716 1.73002 11.669C1.8554 11.622 1.98862 11.5985 2.12967 11.5985C2.81926 11.5985 3.16405 11.9276 3.16405 12.5858C3.16405 12.8993 3.07002 13.1736 2.88195 13.4086C2.69388 13.6437 2.51365 13.8005 2.34125 13.8788C2.16885 13.9572 2.06698 13.9964 2.03564 13.9964L1.96511 14.0199C1.99646 14.0982 2.14534 14.1923 2.41177 14.302C2.67821 14.4117 2.94464 14.4665 3.21107 14.4665H3.39914C3.66557 14.4665 3.86931 14.4509 4.01036 14.4195C4.52755 14.2785 5.00556 13.9807 5.44439 13.5262C5.88321 13.0717 6.22017 12.5858 6.45526 12.0687C6.69034 11.5515 6.87058 11.1126 6.99595 10.7522C7.12133 10.3917 7.18402 10.1566 7.18402 10.0469L7.04297 10.1409C6.94894 10.2036 6.80005 10.2898 6.59631 10.3995C6.39257 10.5092 6.18883 10.6033 5.98508 10.6816C5.67164 10.76 5.36602 10.7992 5.06825 10.7992C4.34732 10.7992 3.71258 10.6268 3.16405 10.282C2.61552 9.93721 2.25505 9.38084 2.08265 8.61289C2.06698 8.50318 2.05915 8.26026 2.05915 7.88412C2.05915 6.99079 2.33341 5.8232 2.88195 4.38133C3.43048 2.93947 3.70475 2.02263 3.70475 1.63082C3.70475 1.61515 3.70475 1.59948 3.70475 1.58381C3.70475 1.44275 3.70475 1.34872 3.70475 1.3017C3.70475 1.25468 3.6734 1.19983 3.61071 1.13714C3.54802 1.07445 3.46183 1.04311 3.35212 1.04311H3.25808C2.89762 1.04311 2.5685 1.192 2.27072 1.48977C1.97295 1.78755 1.73786 2.10883 1.56546 2.45362C1.39307 2.79842 1.25985 3.12754 1.16582 3.44099C1.07178 3.75444 1.00909 3.92683 0.977749 3.95818C0.946405 3.98952 0.821025 4.00519 0.601611 4.00519H0.272491C0.178456 3.91116 0.131439 3.84063 0.131439 3.79362Z" fill="#102C57"/>
</svg>
