<svg width="9" height="19" viewBox="0 0 9 19" fill="none" xmlns="http://www.w3.org/2000/svg">
<path d="M2.03825 18.1235C1.90524 18.1235 1.60598 18.057 1.14046 17.924C0.674945 17.791 0.431103 17.658 0.408936 17.525C0.408936 17.3698 1.01854 14.7984 2.23775 9.81073C3.45696 4.82304 4.13307 2.21836 4.26608 1.99669C4.59859 1.28733 5.17494 0.932648 5.99514 0.932648C6.43849 0.932648 6.90401 1.0989 7.39169 1.43142C7.87938 1.76393 8.12322 2.25161 8.12322 2.89447C8.12322 3.00531 8.10105 3.17156 8.05672 3.39324C8.03455 3.54841 7.07026 6.02009 5.16386 10.8083C3.25746 15.5964 2.271 18.0127 2.2045 18.057C2.138 18.1014 2.08258 18.1235 2.03825 18.1235Z" fill="#102C57"/>
</svg>
