<svg width="17" height="24" viewBox="0 0 17 24" fill="none" xmlns="http://www.w3.org/2000/svg">
<path d="M11.3985 0.366688C11.4206 0.366688 12.2187 0.31127 13.7925 0.200432C15.3664 0.0895939 16.1755 0.0230923 16.2199 0.000925064C16.4859 0.000925064 16.6189 0.0895939 16.6189 0.266933C16.6189 0.422106 15.8098 3.7694 14.1916 10.3088C12.5733 16.8482 11.7421 20.1844 11.6977 20.3174C11.6534 20.4504 11.6423 20.6167 11.6645 20.8162C11.6645 21.7472 11.9748 22.2127 12.5955 22.2127C12.795 22.1906 13.0167 22.0908 13.2605 21.9135C13.726 21.4701 14.1805 20.4061 14.6238 18.7214C14.7568 18.278 14.8677 18.0453 14.9563 18.0231C15.0007 18.0009 15.1115 17.9898 15.2888 17.9898H15.4219H15.5549C15.8874 17.9898 16.0536 18.0785 16.0536 18.2558C16.0536 18.3667 16.0204 18.544 15.9539 18.7879C15.6657 19.8962 15.3332 20.794 14.9563 21.4812C14.5795 22.1684 14.2691 22.6118 14.0253 22.8113C13.7815 23.0108 13.4711 23.1881 13.0943 23.3433C12.9169 23.3876 12.6509 23.4098 12.2962 23.4098C11.5425 23.4098 10.9108 23.2435 10.4009 22.911C9.89107 22.5785 9.55856 22.2349 9.40339 21.8802L9.20388 21.3815C9.18171 21.3593 9.13738 21.3704 9.07087 21.4147C9.02654 21.4591 8.9822 21.5034 8.93787 21.5477C7.62999 22.7891 6.29994 23.4098 4.94772 23.4098C3.72851 23.4098 2.65339 22.9664 1.72236 22.0797C0.791323 21.193 0.325806 19.7854 0.325806 17.8568C0.325806 16.7928 0.54748 15.7066 0.99083 14.5982C1.43418 13.4898 1.9662 12.5366 2.58689 11.7386C3.62876 10.4751 4.67063 9.59945 5.7125 9.11176C6.75437 8.62408 7.69649 8.38023 8.53885 8.38023C9.78023 8.38023 10.7113 8.84575 11.332 9.77679C11.4428 9.90979 11.4982 9.95413 11.4982 9.90979C11.5204 9.82112 11.8196 8.61299 12.396 6.28541C12.9723 3.95782 13.2827 2.72753 13.327 2.59452C13.327 2.30634 13.2494 2.129 13.0943 2.0625C12.9391 1.996 12.5068 1.94058 11.7975 1.89624H11.0992C10.9662 1.76324 10.8997 1.67457 10.8997 1.63023C10.8997 1.5859 10.9219 1.37531 10.9662 0.998461C11.077 0.577278 11.2211 0.366688 11.3985 0.366688ZM10.9329 12.2374C10.4231 10.4861 9.59181 9.61053 8.4391 9.61053C7.66324 9.61053 6.92063 9.95413 6.21127 10.6413C5.50191 11.3285 4.94772 12.2263 4.54871 13.3347C3.90585 15.0859 3.45142 16.9036 3.18541 18.7879C3.18541 18.8544 3.18541 18.9763 3.18541 19.1536C3.18541 19.331 3.17433 19.464 3.15216 19.5526C3.15216 20.5502 3.35167 21.2374 3.75068 21.6142C4.14969 21.9911 4.6263 22.1906 5.18048 22.2127C6.37753 22.2127 7.60782 21.4147 8.87137 19.8187L9.13738 19.4529L10.9329 12.2374Z" fill="#102C57"/>
</svg>
