<svg width="4" height="8" viewBox="0 0 4 8" fill="none" xmlns="http://www.w3.org/2000/svg">
<path d="M0.0777588 4.97417C0.0777588 4.18079 0.239371 3.42415 0.562597 2.70424C0.885822 1.98433 1.21639 1.44807 1.55431 1.09546C1.89223 0.742853 2.10526 0.566549 2.19341 0.566549C2.23749 0.566549 2.32564 0.632663 2.45787 0.764891C2.5901 0.89712 2.66356 0.992618 2.67825 1.05139C2.67825 1.09546 2.5901 1.213 2.4138 1.404C2.23749 1.59499 2.04649 1.82272 1.84081 2.08718C1.63512 2.35163 1.42943 2.73363 1.22374 3.23316C1.01805 3.73269 0.90786 4.2616 0.893168 4.8199C0.893168 4.9962 0.900514 5.08436 0.915206 5.08436C0.929898 5.08436 0.966628 5.06966 1.0254 5.04028C1.08416 5.0109 1.17966 4.96682 1.31189 4.90805C1.44412 4.84928 1.57635 4.82724 1.70858 4.84194C2.07588 4.84194 2.38441 4.96682 2.63418 5.21658C2.88394 5.46635 3.01617 5.78223 3.03086 6.16422C3.04555 6.54622 2.92067 6.86209 2.65621 7.11186C2.39176 7.36162 2.08322 7.49385 1.73062 7.50854C1.30455 7.50854 0.922552 7.31755 0.584635 6.93555C0.246717 6.55356 0.0777588 5.89976 0.0777588 4.97417Z" fill="black"/>
</svg>
