<svg width="17" height="18" viewBox="0 0 17 18" fill="none" xmlns="http://www.w3.org/2000/svg">
<path d="M12.04 4.11966C11.786 4.11966 11.1127 3.97993 10.0203 3.70047C8.92787 3.42101 8.1276 3.28128 7.61949 3.28128C7.11138 3.28128 6.67948 3.33209 6.32381 3.43371C5.96813 3.53534 5.67597 3.66236 5.44732 3.8148C5.21867 3.96723 5.06623 4.10696 4.99002 4.23399C4.9138 4.36101 4.82488 4.50074 4.72326 4.65318L4.64704 4.80561C4.57083 4.88183 4.38029 4.91993 4.07542 4.91993C3.5419 4.91993 3.27515 4.81831 3.27515 4.61507C3.27515 4.48804 3.31325 4.3102 3.38947 4.08155C3.71974 3.09074 4.26596 2.23966 5.02813 1.5283C5.79029 0.816948 6.62867 0.385056 7.54327 0.232622C7.84814 0.18181 8.06408 0.156406 8.19111 0.156406C8.82625 0.156406 9.39787 0.372353 9.90598 0.804245C10.4141 1.23614 10.8968 1.65533 11.3541 2.06182C11.8114 2.4683 12.2941 2.68425 12.8022 2.70966C13.3611 2.70966 13.9201 2.29047 14.479 1.45209C15.0379 0.613705 15.3301 0.194513 15.3555 0.194513C15.3809 0.169107 15.5714 0.156406 15.9271 0.156406H16.4225C16.5749 0.308838 16.6511 0.41046 16.6511 0.461271C16.6511 0.562893 16.5876 0.740732 16.4606 0.994787C16.3336 1.24884 16.1557 1.5156 15.9271 1.79506C15.6984 2.07452 15.4825 2.35398 15.2792 2.63344C15.076 2.9129 14.8982 3.15425 14.7457 3.3575L14.479 3.70047C13.3865 4.99615 11.659 6.71102 9.29625 8.84508C6.93354 10.9791 5.47272 12.351 4.9138 12.9608L4.4565 13.4181L5.02813 13.4562C5.58705 13.4562 6.40002 13.5959 7.46706 13.8754C8.53409 14.1548 9.33436 14.2946 9.86788 14.2946C10.8333 14.2946 11.7225 14.0532 12.5355 13.5705C13.3484 13.0878 13.8819 12.4527 14.136 11.6651C14.2376 11.4364 14.3265 11.2967 14.4028 11.2459C14.479 11.1951 14.6695 11.1697 14.9744 11.1697C15.4571 11.1697 15.6984 11.2967 15.6984 11.5508C15.6984 11.6778 15.6857 11.7921 15.6603 11.8937C15.2284 13.4689 14.3901 14.7773 13.1452 15.8189C11.9003 16.8605 10.6554 17.394 9.41058 17.4194C8.75003 17.4194 8.16571 17.2035 7.6576 16.7716C7.14949 16.3397 6.65408 15.9078 6.17137 15.4759C5.68867 15.044 5.20597 14.8281 4.72326 14.8281C3.60542 14.8281 2.6019 15.5902 1.71271 17.1146C1.56027 17.3178 1.34433 17.4194 1.06487 17.4194H0.874326H0.378918C0.226485 17.267 0.150269 17.1527 0.150269 17.0765C0.150269 16.6954 0.887028 15.6029 2.36055 13.7992C3.35136 12.6559 5.02813 11.0045 7.39084 8.84508C9.75355 6.68562 11.2144 5.31372 11.7733 4.72939C12.0782 4.32291 12.1671 4.11966 12.04 4.11966Z" fill="#102C57"/>
</svg>
