<svg width="23" height="9" viewBox="0 0 23 9" fill="none" xmlns="http://www.w3.org/2000/svg">
<path d="M-1.52588e-05 1.01546C-1.52588e-05 0.727285 0.155157 0.50561 0.465502 0.350438H21.6465C21.979 0.527778 22.1453 0.749453 22.1453 1.01546C22.1453 1.25931 21.9901 1.4699 21.6798 1.64724L11.1059 1.68049H0.532004C0.177325 1.56965 -1.52588e-05 1.34797 -1.52588e-05 1.01546ZM-1.52588e-05 7.4662C-1.52588e-05 7.13369 0.177325 6.91201 0.532004 6.80118H21.6798C21.9901 7.02285 22.1453 7.24453 22.1453 7.4662C22.1453 7.75438 21.979 7.97605 21.6465 8.13123H0.465502C0.155157 7.97605 -1.52588e-05 7.75438 -1.52588e-05 7.4662Z" fill="#102C57"/>
</svg>
