<svg width="18" height="16" viewBox="0 0 18 16" fill="none" xmlns="http://www.w3.org/2000/svg">
<path d="M1.397 5.94346C1.55217 5.01242 2.15069 3.9373 3.19256 2.71809C4.23444 1.49888 5.52015 0.87819 7.04971 0.856023C7.82557 0.856023 8.53493 1.05553 9.17779 1.45455C9.82064 1.85356 10.2972 2.35233 10.6076 2.95085C11.5386 1.5543 12.6581 0.856023 13.966 0.856023C14.7862 0.856023 15.4955 1.09986 16.094 1.58755C16.6926 2.07523 17.0029 2.72917 17.0251 3.54937C17.0251 4.19223 16.8699 4.71316 16.5596 5.11218C16.2492 5.51119 15.95 5.75504 15.6618 5.84371C15.3736 5.93237 15.1187 5.97671 14.897 5.97671C14.4758 5.97671 14.1322 5.85479 13.8662 5.61095C13.6002 5.3671 13.4672 5.04568 13.4672 4.64666C13.4672 3.62696 14.0214 2.92868 15.1298 2.55184C14.8859 2.26366 14.4426 2.11957 13.7997 2.11957C13.5115 2.11957 13.3009 2.14174 13.1679 2.18607C12.3256 2.54075 11.7049 3.27228 11.3059 4.38065C9.97581 9.27966 9.31079 12.1393 9.31079 12.9595C9.31079 13.5802 9.48813 14.0235 9.84281 14.2895C10.1975 14.5555 10.5854 14.6885 11.0066 14.6885C11.8268 14.6885 12.6359 14.3228 13.4339 13.5912C14.232 12.8597 14.7751 11.9619 15.0633 10.8979C15.1298 10.6762 15.1963 10.5543 15.2628 10.5321C15.3293 10.51 15.5066 10.4878 15.7948 10.4656H15.9278C16.2603 10.4656 16.4266 10.5543 16.4266 10.7316C16.4266 10.7538 16.4044 10.8757 16.3601 11.0974C16.0054 12.3609 15.3182 13.4804 14.2985 14.4558C13.2788 15.4311 12.0928 15.9188 10.7406 15.9188C9.18887 15.9188 8.01399 15.2205 7.21596 13.824C6.3071 15.1984 5.26522 15.8856 4.09035 15.8856H3.89084C2.80463 15.8856 2.02877 15.5974 1.56325 15.021C1.09774 14.4447 0.853894 13.8351 0.831726 13.1922C0.831726 12.4829 1.04232 11.9065 1.4635 11.4632C1.88468 11.0198 2.38345 10.7981 2.95981 10.7981C3.91301 10.7981 4.38961 11.2637 4.38961 12.1947C4.38961 12.638 4.2566 13.026 3.99059 13.3585C3.72458 13.691 3.46966 13.9127 3.22581 14.0235C2.98197 14.1343 2.83788 14.1898 2.79355 14.1898L2.6938 14.223C2.6938 14.2452 2.7603 14.2895 2.8933 14.356C3.02631 14.4225 3.20365 14.5001 3.42532 14.5888C3.647 14.6774 3.85759 14.7107 4.0571 14.6885C4.85513 14.6885 5.54232 14.1898 6.11867 13.1922C6.31818 12.8375 6.57311 12.0838 6.88345 10.9311C7.1938 9.77843 7.50414 8.58139 7.81449 7.34001C8.12483 6.09863 8.30217 5.3671 8.3465 5.14543C8.45734 4.54691 8.51276 4.11464 8.51276 3.84863C8.51276 3.22794 8.3465 2.78459 8.01399 2.51858C7.68148 2.25257 7.30463 2.11957 6.88345 2.11957C5.99675 2.11957 5.16547 2.47425 4.38961 3.18361C3.61375 3.89297 3.07064 4.80183 2.7603 5.91021C2.71596 6.10971 2.66054 6.22055 2.59404 6.24272C2.52754 6.26489 2.3502 6.28706 2.06202 6.30922H1.5965C1.4635 6.17622 1.397 6.0543 1.397 5.94346Z" fill="#102C57"/>
</svg>
