<svg width="10" height="21" viewBox="0 0 10 21" fill="none" xmlns="http://www.w3.org/2000/svg">
<path d="M2.52473 20.2874C2.37437 20.2874 2.03605 20.2122 1.50979 20.0618C0.983524 19.9114 0.707861 19.7611 0.6828 19.6107C0.6828 19.4353 1.37196 16.5283 2.75027 10.8898C4.12859 5.2512 4.89293 2.30662 5.04329 2.05601C5.41919 1.25409 6.07076 0.853121 6.99799 0.853121C7.49919 0.853121 8.02546 1.04107 8.57679 1.41698C9.12811 1.79288 9.40377 2.34421 9.40377 3.07095C9.40377 3.19625 9.37871 3.38421 9.32859 3.63481C9.30353 3.81023 8.21341 6.60445 6.05823 12.0175C3.90305 17.4305 2.78786 20.1621 2.71268 20.2122C2.6375 20.2623 2.57485 20.2874 2.52473 20.2874Z" fill="#102C57"/>
</svg>
