<svg width="17" height="18" viewBox="0 0 17 18" fill="none" xmlns="http://www.w3.org/2000/svg">
<path d="M11.8968 4.19944C11.6462 4.19944 10.9821 4.06161 9.90453 3.78595C8.82694 3.51028 8.03754 3.37245 7.53633 3.37245C7.03513 3.37245 6.6091 3.42257 6.25826 3.52281C5.90742 3.62306 5.61922 3.74836 5.39368 3.89872C5.16814 4.04908 5.01778 4.18691 4.9426 4.31221C4.86741 4.43751 4.7797 4.57535 4.67946 4.72571L4.60428 4.87607C4.5291 4.95125 4.34115 4.98884 4.04042 4.98884C3.51416 4.98884 3.25103 4.8886 3.25103 4.68812C3.25103 4.56281 3.28862 4.38739 3.3638 4.16185C3.68958 3.1845 4.22838 2.34498 4.98019 1.6433C5.73199 0.941608 6.55898 0.515585 7.46115 0.365223C7.76188 0.315104 7.97489 0.290043 8.10019 0.290043C8.7267 0.290043 9.29056 0.503054 9.79176 0.929079C10.293 1.3551 10.7691 1.7686 11.2202 2.16956C11.6713 2.57053 12.1474 2.78354 12.6486 2.8086C13.2 2.8086 13.7513 2.3951 14.3026 1.56812C14.8539 0.741127 15.1421 0.327633 15.1672 0.327633C15.1923 0.302572 15.3802 0.290043 15.7311 0.290043H16.2197C16.3701 0.440403 16.4453 0.540646 16.4453 0.590765C16.4453 0.691006 16.3826 0.866428 16.2573 1.11703C16.132 1.36763 15.9566 1.63077 15.7311 1.90643C15.5055 2.18209 15.2925 2.45775 15.092 2.73342C14.8915 3.00908 14.7161 3.24715 14.5657 3.44763L14.3026 3.78595C13.225 5.06402 11.5209 6.75559 9.19031 8.86065C6.85971 10.9657 5.41874 12.319 4.86741 12.9204L4.41633 13.3715L4.98019 13.4091C5.53151 13.4091 6.33344 13.5469 7.38597 13.8226C8.43851 14.0982 9.22791 14.2361 9.75417 14.2361C10.7065 14.2361 11.5836 13.998 12.3855 13.5219C13.1874 13.0457 13.7137 12.4192 13.9643 11.6423C14.0645 11.4168 14.1523 11.279 14.2274 11.2288C14.3026 11.1787 14.4906 11.1537 14.7913 11.1537C15.2674 11.1537 15.5055 11.279 15.5055 11.5296C15.5055 11.6549 15.493 11.7676 15.4679 11.8679C15.0419 13.4216 14.2149 14.7122 12.9869 15.7397C11.759 16.7672 10.531 17.2934 9.30309 17.3185C8.65152 17.3185 8.07513 17.1055 7.57393 16.6794C7.07272 16.2534 6.58404 15.8274 6.1079 15.4014C5.63175 14.9753 5.15561 14.7623 4.67946 14.7623C3.57681 14.7623 2.58693 15.5141 1.70982 17.0178C1.55946 17.2182 1.34644 17.3185 1.07078 17.3185H0.882828H0.394152C0.24379 17.1681 0.16861 17.0553 0.16861 16.9802C0.16861 16.6043 0.895358 15.5267 2.34886 13.7474C3.32621 12.6197 4.98019 10.9908 7.31079 8.86065C9.6414 6.73053 11.0824 5.37727 11.6337 4.80089C11.9344 4.39992 12.0221 4.19944 11.8968 4.19944Z" fill="#102C57"/>
</svg>
