<svg width="10" height="21" viewBox="0 0 10 21" fill="none" xmlns="http://www.w3.org/2000/svg">
<path d="M2.30186 20.2874C2.1515 20.2874 1.81319 20.2122 1.28692 20.0618C0.760654 19.9114 0.484991 19.7611 0.45993 19.6107C0.45993 19.4353 1.14909 16.5283 2.5274 10.8898C3.90572 5.2512 4.67006 2.30662 4.82042 2.05601C5.19632 1.25409 5.84789 0.853121 6.77512 0.853121C7.27632 0.853121 7.80259 1.04107 8.35392 1.41698C8.90524 1.79288 9.1809 2.34421 9.1809 3.07095C9.1809 3.19625 9.15584 3.38421 9.10572 3.63481C9.08066 3.81023 7.99054 6.60445 5.83536 12.0175C3.68018 17.4305 2.56499 20.1621 2.48981 20.2122C2.41463 20.2623 2.35198 20.2874 2.30186 20.2874Z" fill="#102C57"/>
</svg>
