<svg width="16" height="15" viewBox="0 0 16 15" fill="none" xmlns="http://www.w3.org/2000/svg">
<path d="M0.469849 7.63794C0.469849 7.63794 0.469849 7.54244 0.469849 7.35145C0.469849 7.16045 0.572693 7.01353 0.778382 6.91069H7.36777V3.60497L7.38981 0.29926C7.53673 0.108264 7.6763 0.0127649 7.80853 0.0127649C7.99953 0.0127649 8.14645 0.122955 8.24929 0.343336V6.91069H14.8166C15.037 7.02822 15.1472 7.17514 15.1472 7.35145C15.1472 7.52775 15.037 7.67467 14.8166 7.79221H8.24929V14.3596C8.13176 14.5652 7.99953 14.6681 7.85261 14.6681H7.80853H7.76445C7.58815 14.6681 7.45592 14.5652 7.36777 14.3596V7.79221H0.778382C0.572693 7.68936 0.469849 7.54244 0.469849 7.35145V7.63794Z" fill="black"/>
</svg>
