<svg width="24" height="25" viewBox="0 0 24 25" fill="none" xmlns="http://www.w3.org/2000/svg">
<path d="M5.92363 22.0921C5.92363 22.6242 6.43349 22.9345 7.45319 23.0232C7.8522 23.0232 8.05171 23.1451 8.05171 23.3889C8.05171 23.4111 8.02954 23.5552 7.98521 23.8212C7.91871 24.1316 7.8522 24.3311 7.7857 24.4197C7.7192 24.5084 7.57511 24.5527 7.35344 24.5527C7.3091 24.5527 7.1761 24.5527 6.95442 24.5527C6.73275 24.5527 6.3559 24.5417 5.82388 24.5195C5.29186 24.4973 4.5825 24.4862 3.6958 24.4862C2.12191 24.4862 1.11329 24.5084 0.669941 24.5527H0.403932C0.248759 24.3976 0.171173 24.2756 0.171173 24.187C0.215508 23.5884 0.359597 23.2005 0.603439 23.0232H1.06896C2.62068 22.9567 3.75122 22.4025 4.46058 21.3606C4.59359 21.2276 6.59974 17.8471 10.4791 11.219C14.3584 4.59092 16.3313 1.23255 16.3978 1.14388C16.5529 0.877869 16.819 0.744865 17.1958 0.744865H17.4618H18.0271C18.1601 0.944372 18.2266 1.05521 18.2266 1.07738L19.1576 11.8175C19.7783 18.9776 20.1108 22.5909 20.1552 22.6574C20.266 22.9013 20.9864 23.0232 22.3165 23.0232C22.8707 23.0232 23.1478 23.134 23.1478 23.3557C23.1478 23.4 23.1145 23.5552 23.048 23.8212C22.9815 24.1537 22.9261 24.3532 22.8818 24.4197C22.8374 24.4862 22.6822 24.5306 22.4162 24.5527C22.3497 24.5527 22.1946 24.5527 21.9507 24.5527C21.7069 24.5527 21.2746 24.5417 20.6539 24.5195C20.0332 24.4973 19.2241 24.4862 18.2266 24.4862C16.1428 24.4862 14.7795 24.5084 14.1367 24.5527H13.7377C13.6047 24.4197 13.5382 24.32 13.5382 24.2535C13.5382 24.187 13.5603 23.9875 13.6047 23.655C13.6933 23.3668 13.7598 23.1894 13.8042 23.1229L13.9372 23.0232H14.6022C15.7992 22.9567 16.5086 22.7683 16.7303 22.4579L16.3313 17.4702H8.41748L7.28693 19.3988C6.37807 20.9284 5.92363 21.8261 5.92363 22.0921ZM16.165 15.9074C16.165 15.6636 16.032 13.9345 15.766 10.7202C15.5 7.50595 15.3448 5.88772 15.3005 5.86555L14.4027 7.29535C14.048 7.89388 13.3497 9.07984 12.3079 10.8532L9.31526 15.9074L12.7401 15.9407C15.0234 15.9407 16.165 15.9296 16.165 15.9074Z" fill="#102C57"/>
</svg>
