<svg width="8" height="19" viewBox="0 0 8 19" fill="none" xmlns="http://www.w3.org/2000/svg">
<path d="M1.92313 18.1238C1.79013 18.1238 1.49087 18.0573 1.02535 17.9243C0.559833 17.7913 0.315991 17.6583 0.293823 17.5253C0.293823 17.3701 0.903429 14.7987 2.12264 9.81097C3.34185 4.82329 4.01796 2.21861 4.15097 1.99693C4.48348 1.28757 5.05983 0.932892 5.88003 0.932892C6.32338 0.932892 6.7889 1.09915 7.27658 1.43166C7.76427 1.76417 8.00811 2.25186 8.00811 2.89471C8.00811 3.00555 7.98594 3.17181 7.94161 3.39348C7.91944 3.54866 6.95515 6.02033 5.04875 10.8085C3.14234 15.5967 2.15589 18.0129 2.08939 18.0573C2.02289 18.1016 1.96747 18.1238 1.92313 18.1238Z" fill="#102C57"/>
</svg>
