<svg width="28" height="24" viewBox="0 0 28 24" fill="none" xmlns="http://www.w3.org/2000/svg">
<path d="M11.4787 0.654408C11.5009 0.654408 12.2989 0.598989 13.8728 0.488152C15.4467 0.377314 16.2558 0.310812 16.3001 0.288645C16.5662 0.288645 16.6992 0.377314 16.6992 0.554653C16.6992 0.709826 15.89 4.05712 14.2718 10.5965C12.6536 17.1359 11.8223 20.4721 11.778 20.6051C11.7336 20.7382 11.7226 20.9044 11.7447 21.1039C11.7447 22.0349 12.0551 22.5005 12.6758 22.5005C12.8753 22.4783 13.0969 22.3785 13.3408 22.2012C13.8063 21.7579 14.2607 20.6938 14.7041 19.0091C14.8371 18.5657 14.9479 18.333 15.0366 18.3108C15.0809 18.2886 15.1918 18.2776 15.3691 18.2776H15.5021H15.6351C15.9676 18.2776 16.1339 18.3662 16.1339 18.5436C16.1339 18.6544 16.1006 18.8317 16.0341 19.0756C15.746 20.184 15.4134 21.0817 15.0366 21.7689C14.6598 22.4561 14.3494 22.8995 14.1056 23.099C13.8617 23.2985 13.5514 23.4758 13.1745 23.631C12.9972 23.6753 12.7312 23.6975 12.3765 23.6975C11.6228 23.6975 10.991 23.5313 10.4812 23.1987C9.97133 22.8662 9.63882 22.5226 9.48365 22.168L9.28414 21.6692C9.26197 21.647 9.21764 21.6581 9.15113 21.7024C9.1068 21.7468 9.06246 21.7911 9.01813 21.8354C7.71025 23.0768 6.3802 23.6975 5.02798 23.6975C3.80877 23.6975 2.73365 23.2542 1.80262 22.3675C0.871584 21.4808 0.406067 20.0731 0.406067 18.1446C0.406067 17.0805 0.627742 15.9943 1.07109 14.8859C1.51444 13.7776 2.04646 12.8244 2.66715 12.0263C3.70902 10.7628 4.75089 9.88717 5.79276 9.39948C6.83463 8.9118 7.77675 8.66795 8.61911 8.66795C9.86049 8.66795 10.7915 9.13347 11.4122 10.0645C11.5231 10.1975 11.5785 10.2418 11.5785 10.1975C11.6006 10.1088 11.8999 8.90071 12.4763 6.57313C13.0526 4.24554 13.363 3.01525 13.4073 2.88224C13.4073 2.59406 13.3297 2.41672 13.1745 2.35022C13.0194 2.28372 12.5871 2.2283 11.8777 2.18396H11.1795C11.0465 2.05096 10.98 1.96229 10.98 1.91795C10.98 1.87362 11.0021 1.66303 11.0465 1.28618C11.1573 0.864998 11.3014 0.654408 11.4787 0.654408ZM11.0132 12.5251C10.5034 10.7739 9.67207 9.89825 8.51936 9.89825C7.7435 9.89825 7.00089 10.2418 6.29153 10.929C5.58217 11.6162 5.02798 12.514 4.62897 13.6224C3.98611 15.3736 3.53168 17.1914 3.26567 19.0756C3.26567 19.1421 3.26567 19.264 3.26567 19.4414C3.26567 19.6187 3.25459 19.7517 3.23242 19.8404C3.23242 20.8379 3.43193 21.5251 3.83094 21.9019C4.22996 22.2788 4.70656 22.4783 5.26074 22.5005C6.45779 22.5005 7.68808 21.7024 8.95163 20.1064L9.21764 19.7406L11.0132 12.5251Z" fill="#102C57"/>
<path d="M17.4637 10.5618C17.3085 10.4066 17.231 10.2958 17.231 10.2292C17.231 10.1406 17.2642 9.96324 17.3307 9.69723C17.3972 9.43122 17.4526 9.27605 17.497 9.23171C17.5413 9.12087 17.6411 9.06546 17.7962 9.06546C17.9514 9.06546 18.5167 9.05437 19.492 9.0322H21.2544L21.8861 6.37211C21.9526 6.12826 22.0302 5.80684 22.1189 5.40782C22.2076 5.00881 22.2851 4.72063 22.3516 4.54329C22.4181 4.36595 22.4847 4.14427 22.5512 3.87826C22.6177 3.61225 22.7063 3.42383 22.8172 3.31299C22.928 3.20216 23.0388 3.06915 23.1497 2.91398C23.2605 2.75881 23.4157 2.65905 23.6152 2.61472C23.8147 2.57038 24.0142 2.54821 24.2137 2.54821C24.6127 2.57038 24.8898 2.6923 25.045 2.91398C25.2002 3.13565 25.2778 3.34624 25.2778 3.54575C25.2778 3.70092 25.178 4.22186 24.9785 5.10856C24.779 5.99526 24.5573 6.87087 24.3135 7.73541L23.981 8.9657C23.981 9.01004 24.5351 9.0322 25.6435 9.0322H27.3393C27.4945 9.18738 27.5721 9.3093 27.5721 9.39797C27.5721 9.88565 27.428 10.2736 27.1398 10.5618H23.5819L22.3849 15.3832C21.5204 18.93 21.0881 20.8364 21.0881 21.1024C21.0881 22.0334 21.3874 22.499 21.9859 22.499C22.7617 22.499 23.5154 22.1221 24.247 21.3684C24.9785 20.6147 25.5659 19.6837 26.0093 18.5753C26.0536 18.4423 26.109 18.3647 26.1755 18.3425C26.242 18.3204 26.4083 18.2982 26.6743 18.276H26.8073C27.1398 18.276 27.3061 18.3647 27.3061 18.5421C27.3061 18.6086 27.2728 18.7416 27.2063 18.9411C27.0955 19.2958 26.896 19.7169 26.6078 20.2046C26.3196 20.6923 25.9428 21.2132 25.4773 21.7674C25.0117 22.3216 24.4465 22.7871 23.7815 23.164C23.1164 23.5408 22.4403 23.7292 21.7531 23.7292C21.0881 23.7292 20.4563 23.563 19.8578 23.2305C19.2593 22.898 18.827 22.3216 18.561 21.5014C18.5167 21.3241 18.4945 21.0248 18.4945 20.6036V20.0051L19.6583 15.3499C20.4342 12.2243 20.8332 10.6504 20.8553 10.6283C20.8553 10.5839 20.2901 10.5618 19.1595 10.5618H17.4637Z" fill="#102C57"/>
</svg>
