<svg width="45" height="30" viewBox="0 0 45 30" fill="none" xmlns="http://www.w3.org/2000/svg">
<path d="M6.23653 22.0921C6.23653 22.6242 6.74638 22.9345 7.76609 23.0232C8.1651 23.0232 8.36461 23.1451 8.36461 23.3889C8.36461 23.4111 8.34244 23.5552 8.29811 23.8212C8.2316 24.1316 8.1651 24.3311 8.0986 24.4197C8.0321 24.5084 7.88801 24.5527 7.66633 24.5527C7.622 24.5527 7.48899 24.5527 7.26732 24.5527C7.04564 24.5527 6.6688 24.5417 6.13678 24.5195C5.60476 24.4973 4.8954 24.4862 4.0087 24.4862C2.43481 24.4862 1.42619 24.5084 0.982838 24.5527H0.716828C0.561656 24.3976 0.48407 24.2756 0.48407 24.187C0.528405 23.5884 0.672493 23.2005 0.916336 23.0232H1.38185C2.93358 22.9567 4.06412 22.4025 4.77348 21.3606C4.90648 21.2276 6.91264 17.8471 10.7919 11.219C14.6713 4.59092 16.6442 1.23255 16.7107 1.14388C16.8658 0.877869 17.1318 0.744865 17.5087 0.744865H17.7747H18.34C18.473 0.944372 18.5395 1.05521 18.5395 1.07738L19.4705 11.8175C20.0912 18.9776 20.4237 22.5909 20.4681 22.6574C20.5789 22.9013 21.2993 23.0232 22.6294 23.0232C23.1836 23.0232 23.4607 23.134 23.4607 23.3557C23.4607 23.4 23.4274 23.5552 23.3609 23.8212C23.2944 24.1537 23.239 24.3532 23.1947 24.4197C23.1503 24.4862 22.9951 24.5306 22.7291 24.5527C22.6626 24.5527 22.5075 24.5527 22.2636 24.5527C22.0198 24.5527 21.5875 24.5417 20.9668 24.5195C20.3461 24.4973 19.537 24.4862 18.5395 24.4862C16.4557 24.4862 15.0924 24.5084 14.4496 24.5527H14.0506C13.9176 24.4197 13.8511 24.32 13.8511 24.2535C13.8511 24.187 13.8732 23.9875 13.9176 23.655C14.0062 23.3668 14.0727 23.1894 14.1171 23.1229L14.2501 23.0232H14.9151C16.1121 22.9567 16.8215 22.7683 17.0432 22.4579L16.6442 17.4702H8.73037L7.59983 19.3988C6.69096 20.9284 6.23653 21.8261 6.23653 22.0921ZM16.4779 15.9074C16.4779 15.6636 16.3449 13.9345 16.0789 10.7202C15.8129 7.50595 15.6577 5.88772 15.6134 5.86555L14.7156 7.29535C14.3609 7.89388 13.6626 9.07984 12.6208 10.8532L9.62815 15.9074L13.053 15.9407C15.3363 15.9407 16.4779 15.9296 16.4779 15.9074Z" fill="#102C57"/>
<path d="M26.886 23.1235C26.753 23.1235 26.4537 23.057 25.9882 22.924C25.5227 22.791 25.2788 22.658 25.2567 22.525C25.2567 22.3698 25.8663 19.7984 27.0855 14.8107C28.3047 9.82304 28.9808 7.21836 29.1138 6.99669C29.4463 6.28733 30.0227 5.93265 30.8429 5.93265C31.2862 5.93265 31.7517 6.0989 32.2394 6.43142C32.7271 6.76393 32.9709 7.25161 32.9709 7.89447C32.9709 8.00531 32.9488 8.17156 32.9044 8.39324C32.8823 8.54841 31.918 11.0201 30.0116 15.8083C28.1052 20.5964 27.1187 23.0127 27.0522 23.057C26.9857 23.1014 26.9303 23.1235 26.886 23.1235Z" fill="#102C57"/>
<path d="M41.56 21.5937C41.4033 21.5937 40.988 21.5075 40.3141 21.3351C39.6402 21.1627 39.1465 21.0765 38.833 21.0765C38.5196 21.0765 38.2532 21.1079 38.0337 21.1706C37.8143 21.2332 37.6341 21.3116 37.493 21.4056C37.352 21.4997 37.258 21.5859 37.2109 21.6642C37.1639 21.7426 37.1091 21.8288 37.0464 21.9228L36.9994 22.0169C36.9523 22.0639 36.8348 22.0874 36.6467 22.0874C36.3176 22.0874 36.153 22.0247 36.153 21.8993C36.153 21.821 36.1766 21.7113 36.2236 21.5702C36.4273 20.959 36.7643 20.434 37.2344 19.9951C37.7046 19.5563 38.2218 19.2899 38.786 19.1958C38.9741 19.1645 39.1073 19.1488 39.1857 19.1488C39.5775 19.1488 39.9301 19.282 40.2435 19.5485C40.557 19.8149 40.8548 20.0735 41.1369 20.3243C41.419 20.575 41.7168 20.7082 42.0302 20.7239C42.375 20.7239 42.7198 20.4653 43.0646 19.9481C43.4094 19.4309 43.5896 19.1723 43.6053 19.1723C43.621 19.1567 43.7385 19.1488 43.9579 19.1488H44.2635C44.3576 19.2429 44.4046 19.3055 44.4046 19.3369C44.4046 19.3996 44.3654 19.5093 44.287 19.666C44.2087 19.8227 44.099 19.9873 43.9579 20.1597C43.8169 20.3321 43.6836 20.5045 43.5583 20.6769C43.4329 20.8493 43.3232 20.9982 43.2291 21.1235L43.0646 21.3351C42.3907 22.1344 41.3249 23.1923 39.8674 24.5088C38.4099 25.8253 37.5087 26.6716 37.1639 27.0477L36.8818 27.3298L37.2344 27.3533C37.5792 27.3533 38.0808 27.4395 38.739 27.6119C39.3972 27.7843 39.8909 27.8705 40.22 27.8705C40.8156 27.8705 41.3641 27.7216 41.8656 27.4238C42.3672 27.1261 42.6963 26.7343 42.853 26.2484C42.9157 26.1074 42.9705 26.0212 43.0176 25.9898C43.0646 25.9585 43.1821 25.9428 43.3702 25.9428C43.668 25.9428 43.8169 26.0212 43.8169 26.1779C43.8169 26.2563 43.809 26.3268 43.7933 26.3895C43.5269 27.3612 43.0097 28.1683 42.2418 28.8109C41.4738 29.4534 40.7059 29.7825 39.9379 29.7982C39.5305 29.7982 39.17 29.665 38.8565 29.3986C38.5431 29.1321 38.2375 28.8657 37.9397 28.5993C37.6419 28.3328 37.3442 28.1996 37.0464 28.1996C36.3568 28.1996 35.7377 28.6698 35.1892 29.6101C35.0952 29.7355 34.9619 29.7982 34.7895 29.7982H34.672H34.3664C34.2724 29.7042 34.2253 29.6337 34.2253 29.5866C34.2253 29.3516 34.6798 28.6776 35.5888 27.5649C36.2001 26.8596 37.2344 25.8409 38.692 24.5088C40.1495 23.1766 41.0507 22.3303 41.3955 21.9699C41.5835 21.7191 41.6384 21.5937 41.56 21.5937Z" fill="#102C57"/>
</svg>
