<svg width="10" height="11" viewBox="0 0 10 11" fill="none" xmlns="http://www.w3.org/2000/svg">
<path d="M7.02859 2.4121C6.88167 2.4121 6.49233 2.3313 5.86057 2.16968C5.22882 2.00807 4.76602 1.92726 4.47217 1.92726C4.17833 1.92726 3.92857 1.95665 3.72288 2.01542C3.51719 2.07419 3.34823 2.14765 3.216 2.2358C3.08378 2.32395 2.99562 2.40476 2.95155 2.47822C2.90747 2.55168 2.85605 2.63248 2.79728 2.72064L2.7532 2.80879C2.70913 2.85286 2.59894 2.8749 2.42263 2.8749C2.1141 2.8749 1.95983 2.81613 1.95983 2.6986C1.95983 2.62514 1.98187 2.52229 2.02595 2.39006C2.21694 1.81707 2.53282 1.32489 2.97358 0.913513C3.41435 0.502135 3.89918 0.25237 4.4281 0.164218C4.6044 0.134833 4.72929 0.120142 4.80275 0.120142C5.17005 0.120142 5.50062 0.245024 5.79446 0.494789C6.0883 0.744555 6.36745 0.986973 6.63191 1.22205C6.89636 1.45712 7.17551 1.582 7.46935 1.59669C7.79258 1.59669 8.1158 1.35427 8.43903 0.869436C8.76225 0.384599 8.93121 0.142179 8.94591 0.142179C8.9606 0.127488 9.07079 0.120142 9.27648 0.120142H9.56297C9.65112 0.208294 9.6952 0.267062 9.6952 0.296447C9.6952 0.355215 9.65847 0.458059 9.58501 0.60498C9.51155 0.7519 9.4087 0.906167 9.27648 1.06778C9.14425 1.22939 9.01937 1.391 8.90183 1.55262C8.78429 1.71423 8.68145 1.8538 8.5933 1.97134L8.43903 2.16968C7.80727 2.91898 6.80821 3.91069 5.44185 5.14482C4.07549 6.37896 3.2307 7.17233 2.90747 7.52494L2.64301 7.78939L2.97358 7.81143C3.29681 7.81143 3.76696 7.89224 4.38402 8.05385C5.00109 8.21546 5.46389 8.29627 5.77242 8.29627C6.33072 8.29627 6.84494 8.1567 7.31509 7.87755C7.78523 7.5984 8.09377 7.2311 8.24069 6.77564C8.29945 6.64341 8.35088 6.56261 8.39495 6.53322C8.43903 6.50384 8.54922 6.48915 8.72552 6.48915C9.00467 6.48915 9.14425 6.56261 9.14425 6.70953C9.14425 6.78299 9.1369 6.8491 9.12221 6.90787C8.87245 7.81878 8.38761 8.57542 7.6677 9.17779C6.94779 9.78017 6.22788 10.0887 5.50796 10.1034C5.12597 10.1034 4.78805 9.97851 4.49421 9.72875C4.20037 9.47898 3.91388 9.22922 3.63473 8.97945C3.35558 8.72969 3.07643 8.6048 2.79728 8.6048C2.15083 8.6048 1.57049 9.04557 1.05627 9.92709C0.968119 10.0446 0.843237 10.1034 0.681624 10.1034H0.571434H0.284938C0.196786 10.0152 0.15271 9.94913 0.15271 9.90505C0.15271 9.68467 0.57878 9.05291 1.43092 8.00978C2.00391 7.34863 2.97358 6.39365 4.33995 5.14482C5.70631 3.896 6.5511 3.10263 6.87433 2.76471C7.05063 2.52964 7.10205 2.4121 7.02859 2.4121Z" fill="black"/>
</svg>
