<svg width="15" height="6" viewBox="0 0 15 6" fill="none" xmlns="http://www.w3.org/2000/svg">
<path d="M0.295471 1.21378C0.295471 1.02279 0.398316 0.875865 0.604004 0.77302H14.6423C14.8626 0.890556 14.9728 1.03748 14.9728 1.21378C14.9728 1.37539 14.87 1.51497 14.6643 1.63251L7.65619 1.65454H0.648081C0.413008 1.58108 0.295471 1.43416 0.295471 1.21378ZM0.295471 5.48917C0.295471 5.26879 0.413008 5.12187 0.648081 5.04841H14.6643C14.87 5.19533 14.9728 5.34225 14.9728 5.48917C14.9728 5.68017 14.8626 5.82709 14.6423 5.92993H0.604004C0.398316 5.82709 0.295471 5.68017 0.295471 5.48917Z" fill="black"/>
</svg>
