<svg width="228" height="69" viewBox="0 0 228 69" fill="none" xmlns="http://www.w3.org/2000/svg">
<path d="M15.3318 1.08559C15.3537 1.08559 16.1433 1.03076 17.7006 0.921091C19.2579 0.811422 20.0585 0.745621 20.1024 0.723686C20.3656 0.723686 20.4972 0.811422 20.4972 0.986893C20.4972 1.14043 19.6966 4.45245 18.0955 10.9229C16.4943 17.3934 15.6718 20.6945 15.6279 20.8261C15.584 20.9577 15.5731 21.1222 15.595 21.3196C15.595 22.2408 15.9021 22.7014 16.5162 22.7014C16.7136 22.6795 16.933 22.5808 17.1742 22.4053C17.6348 21.9666 18.0845 20.9138 18.5232 19.2468C18.6548 18.8082 18.7644 18.5779 18.8522 18.5559C18.896 18.534 19.0057 18.523 19.1812 18.523H19.3128H19.4444C19.7734 18.523 19.9379 18.6108 19.9379 18.7862C19.9379 18.8959 19.905 19.0714 19.8392 19.3127C19.5541 20.4093 19.225 21.2977 18.8522 21.9776C18.4793 22.6576 18.1722 23.0962 17.9309 23.2936C17.6897 23.4911 17.3826 23.6665 17.0097 23.8201C16.8343 23.8639 16.571 23.8859 16.2201 23.8859C15.4744 23.8859 14.8492 23.7214 14.3448 23.3924C13.8403 23.0633 13.5113 22.7234 13.3577 22.3724L13.1603 21.8789C13.1384 21.857 13.0945 21.8679 13.0287 21.9118C12.9849 21.9557 12.941 21.9996 12.8971 22.0434C11.603 23.2717 10.287 23.8859 8.94902 23.8859C7.74266 23.8859 6.67887 23.4472 5.75764 22.5698C4.83642 21.6925 4.37581 20.2997 4.37581 18.3914C4.37581 17.3386 4.59515 16.2638 5.03383 15.1671C5.4725 14.0705 5.99892 13.1273 6.61306 12.3377C7.64396 11.0874 8.67485 10.2211 9.70574 9.73851C10.7366 9.25597 11.6688 9.01469 12.5023 9.01469C13.7306 9.01469 14.6518 9.4753 15.266 10.3965C15.3757 10.5281 15.4305 10.572 15.4305 10.5281C15.4524 10.4404 15.7485 9.245 16.3188 6.94194C16.8891 4.63888 17.1962 3.42155 17.24 3.28995C17.24 3.00481 17.1633 2.82934 17.0097 2.76354C16.8562 2.69773 16.4285 2.6429 15.7266 2.59903H15.0357C14.9041 2.46743 14.8383 2.37969 14.8383 2.33583C14.8383 2.29196 14.8602 2.08359 14.9041 1.71071C15.0137 1.29397 15.1563 1.08559 15.3318 1.08559ZM14.8712 12.8312C14.3667 11.0984 13.5442 10.232 12.4036 10.232C11.6359 10.232 10.9011 10.572 10.1993 11.2519C9.49737 11.9319 8.94902 12.8202 8.55421 13.9169C7.91813 15.6497 7.46849 17.4483 7.20528 19.3127C7.20528 19.3785 7.20528 19.4991 7.20528 19.6746C7.20528 19.85 7.19431 19.9816 7.17238 20.0694C7.17238 21.0564 7.36978 21.7363 7.76459 22.1092C8.1594 22.4821 8.63098 22.6795 9.17933 22.7014C10.3638 22.7014 11.5811 21.9118 12.8313 20.3326L13.0945 19.9707L14.8712 12.8312Z" fill="#102C57"/>
<path d="M27.242 21.1223C27.242 21.6488 27.7464 21.9558 28.7554 22.0436C29.1502 22.0436 29.3476 22.1642 29.3476 22.4055C29.3476 22.4274 29.3257 22.57 29.2818 22.8332C29.216 23.1403 29.1502 23.3377 29.0844 23.4254C29.0186 23.5131 28.876 23.557 28.6567 23.557C28.6128 23.557 28.4812 23.557 28.2619 23.557C28.0425 23.557 27.6697 23.546 27.1433 23.5241C26.6168 23.5022 25.915 23.4912 25.0376 23.4912C23.4803 23.4912 22.4823 23.5131 22.0436 23.557H21.7804C21.6269 23.4035 21.5501 23.2828 21.5501 23.1951C21.594 22.6029 21.7365 22.219 21.9778 22.0436H22.4384C23.9738 21.9778 25.0924 21.4294 25.7943 20.3985C25.9259 20.2669 27.9109 16.922 31.7494 10.3638C35.5878 3.80556 37.5399 0.482582 37.6057 0.394848C37.7593 0.131641 38.0225 3.8147e-05 38.3953 3.8147e-05H38.6585H39.2179C39.3495 0.197443 39.4153 0.307112 39.4153 0.329046L40.3365 10.956C40.9506 18.0406 41.2796 21.6159 41.3235 21.6817C41.4332 21.9229 42.146 22.0436 43.4621 22.0436C44.0104 22.0436 44.2846 22.1532 44.2846 22.3726C44.2846 22.4164 44.2517 22.57 44.1859 22.8332C44.1201 23.1622 44.0652 23.3596 44.0214 23.4254C43.9775 23.4912 43.824 23.5351 43.5608 23.557C43.495 23.557 43.3414 23.557 43.1002 23.557C42.8589 23.557 42.4312 23.546 41.817 23.5241C41.2029 23.5022 40.4023 23.4912 39.4153 23.4912C37.3535 23.4912 36.0045 23.5131 35.3685 23.557H34.9737C34.842 23.4254 34.7762 23.3267 34.7762 23.2609C34.7762 23.1951 34.7982 22.9977 34.842 22.6687C34.9298 22.3835 34.9956 22.2081 35.0395 22.1423L35.1711 22.0436H35.8291C37.0135 21.9778 37.7154 21.7913 37.9347 21.4843L37.5399 16.5491H29.7095L28.5909 18.4574C27.6916 19.9708 27.242 20.8591 27.242 21.1223ZM37.3754 15.0028C37.3754 14.7615 37.2438 13.0507 36.9806 9.87028C36.7174 6.68987 36.5639 5.08869 36.52 5.06676L35.6317 6.48149C35.2807 7.07371 34.5898 8.24717 33.5589 10.0019L30.5978 15.0028L33.9866 15.0357C36.2458 15.0357 37.3754 15.0247 37.3754 15.0028Z" fill="#102C57"/>
<path d="M21.731 45.8999C21.753 45.8999 22.5426 45.8451 24.0999 45.7354C25.6572 45.6258 26.4578 45.56 26.5016 45.538C26.7649 45.538 26.8965 45.6258 26.8965 45.8012C26.8965 45.9548 26.0959 49.2668 24.4947 55.7373C22.8935 62.2078 22.071 65.5088 22.0271 65.6404C21.9833 65.772 21.9723 65.9365 21.9942 66.1339C21.9942 67.0552 22.3013 67.5158 22.9155 67.5158C23.1129 67.4938 23.3322 67.3951 23.5735 67.2197C24.0341 66.781 24.4837 65.7282 24.9224 64.0612C25.054 63.6225 25.1637 63.3922 25.2514 63.3703C25.2953 63.3483 25.405 63.3374 25.5804 63.3374H25.712H25.8436C26.1726 63.3374 26.3371 63.4251 26.3371 63.6006C26.3371 63.7102 26.3042 63.8857 26.2384 64.127C25.9533 65.2237 25.6243 66.112 25.2514 66.7919C24.8785 67.4719 24.5715 67.9106 24.3302 68.108C24.0889 68.3054 23.7818 68.4809 23.409 68.6344C23.2335 68.6783 22.9703 68.7002 22.6194 68.7002C21.8736 68.7002 21.2485 68.5357 20.744 68.2067C20.2395 67.8777 19.9105 67.5377 19.757 67.1868L19.5596 66.6932C19.5376 66.6713 19.4938 66.6823 19.428 66.7261C19.3841 66.77 19.3402 66.8139 19.2964 66.8577C18.0023 68.086 16.6862 68.7002 15.3483 68.7002C14.1419 68.7002 13.0781 68.2615 12.1569 67.3842C11.2357 66.5068 10.7751 65.114 10.7751 63.2058C10.7751 62.1529 10.9944 61.0782 11.4331 59.9815C11.8717 58.8848 12.3982 57.9416 13.0123 57.152C14.0432 55.9018 15.0741 55.0354 16.105 54.5528C17.1359 54.0703 18.0681 53.829 18.9016 53.829C20.1299 53.829 21.0511 54.2896 21.6652 55.2109C21.7749 55.3425 21.8297 55.3863 21.8297 55.3425C21.8517 55.2547 22.1478 54.0593 22.7181 51.7563C23.2883 49.4532 23.5954 48.2359 23.6393 48.1043C23.6393 47.8191 23.5625 47.6437 23.409 47.5779C23.2554 47.5121 22.8277 47.4572 22.1258 47.4134H21.4349C21.3033 47.2818 21.2375 47.194 21.2375 47.1502C21.2375 47.1063 21.2595 46.8979 21.3033 46.525C21.413 46.1083 21.5556 45.8999 21.731 45.8999ZM21.2704 57.6455C20.7659 55.9127 19.9434 55.0464 18.8029 55.0464C18.0352 55.0464 17.3004 55.3863 16.5985 56.0663C15.8966 56.7462 15.3483 57.6346 14.9535 58.7312C14.3174 60.464 13.8677 62.2626 13.6045 64.127C13.6045 64.1928 13.6045 64.3134 13.6045 64.4889C13.6045 64.6644 13.5936 64.796 13.5716 64.8837C13.5716 65.8707 13.769 66.5507 14.1638 66.9236C14.5586 67.2964 15.0302 67.4938 15.5786 67.5158C16.763 67.5158 17.9803 66.7261 19.2306 65.1469L19.4938 64.785L21.2704 57.6455Z" fill="#102C57"/>
<path d="M27.6532 55.7013C27.4996 55.5477 27.4229 55.4381 27.4229 55.3723C27.4229 55.2845 27.4558 55.109 27.5216 54.8458C27.5874 54.5826 27.6422 54.4291 27.6861 54.3852C27.7299 54.2756 27.8286 54.2207 27.9822 54.2207C28.1357 54.2207 28.695 54.2098 29.6601 54.1878H31.4039L32.029 51.5558C32.0948 51.3145 32.1715 50.9964 32.2593 50.6016C32.347 50.2068 32.4238 49.9217 32.4896 49.7462C32.5554 49.5707 32.6212 49.3514 32.687 49.0882C32.7528 48.825 32.8405 48.6386 32.9502 48.5289C33.0599 48.4192 33.1695 48.2876 33.2792 48.1341C33.3889 47.9805 33.5424 47.8818 33.7398 47.838C33.9372 47.7941 34.1346 47.7722 34.332 47.7722C34.7268 47.7941 35.001 47.9147 35.1546 48.1341C35.3081 48.3534 35.3849 48.5618 35.3849 48.7592C35.3849 48.9127 35.2862 49.4282 35.0888 50.3055C34.8913 51.1829 34.672 52.0493 34.4307 52.9047L34.1017 54.122C34.1017 54.1659 34.6501 54.1878 35.7468 54.1878H37.4247C37.5782 54.3414 37.655 54.462 37.655 54.5497C37.655 55.0323 37.5124 55.4161 37.2273 55.7013H33.7069L32.5225 60.4719C31.6671 63.9813 31.2394 65.8676 31.2394 66.1308C31.2394 67.052 31.5355 67.5127 32.1277 67.5127C32.8954 67.5127 33.6411 67.1398 34.3649 66.394C35.0888 65.6483 35.67 64.727 36.1087 63.6304C36.1525 63.4988 36.2074 63.422 36.2732 63.4C36.339 63.3781 36.5035 63.3562 36.7667 63.3342H36.8983C37.2273 63.3342 37.3918 63.422 37.3918 63.5975C37.3918 63.6633 37.3589 63.7949 37.2931 63.9923C37.1834 64.3432 36.986 64.7599 36.7009 65.2425C36.4158 65.725 36.0429 66.2405 35.5823 66.7888C35.1217 67.3372 34.5623 67.7978 33.9043 68.1707C33.2463 68.5435 32.5773 68.73 31.8974 68.73C31.2394 68.73 30.6142 68.5655 30.022 68.2365C29.4298 67.9075 29.0021 67.3372 28.7389 66.5256C28.695 66.3502 28.6731 66.054 28.6731 65.6373V65.0451L29.8246 60.439C30.5923 57.3463 30.9871 55.789 31.009 55.7671C31.009 55.7232 30.4497 55.7013 29.3311 55.7013H27.6532Z" fill="#102C57"/>
<path d="M48.3642 38.559H0V36.5849H48.3642V38.559Z" fill="#102C57"/>
<path d="M63.2947 34.3815C63.2947 34.0963 63.4482 33.877 63.7553 33.7235H84.7131C85.0421 33.8989 85.2066 34.1183 85.2066 34.3815C85.2066 34.6227 85.0531 34.8311 84.746 35.0066L74.2835 35.0395H63.8211C63.4701 34.9298 63.2947 34.7105 63.2947 34.3815ZM63.2947 40.7642C63.2947 40.4352 63.4701 40.2159 63.8211 40.1062H84.746C85.0531 40.3255 85.2066 40.5449 85.2066 40.7642C85.2066 41.0494 85.0421 41.2687 84.7131 41.4222H63.7553C63.4482 41.2687 63.2947 41.0494 63.2947 40.7642Z" fill="#102C57"/>
<path d="M115.469 1.08559C115.491 1.08559 116.28 1.03076 117.838 0.921091C119.395 0.811422 120.196 0.745621 120.239 0.723686C120.503 0.723686 120.634 0.811422 120.634 0.986893C120.634 1.14043 119.834 4.45245 118.233 10.9229C116.631 17.3934 115.809 20.6945 115.765 20.8261C115.721 20.9577 115.71 21.1222 115.732 21.3196C115.732 22.2408 116.039 22.7014 116.653 22.7014C116.851 22.6795 117.07 22.5808 117.311 22.4053C117.772 21.9666 118.222 20.9138 118.66 19.2468C118.792 18.8082 118.901 18.5779 118.989 18.5559C119.033 18.534 119.143 18.523 119.318 18.523H119.45H119.581C119.91 18.523 120.075 18.6108 120.075 18.7862C120.075 18.8959 120.042 19.0714 119.976 19.3127C119.691 20.4093 119.362 21.2977 118.989 21.9776C118.616 22.6576 118.309 23.0962 118.068 23.2936C117.827 23.4911 117.52 23.6665 117.147 23.8201C116.971 23.8639 116.708 23.8859 116.357 23.8859C115.611 23.8859 114.986 23.7214 114.482 23.3924C113.977 23.0633 113.648 22.7234 113.495 22.3724L113.297 21.8789C113.275 21.857 113.232 21.8679 113.166 21.9118C113.122 21.9557 113.078 21.9996 113.034 22.0434C111.74 23.2717 110.424 23.8859 109.086 23.8859C107.88 23.8859 106.816 23.4472 105.895 22.5698C104.973 21.6925 104.513 20.2997 104.513 18.3914C104.513 17.3386 104.732 16.2638 105.171 15.1671C105.61 14.0705 106.136 13.1273 106.75 12.3377C107.781 11.0874 108.812 10.2211 109.843 9.73851C110.874 9.25597 111.806 9.01469 112.639 9.01469C113.868 9.01469 114.789 9.4753 115.403 10.3965C115.513 10.5281 115.568 10.572 115.568 10.5281C115.589 10.4404 115.886 9.245 116.456 6.94194C117.026 4.63888 117.333 3.42155 117.377 3.28995C117.377 3.00481 117.3 2.82934 117.147 2.76354C116.993 2.69773 116.566 2.6429 115.864 2.59903H115.173C115.041 2.46743 114.975 2.37969 114.975 2.33583C114.975 2.29196 114.997 2.08359 115.041 1.71071C115.151 1.29397 115.293 1.08559 115.469 1.08559ZM115.008 12.8312C114.504 11.0984 113.681 10.232 112.541 10.232C111.773 10.232 111.038 10.572 110.336 11.2519C109.634 11.9319 109.086 12.8202 108.691 13.9169C108.055 15.6497 107.606 17.4483 107.342 19.3127C107.342 19.3785 107.342 19.4991 107.342 19.6746C107.342 19.85 107.331 19.9816 107.309 20.0694C107.309 21.0564 107.507 21.7363 107.902 22.1092C108.296 22.4821 108.768 22.6795 109.316 22.7014C110.501 22.7014 111.718 21.9118 112.968 20.3326L113.232 19.9707L115.008 12.8312Z" fill="#102C57"/>
<path d="M127.379 21.1223C127.379 21.6488 127.883 21.9558 128.892 22.0436C129.287 22.0436 129.485 22.1642 129.485 22.4055C129.485 22.4274 129.463 22.57 129.419 22.8332C129.353 23.1403 129.287 23.3377 129.221 23.4254C129.156 23.5131 129.013 23.557 128.794 23.557C128.75 23.557 128.618 23.557 128.399 23.557C128.179 23.557 127.807 23.546 127.28 23.5241C126.754 23.5022 126.052 23.4912 125.175 23.4912C123.617 23.4912 122.619 23.5131 122.181 23.557H121.917C121.764 23.4035 121.687 23.2828 121.687 23.1951C121.731 22.6029 121.873 22.219 122.115 22.0436H122.575C124.111 21.9778 125.229 21.4294 125.931 20.3985C126.063 20.2669 128.048 16.922 131.886 10.3638C135.725 3.80556 137.677 0.482582 137.743 0.394848C137.896 0.131641 138.159 3.8147e-05 138.532 3.8147e-05H138.795H139.355C139.486 0.197443 139.552 0.307112 139.552 0.329046L140.473 10.956C141.088 18.0406 141.417 21.6159 141.46 21.6817C141.57 21.9229 142.283 22.0436 143.599 22.0436C144.147 22.0436 144.422 22.1532 144.422 22.3726C144.422 22.4164 144.389 22.57 144.323 22.8332C144.257 23.1622 144.202 23.3596 144.158 23.4254C144.114 23.4912 143.961 23.5351 143.698 23.557C143.632 23.557 143.478 23.557 143.237 23.557C142.996 23.557 142.568 23.546 141.954 23.5241C141.34 23.5022 140.539 23.4912 139.552 23.4912C137.49 23.4912 136.141 23.5131 135.505 23.557H135.111C134.979 23.4254 134.913 23.3267 134.913 23.2609C134.913 23.1951 134.935 22.9977 134.979 22.6687C135.067 22.3835 135.133 22.2081 135.176 22.1423L135.308 22.0436H135.966C137.15 21.9778 137.852 21.7913 138.072 21.4843L137.677 16.5491H129.846L128.728 18.4574C127.829 19.9708 127.379 20.8591 127.379 21.1223ZM137.512 15.0028C137.512 14.7615 137.381 13.0507 137.118 9.87028C136.854 6.68987 136.701 5.08869 136.657 5.06676L135.769 6.48149C135.418 7.07371 134.727 8.24717 133.696 10.0019L130.735 15.0028L134.124 15.0357C136.383 15.0357 137.512 15.0247 137.512 15.0028Z" fill="#102C57"/>
<path d="M147.81 22.1437C147.679 22.1437 147.383 22.0779 146.922 21.9463C146.461 21.8147 146.22 21.6831 146.198 21.5515C146.198 21.3979 146.801 18.8536 148.008 13.9185C149.214 8.98334 149.883 6.40611 150.015 6.18677C150.344 5.48489 150.914 5.13395 151.725 5.13395C152.164 5.13395 152.625 5.29845 153.107 5.62746C153.59 5.95647 153.831 6.43901 153.831 7.0751C153.831 7.18476 153.809 7.34927 153.765 7.56861C153.743 7.72215 152.789 10.1678 150.903 14.9055C149.017 19.6432 148.041 22.034 147.975 22.0779C147.909 22.1217 147.854 22.1437 147.81 22.1437Z" fill="#102C57"/>
<path d="M126.392 45.8999C126.414 45.8999 127.203 45.8451 128.761 45.7354C130.318 45.6258 131.118 45.56 131.162 45.538C131.426 45.538 131.557 45.6258 131.557 45.8012C131.557 45.9548 130.757 49.2668 129.155 55.7373C127.554 62.2078 126.732 65.5088 126.688 65.6404C126.644 65.772 126.633 65.9365 126.655 66.1339C126.655 67.0552 126.962 67.5158 127.576 67.5158C127.774 67.4938 127.993 67.3951 128.234 67.2197C128.695 66.781 129.144 65.7282 129.583 64.0612C129.715 63.6225 129.824 63.3922 129.912 63.3703C129.956 63.3483 130.066 63.3374 130.241 63.3374H130.373H130.504C130.833 63.3374 130.998 63.4251 130.998 63.6006C130.998 63.7102 130.965 63.8857 130.899 64.127C130.614 65.2237 130.285 66.112 129.912 66.7919C129.539 67.4719 129.232 67.9106 128.991 68.108C128.75 68.3054 128.443 68.4809 128.07 68.6344C127.894 68.6783 127.631 68.7002 127.28 68.7002C126.534 68.7002 125.909 68.5357 125.405 68.2067C124.9 67.8777 124.571 67.5377 124.418 67.1868L124.22 66.6932C124.198 66.6713 124.154 66.6823 124.089 66.7261C124.045 66.77 124.001 66.8139 123.957 66.8577C122.663 68.086 121.347 68.7002 120.009 68.7002C118.803 68.7002 117.739 68.2615 116.818 67.3842C115.896 66.5068 115.436 65.114 115.436 63.2058C115.436 62.1529 115.655 61.0782 116.094 59.9815C116.532 58.8848 117.059 57.9416 117.673 57.152C118.704 55.9018 119.735 55.0354 120.766 54.5528C121.797 54.0703 122.729 53.829 123.562 53.829C124.791 53.829 125.712 54.2896 126.326 55.2109C126.436 55.3425 126.49 55.3863 126.49 55.3425C126.512 55.2547 126.808 54.0593 127.379 51.7563C127.949 49.4532 128.256 48.2359 128.3 48.1043C128.3 47.8191 128.223 47.6437 128.07 47.5779C127.916 47.5121 127.488 47.4572 126.787 47.4134H126.096C125.964 47.2818 125.898 47.194 125.898 47.1502C125.898 47.1063 125.92 46.8979 125.964 46.525C126.074 46.1083 126.216 45.8999 126.392 45.8999ZM125.931 57.6455C125.427 55.9127 124.604 55.0464 123.464 55.0464C122.696 55.0464 121.961 55.3863 121.259 56.0663C120.557 56.7462 120.009 57.6346 119.614 58.7312C118.978 60.464 118.528 62.2626 118.265 64.127C118.265 64.1928 118.265 64.3134 118.265 64.4889C118.265 64.6644 118.254 64.796 118.232 64.8837C118.232 65.8707 118.43 66.5507 118.825 66.9236C119.219 67.2964 119.691 67.4938 120.239 67.5158C121.424 67.5158 122.641 66.7261 123.891 65.1469L124.154 64.785L125.931 57.6455Z" fill="#102C57"/>
<path d="M132.314 55.7013C132.16 55.5477 132.084 55.4381 132.084 55.3723C132.084 55.2845 132.117 55.109 132.182 54.8458C132.248 54.5826 132.303 54.4291 132.347 54.3852C132.391 54.2756 132.489 54.2207 132.643 54.2207C132.796 54.2207 133.356 54.2098 134.321 54.1878H136.065L136.69 51.5558C136.756 51.3145 136.832 50.9964 136.92 50.6016C137.008 50.2068 137.085 49.9217 137.15 49.7462C137.216 49.5707 137.282 49.3514 137.348 49.0882C137.414 48.825 137.501 48.6386 137.611 48.5289C137.721 48.4192 137.83 48.2876 137.94 48.1341C138.05 47.9805 138.203 47.8818 138.401 47.838C138.598 47.7941 138.795 47.7722 138.993 47.7722C139.388 47.7941 139.662 47.9147 139.815 48.1341C139.969 48.3534 140.046 48.5618 140.046 48.7592C140.046 48.9127 139.947 49.4282 139.75 50.3055C139.552 51.1829 139.333 52.0493 139.092 52.9047L138.763 54.122C138.763 54.1659 139.311 54.1878 140.408 54.1878H142.085C142.239 54.3414 142.316 54.462 142.316 54.5497C142.316 55.0323 142.173 55.4161 141.888 55.7013H138.368L137.183 60.4719C136.328 63.9813 135.9 65.8676 135.9 66.1308C135.9 67.052 136.196 67.5127 136.788 67.5127C137.556 67.5127 138.302 67.1398 139.026 66.394C139.75 65.6483 140.331 64.727 140.769 63.6304C140.813 63.4988 140.868 63.422 140.934 63.4C141 63.3781 141.164 63.3562 141.427 63.3342H141.559C141.888 63.3342 142.053 63.422 142.053 63.5975C142.053 63.6633 142.02 63.7949 141.954 63.9923C141.844 64.3432 141.647 64.7599 141.362 65.2425C141.077 65.725 140.704 66.2405 140.243 66.7888C139.782 67.3372 139.223 67.7978 138.565 68.1707C137.907 68.5435 137.238 68.73 136.558 68.73C135.9 68.73 135.275 68.5655 134.683 68.2365C134.091 67.9075 133.663 67.3372 133.4 66.5256C133.356 66.3502 133.334 66.054 133.334 65.6373V65.0451L134.485 60.439C135.253 57.3463 135.648 55.789 135.67 55.7671C135.67 55.7232 135.111 55.7013 133.992 55.7013H132.314Z" fill="#102C57"/>
<path d="M157.549 38.559H100.137V36.5849H157.549V38.559Z" fill="#102C57"/>
<path d="M170.65 38.0021C170.65 38.0021 170.65 37.8595 170.65 37.5744C170.65 37.2892 170.804 37.0699 171.111 36.9163H180.948V31.9812L180.981 27.0461C181.2 26.761 181.409 26.6184 181.606 26.6184C181.891 26.6184 182.11 26.7829 182.264 27.1119V36.9163H192.068C192.397 37.0918 192.562 37.3112 192.562 37.5744C192.562 37.8376 192.397 38.0569 192.068 38.2324H182.264V48.0368C182.089 48.3439 181.891 48.4974 181.672 48.4974H181.606H181.54C181.277 48.4974 181.08 48.3439 180.948 48.0368V38.2324H171.111C170.804 38.0788 170.65 37.8595 170.65 37.5744V38.0021Z" fill="#102C57"/>
<path d="M203.426 24.4775C203.426 23.9949 203.569 23.6111 203.854 23.3259H204.216C205.137 23.3917 206.288 23.4246 207.67 23.4246C210.258 23.4246 211.783 23.3917 212.243 23.3259H212.572C212.704 23.4575 212.77 23.5562 212.77 23.622C212.77 23.6878 212.748 23.8852 212.704 24.2143C212.594 24.5433 212.496 24.7516 212.408 24.8394H211.717C211.234 24.8832 210.905 24.9052 210.73 24.9052C210.094 25.0148 209.743 25.1793 209.677 25.3987C209.677 25.4425 209.995 28.1952 210.631 33.6568C211.267 39.1183 211.596 41.871 211.618 41.9149L214.02 38.0655C215.621 35.4992 217.222 32.911 218.824 30.3009C220.425 27.6908 221.247 26.3418 221.291 26.2541C221.379 26.1006 221.423 25.9361 221.423 25.7606C221.423 25.2342 220.94 24.9271 219.975 24.8394C219.58 24.8394 219.383 24.7187 219.383 24.4775C219.383 24.4555 219.405 24.313 219.449 24.0497C219.514 23.7427 219.58 23.5453 219.646 23.4575C219.712 23.3698 219.854 23.3259 220.074 23.3259C220.118 23.3259 220.249 23.3259 220.469 23.3259C220.688 23.3259 221.061 23.3369 221.587 23.3588C222.114 23.3808 222.815 23.3917 223.693 23.3917C225.206 23.3917 226.16 23.3698 226.555 23.3259H226.786C226.939 23.4795 227.016 23.6001 227.016 23.6878C227.016 24.0607 226.917 24.4117 226.72 24.7407C226.654 24.8065 226.467 24.8394 226.16 24.8394C225.875 24.8613 225.612 24.8832 225.371 24.9052C225.13 24.9271 224.899 24.9819 224.68 25.0697C224.461 25.1574 224.285 25.2342 224.153 25.3C224.022 25.3658 223.89 25.4535 223.759 25.5632C223.627 25.6729 223.517 25.7496 223.43 25.7935C223.342 25.8374 223.254 25.9361 223.166 26.0896C223.079 26.2431 223.002 26.3199 222.936 26.3199L216.586 36.5192C212.638 42.9019 210.598 46.1701 210.467 46.3236C210.401 46.3675 210.324 46.4223 210.236 46.4881L209.644 46.521H209.414C209.019 46.521 208.822 46.4442 208.822 46.2907C208.756 46.1591 208.328 42.6497 207.539 35.7624C206.705 28.7875 206.277 25.2671 206.255 25.2013C206.146 24.96 205.466 24.8394 204.216 24.8394H203.656C203.503 24.7297 203.426 24.6091 203.426 24.4775Z" fill="#102C57"/>
</svg>
