<svg width="19" height="18" viewBox="0 0 19 18" fill="none" xmlns="http://www.w3.org/2000/svg">
<path d="M1.24918 6.04137C1.4246 4.98884 2.10122 3.77342 3.27906 2.3951C4.45689 1.01679 5.91039 0.315104 7.63955 0.290043C8.51666 0.290043 9.31859 0.515585 10.0453 0.966669C10.7721 1.41775 11.3109 1.98161 11.6617 2.65824C12.7143 1.07944 13.9798 0.290043 15.4584 0.290043C16.3856 0.290043 17.1875 0.565704 17.8641 1.11703C18.5408 1.66836 18.8916 2.40763 18.9167 3.33486C18.9167 4.06161 18.7413 4.65053 18.3904 5.10161C18.0396 5.55269 17.7013 5.82836 17.3755 5.9286C17.0497 6.02884 16.7615 6.07896 16.5109 6.07896C16.0347 6.07896 15.6463 5.94113 15.3456 5.66547C15.0449 5.3898 14.8945 5.02643 14.8945 4.57535C14.8945 3.42257 15.521 2.63318 16.774 2.20715C16.4984 1.88137 15.9972 1.71848 15.2704 1.71848C14.9446 1.71848 14.7065 1.74354 14.5562 1.79366C13.6039 2.19462 12.9022 3.02161 12.4511 4.27462C10.9475 9.81294 10.1957 13.0457 10.1957 13.9729C10.1957 14.6746 10.3962 15.1758 10.7971 15.4766C11.1981 15.7773 11.6367 15.9276 12.1128 15.9276C13.04 15.9276 13.9547 15.5141 14.8569 14.6872C15.7591 13.8602 16.3731 12.8452 16.6988 11.6423C16.774 11.3917 16.8492 11.2539 16.9244 11.2288C16.9996 11.2038 17.2 11.1787 17.5258 11.1537H17.6762C18.0521 11.1537 18.24 11.2539 18.24 11.4544C18.24 11.4794 18.215 11.6173 18.1649 11.8679C17.7639 13.2963 16.987 14.5619 15.8343 15.6645C14.6815 16.7672 13.3408 17.3185 11.8121 17.3185C10.0579 17.3185 8.72967 16.5291 7.8275 14.9503C6.80003 16.504 5.62219 17.2809 4.294 17.2809H4.06846C2.8405 17.2809 1.96339 16.9551 1.43713 16.3035C0.910861 15.652 0.635198 14.9628 0.610138 14.2361C0.610138 13.4341 0.848211 12.7826 1.32436 12.2814C1.8005 11.7802 2.36436 11.5296 3.01593 11.5296C4.09352 11.5296 4.63231 12.0558 4.63231 13.1084C4.63231 13.6096 4.48195 14.0481 4.18123 14.424C3.8805 14.7999 3.59231 15.0505 3.31665 15.1758C3.04099 15.3011 2.87809 15.3638 2.82797 15.3638L2.7152 15.4014C2.7152 15.4264 2.79038 15.4766 2.94074 15.5517C3.09111 15.6269 3.29159 15.7146 3.54219 15.8149C3.79279 15.9151 4.03087 15.9527 4.25641 15.9276C5.15858 15.9276 5.93545 15.3638 6.58702 14.2361C6.81256 13.8351 7.10075 12.9831 7.4516 11.6799C7.80244 10.3768 8.15328 9.02354 8.50413 7.62016C8.85497 6.21679 9.05545 5.3898 9.10557 5.1392C9.23088 4.46257 9.29353 3.9739 9.29353 3.67318C9.29353 2.97149 9.10557 2.47028 8.72967 2.16956C8.35377 1.86884 7.92774 1.71848 7.4516 1.71848C6.44918 1.71848 5.50942 2.11944 4.63231 2.92137C3.7552 3.7233 3.14123 4.75077 2.79038 6.00378C2.74026 6.22932 2.67761 6.35462 2.60243 6.37968C2.52725 6.40474 2.32677 6.4298 2.00098 6.45486H1.47472C1.32436 6.3045 1.24918 6.16667 1.24918 6.04137Z" fill="#102C57"/>
</svg>
