<svg width="23" height="23" viewBox="0 0 23 23" fill="none" xmlns="http://www.w3.org/2000/svg">
<path d="M0.248657 11.672C0.248657 11.672 0.248657 11.528 0.248657 11.2398C0.248657 10.9516 0.40383 10.7299 0.714174 10.5747H10.6563V5.58707L10.6895 0.599384C10.9112 0.311209 11.1218 0.16712 11.3213 0.16712C11.6095 0.16712 11.8312 0.333376 11.9863 0.665888V10.5747H21.8952C22.2277 10.7521 22.394 10.9738 22.394 11.2398C22.394 11.5058 22.2277 11.7275 21.8952 11.9048H11.9863V21.8137C11.809 22.124 11.6095 22.2792 11.3878 22.2792H11.3213H11.2548C10.9888 22.2792 10.7893 22.124 10.6563 21.8137V11.9048H0.714174C0.40383 11.7496 0.248657 11.528 0.248657 11.2398V11.672Z" fill="#102C57"/>
</svg>
