<svg width="19" height="25" viewBox="0 0 19 25" fill="none" xmlns="http://www.w3.org/2000/svg">
<path d="M0.712631 6.11563C0.712631 5.76479 0.900583 5.16335 1.27649 4.3113C1.65239 3.45925 2.25384 2.56961 3.08083 1.64238C3.90782 0.715149 4.83505 0.264063 5.86252 0.289124C6.88999 0.289124 7.71698 0.577316 8.34349 1.1537C8.97 1.73009 9.29578 2.53202 9.32084 3.55949C9.27072 4.03563 9.23313 4.29877 9.20807 4.34889C9.20807 4.42407 9.00759 5.00045 8.60662 6.07804C8.20566 7.15564 7.79216 8.37106 7.36614 9.72431C6.94011 11.0776 6.73963 12.1552 6.76469 12.9571C6.76469 14.0347 6.94011 14.7865 7.29096 15.2125C7.6418 15.6385 8.16807 15.8641 8.86975 15.8891C9.44614 15.8891 9.98494 15.7513 10.4861 15.4756C10.9873 15.2 11.3758 14.9118 11.6514 14.6111C11.9271 14.3103 12.2654 13.8968 12.6664 13.3706C12.6664 13.3455 12.729 13.0949 12.8543 12.6188C12.9796 12.1426 13.1551 11.4033 13.3806 10.4009C13.6061 9.39853 13.8442 8.4713 14.0948 7.61925C15.0471 3.86021 15.5734 1.89298 15.6736 1.71756C15.9994 1.04093 16.5382 0.702618 17.29 0.702618C17.6158 0.702618 17.8789 0.790329 18.0794 0.965752C18.2799 1.14117 18.4177 1.29153 18.4929 1.41684C18.5681 1.54214 18.5931 1.65491 18.5681 1.75515C18.5681 2.08093 17.9541 4.71226 16.7262 9.64913C15.4982 14.586 14.7965 17.2925 14.6211 17.7687C13.9194 19.8487 12.704 21.5026 10.9748 22.7306C9.24566 23.9585 7.5165 24.585 5.78734 24.6101C4.65963 24.6101 3.66975 24.3344 2.8177 23.7831C1.96565 23.2318 1.53962 22.4048 1.53962 21.3022C1.53962 20.7508 1.62733 20.2872 1.80275 19.9113C1.97818 19.5354 2.21625 19.2597 2.51697 19.0843C2.8177 18.9089 3.0683 18.7836 3.26878 18.7084C3.46926 18.6332 3.68228 18.5956 3.90782 18.5956C5.01047 18.5956 5.5618 19.1219 5.5618 20.1744C5.5618 20.6756 5.41144 21.1142 5.11071 21.4901C4.80999 21.866 4.5218 22.1166 4.24613 22.2419C3.97047 22.3672 3.80758 22.4299 3.75746 22.4299L3.64469 22.4675C3.69481 22.5928 3.93288 22.7431 4.3589 22.9185C4.78493 23.094 5.21095 23.1817 5.63698 23.1817H5.9377C6.36373 23.1817 6.68951 23.1566 6.91505 23.1065C7.74204 22.8809 8.50638 22.4048 9.20807 21.6781C9.90976 20.9513 10.4486 20.1744 10.8245 19.3475C11.2004 18.5205 11.4886 17.8188 11.689 17.2424C11.8895 16.666 11.9898 16.2901 11.9898 16.1147L11.7642 16.265C11.6139 16.3653 11.3758 16.5031 11.05 16.6785C10.7242 16.854 10.3984 17.0043 10.0726 17.1296C9.57144 17.2549 9.08277 17.3176 8.60662 17.3176C7.45385 17.3176 6.43891 17.0419 5.5618 16.4906C4.68469 15.9393 4.1083 15.0496 3.83264 13.8217C3.80758 13.6462 3.79505 13.2578 3.79505 12.6564C3.79505 11.2279 4.2336 9.36094 5.11071 7.0554C5.98782 4.74985 6.42638 3.28382 6.42638 2.65732C6.42638 2.63226 6.42638 2.6072 6.42638 2.58214C6.42638 2.3566 6.42638 2.20623 6.42638 2.13105C6.42638 2.05587 6.37626 1.96816 6.27602 1.86792C6.17577 1.76768 6.03794 1.71756 5.86252 1.71756H5.71216C5.13577 1.71756 4.60951 1.95563 4.13336 2.43178C3.65722 2.90792 3.28131 3.42166 3.00565 3.97298C2.72998 4.52431 2.51697 5.05057 2.36661 5.55178C2.21625 6.05298 2.11601 6.32865 2.06589 6.37877C2.01577 6.42889 1.81528 6.45395 1.46444 6.45395H0.938174C0.787812 6.30359 0.712631 6.19081 0.712631 6.11563Z" fill="#102C57"/>
</svg>
