<svg width="26" height="9" viewBox="0 0 26 9" fill="none" xmlns="http://www.w3.org/2000/svg">
<path d="M0.711555 0.859703C0.711555 0.533919 0.886977 0.283317 1.23782 0.107895H25.1829C25.5588 0.308377 25.7468 0.55898 25.7468 0.859703C25.7468 1.13537 25.5714 1.37344 25.2205 1.57392L13.2668 1.61151H1.313C0.912038 1.48621 0.711555 1.23561 0.711555 0.859703ZM0.711555 8.15224C0.711555 7.77634 0.912038 7.52574 1.313 7.40044H25.2205C25.5714 7.65104 25.7468 7.90164 25.7468 8.15224C25.7468 8.47803 25.5588 8.72863 25.1829 8.90405H1.23782C0.886977 8.72863 0.711555 8.47803 0.711555 8.15224Z" fill="#102C57"/>
</svg>
