<svg width="4" height="8" viewBox="0 0 4 8" fill="none" xmlns="http://www.w3.org/2000/svg">
<path d="M0.148621 4.97417C0.148621 4.18079 0.310233 3.42415 0.633458 2.70424C0.956684 1.98433 1.28725 1.44807 1.62517 1.09546C1.96309 0.742853 2.17612 0.566549 2.26428 0.566549C2.30835 0.566549 2.39651 0.632663 2.52873 0.764891C2.66096 0.89712 2.73442 0.992618 2.74911 1.05139C2.74911 1.09546 2.66096 1.213 2.48466 1.404C2.30835 1.59499 2.11736 1.82272 1.91167 2.08718C1.70598 2.35163 1.50029 2.73363 1.2946 3.23316C1.08891 3.73269 0.978722 4.2616 0.96403 4.8199C0.96403 4.9962 0.971376 5.08436 0.986068 5.08436C1.00076 5.08436 1.03749 5.06966 1.09626 5.04028C1.15503 5.0109 1.25052 4.96682 1.38275 4.90805C1.51498 4.84928 1.64721 4.82724 1.77944 4.84194C2.14674 4.84194 2.45527 4.96682 2.70504 5.21658C2.9548 5.46635 3.08703 5.78223 3.10172 6.16422C3.11642 6.54622 2.99153 6.86209 2.72708 7.11186C2.46262 7.36162 2.15409 7.49385 1.80148 7.50854C1.37541 7.50854 0.993414 7.31755 0.655497 6.93555C0.317579 6.55356 0.148621 5.89976 0.148621 4.97417Z" fill="black"/>
</svg>
