<svg width="11" height="11" viewBox="0 0 11 11" fill="none" xmlns="http://www.w3.org/2000/svg">
<path d="M0.475142 3.49197C0.577986 2.8749 0.974672 2.16234 1.6652 1.35427C2.35572 0.546211 3.20786 0.134833 4.22162 0.120142C4.73584 0.120142 5.20598 0.25237 5.63205 0.516828C6.05812 0.781284 6.374 1.11186 6.57969 1.50854C7.19676 0.582941 7.93871 0.120142 8.80554 0.120142C9.34914 0.120142 9.81929 0.281754 10.216 0.60498C10.6127 0.928205 10.8183 1.36162 10.833 1.90523C10.833 2.3313 10.7302 2.67656 10.5245 2.94102C10.3188 3.20547 10.1205 3.36709 9.92948 3.42585C9.73848 3.48462 9.56952 3.51401 9.4226 3.51401C9.14345 3.51401 8.91573 3.4332 8.73942 3.27159C8.56312 3.10997 8.47497 2.89694 8.47497 2.63248C8.47497 1.95665 8.84227 1.49385 9.57687 1.24408C9.41526 1.05309 9.12142 0.957589 8.69535 0.957589C8.50435 0.957589 8.36477 0.972281 8.27662 1.00167C7.71832 1.23674 7.30695 1.72158 7.04249 2.45618C6.16097 5.70312 5.72021 7.5984 5.72021 8.142C5.72021 8.55338 5.83774 8.84722 6.07281 9.02353C6.30789 9.19983 6.565 9.28798 6.84415 9.28798C7.38775 9.28798 7.92401 9.04557 8.45293 8.56073C8.98184 8.07589 9.3418 7.48086 9.53279 6.77564C9.57687 6.62872 9.62095 6.54792 9.66502 6.53322C9.7091 6.51853 9.82663 6.50384 10.0176 6.48915H10.1058C10.3262 6.48915 10.4364 6.54792 10.4364 6.66545C10.4364 6.68014 10.4217 6.76095 10.3923 6.90787C10.1572 7.74532 9.70175 8.48727 9.02592 9.13372C8.35008 9.78017 7.56406 10.1034 6.66784 10.1034C5.6394 10.1034 4.86072 9.64059 4.33181 8.71499C3.72943 9.6259 3.03891 10.0814 2.26023 10.0814H2.128C1.40809 10.0814 0.893865 9.89036 0.585332 9.50837C0.276799 9.12637 0.115186 8.72234 0.100494 8.29627C0.100494 7.82612 0.240069 7.44413 0.519218 7.15029C0.798367 6.85645 1.12894 6.70953 1.51093 6.70953C2.14269 6.70953 2.45857 7.01806 2.45857 7.63513C2.45857 7.92897 2.37042 8.18608 2.19411 8.40646C2.01781 8.62684 1.84885 8.77376 1.68724 8.84722C1.52562 8.92068 1.43013 8.95741 1.40074 8.95741L1.33463 8.97945C1.33463 8.99414 1.3787 9.02353 1.46686 9.0676C1.55501 9.11168 1.67254 9.1631 1.81946 9.22187C1.96639 9.28064 2.10596 9.30268 2.23819 9.28798C2.7671 9.28798 3.22256 8.95741 3.60455 8.29627C3.73678 8.0612 3.90574 7.56167 4.11143 6.79768C4.31711 6.03369 4.5228 5.24032 4.72849 4.41757C4.93418 3.59481 5.05172 3.10997 5.0811 2.96305C5.15456 2.56637 5.19129 2.27987 5.19129 2.10357C5.19129 1.69219 5.0811 1.39835 4.86072 1.22205C4.64034 1.04574 4.39057 0.957589 4.11143 0.957589C3.52374 0.957589 2.97279 1.19266 2.45857 1.66281C1.94435 2.13295 1.58439 2.73533 1.3787 3.46993C1.34932 3.60216 1.31259 3.67562 1.26851 3.69031C1.22444 3.705 1.1069 3.7197 0.915903 3.73439H0.60737C0.519218 3.64623 0.475142 3.56543 0.475142 3.49197Z" fill="black"/>
</svg>
