<svg width="23" height="23" viewBox="0 0 23 23" fill="none" xmlns="http://www.w3.org/2000/svg">
<path d="M0.0823669 11.672C0.0823669 11.672 0.0823669 11.528 0.0823669 11.2398C0.0823669 10.9516 0.237539 10.7299 0.547884 10.5747H10.49V5.58707L10.5233 0.599384C10.7449 0.311209 10.9555 0.16712 11.155 0.16712C11.4432 0.16712 11.6649 0.333376 11.82 0.665888V10.5747H21.7289C22.0614 10.7521 22.2277 10.9738 22.2277 11.2398C22.2277 11.5058 22.0614 11.7275 21.7289 11.9048H11.82V21.8137C11.6427 22.124 11.4432 22.2792 11.2215 22.2792H11.155H11.0885C10.8225 22.2792 10.623 22.124 10.49 21.8137V11.9048H0.547884C0.237539 11.7496 0.0823669 11.528 0.0823669 11.2398V11.672Z" fill="#102C57"/>
</svg>
