<svg width="19" height="18" viewBox="0 0 19 18" fill="none" xmlns="http://www.w3.org/2000/svg">
<path d="M1.08823 6.04137C1.26365 4.98884 1.94028 3.77342 3.11811 2.3951C4.29594 1.01679 5.74944 0.315104 7.4786 0.290043C8.35571 0.290043 9.15764 0.515585 9.88439 0.966669C10.6111 1.41775 11.1499 1.98161 11.5008 2.65824C12.5533 1.07944 13.8188 0.290043 15.2974 0.290043C16.2246 0.290043 17.0266 0.565704 17.7032 1.11703C18.3798 1.66836 18.7307 2.40763 18.7557 3.33486C18.7557 4.06161 18.5803 4.65053 18.2295 5.10161C17.8786 5.55269 17.5403 5.82836 17.2145 5.9286C16.8887 6.02884 16.6005 6.07896 16.3499 6.07896C15.8738 6.07896 15.4854 5.94113 15.1846 5.66547C14.8839 5.3898 14.7336 5.02643 14.7336 4.57535C14.7336 3.42257 15.3601 2.63318 16.6131 2.20715C16.3374 1.88137 15.8362 1.71848 15.1095 1.71848C14.7837 1.71848 14.5456 1.74354 14.3952 1.79366C13.4429 2.19462 12.7413 3.02161 12.2902 4.27462C10.7866 9.81294 10.0347 13.0457 10.0347 13.9729C10.0347 14.6746 10.2352 15.1758 10.6362 15.4766C11.0372 15.7773 11.4757 15.9276 11.9519 15.9276C12.8791 15.9276 13.7938 15.5141 14.696 14.6872C15.5981 13.8602 16.2121 12.8452 16.5379 11.6423C16.6131 11.3917 16.6883 11.2539 16.7634 11.2288C16.8386 11.2038 17.0391 11.1787 17.3649 11.1537H17.5152C17.8911 11.1537 18.0791 11.2539 18.0791 11.4544C18.0791 11.4794 18.054 11.6173 18.0039 11.8679C17.603 13.2963 16.8261 14.5619 15.6733 15.6645C14.5205 16.7672 13.1798 17.3185 11.6511 17.3185C9.89692 17.3185 8.56872 16.5291 7.66655 14.9503C6.63908 16.504 5.46125 17.2809 4.13305 17.2809H3.90751C2.67955 17.2809 1.80244 16.9551 1.27618 16.3035C0.749912 15.652 0.474249 14.9628 0.449188 14.2361C0.449188 13.4341 0.687261 12.7826 1.16341 12.2814C1.63955 11.7802 2.20341 11.5296 2.85498 11.5296C3.93257 11.5296 4.47136 12.0558 4.47136 13.1084C4.47136 13.6096 4.321 14.0481 4.02028 14.424C3.71956 14.7999 3.43136 15.0505 3.1557 15.1758C2.88004 15.3011 2.71714 15.3638 2.66702 15.3638L2.55425 15.4014C2.55425 15.4264 2.62943 15.4766 2.77979 15.5517C2.93016 15.6269 3.13064 15.7146 3.38124 15.8149C3.63184 15.9151 3.86992 15.9527 4.09546 15.9276C4.99763 15.9276 5.7745 15.3638 6.42607 14.2361C6.65161 13.8351 6.9398 12.9831 7.29065 11.6799C7.64149 10.3768 7.99233 9.02354 8.34318 7.62016C8.69402 6.21679 8.8945 5.3898 8.94462 5.1392C9.06993 4.46257 9.13258 3.9739 9.13258 3.67318C9.13258 2.97149 8.94462 2.47028 8.56872 2.16956C8.19282 1.86884 7.76679 1.71848 7.29065 1.71848C6.28823 1.71848 5.34847 2.11944 4.47136 2.92137C3.59425 3.7233 2.98028 4.75077 2.62943 6.00378C2.57931 6.22932 2.51666 6.35462 2.44148 6.37968C2.3663 6.40474 2.16582 6.4298 1.84003 6.45486H1.31377C1.16341 6.3045 1.08823 6.16667 1.08823 6.04137Z" fill="#102C57"/>
</svg>
