<svg width="4" height="8" viewBox="0 0 4 8" fill="none" xmlns="http://www.w3.org/2000/svg">
<path d="M0.345398 4.97417C0.345398 4.18079 0.507011 3.42415 0.830236 2.70424C1.15346 1.98433 1.48403 1.44807 1.82195 1.09546C2.15987 0.742853 2.3729 0.566549 2.46105 0.566549C2.50513 0.566549 2.59328 0.632663 2.72551 0.764891C2.85774 0.89712 2.9312 0.992618 2.94589 1.05139C2.94589 1.09546 2.85774 1.213 2.68143 1.404C2.50513 1.59499 2.31413 1.82272 2.10844 2.08718C1.90276 2.35163 1.69707 2.73363 1.49138 3.23316C1.28569 3.73269 1.1755 4.2616 1.16081 4.8199C1.16081 4.9962 1.16815 5.08436 1.18285 5.08436C1.19754 5.08436 1.23427 5.06966 1.29304 5.04028C1.3518 5.0109 1.4473 4.96682 1.57953 4.90805C1.71176 4.84928 1.84399 4.82724 1.97622 4.84194C2.34352 4.84194 2.65205 4.96682 2.90182 5.21658C3.15158 5.46635 3.28381 5.78223 3.2985 6.16422C3.31319 6.54622 3.18831 6.86209 2.92385 7.11186C2.6594 7.36162 2.35086 7.49385 1.99825 7.50854C1.57218 7.50854 1.19019 7.31755 0.852274 6.93555C0.514357 6.55356 0.345398 5.89976 0.345398 4.97417Z" fill="black"/>
</svg>
