<svg width="10" height="21" viewBox="0 0 10 21" fill="none" xmlns="http://www.w3.org/2000/svg">
<path d="M2.53505 20.2874C2.38468 20.2874 2.04637 20.2122 1.5201 20.0618C0.993838 19.9114 0.718176 19.7611 0.693115 19.6107C0.693115 19.4353 1.38227 16.5283 2.76059 10.8898C4.1389 5.2512 4.90324 2.30662 5.0536 2.05601C5.42951 1.25409 6.08107 0.853121 7.0083 0.853121C7.50951 0.853121 8.03577 1.04107 8.5871 1.41698C9.13843 1.79288 9.41409 2.34421 9.41409 3.07095C9.41409 3.19625 9.38903 3.38421 9.33891 3.63481C9.31385 3.81023 8.22373 6.60445 6.06854 12.0175C3.91336 17.4305 2.79818 20.1621 2.723 20.2122C2.64782 20.2623 2.58517 20.2874 2.53505 20.2874Z" fill="#102C57"/>
</svg>
