<svg width="9" height="19" viewBox="0 0 9 19" fill="none" xmlns="http://www.w3.org/2000/svg">
<path d="M1.94288 18.1238C1.80987 18.1238 1.51061 18.0573 1.0451 17.9243C0.579578 17.7913 0.335736 17.6583 0.313568 17.5253C0.313568 17.3701 0.923174 14.7987 2.14239 9.81097C3.3616 4.82329 4.03771 2.21861 4.17071 1.99693C4.50322 1.28757 5.07958 0.932892 5.89977 0.932892C6.34312 0.932892 6.80864 1.09915 7.29633 1.43166C7.78401 1.76417 8.02785 2.25186 8.02785 2.89471C8.02785 3.00555 8.00568 3.17181 7.96135 3.39348C7.93918 3.54866 6.9749 6.02033 5.06849 10.8085C3.16209 15.5967 2.17564 18.0129 2.10913 18.0573C2.04263 18.1016 1.98721 18.1238 1.94288 18.1238Z" fill="#102C57"/>
</svg>
