<svg width="10" height="21" viewBox="0 0 10 21" fill="none" xmlns="http://www.w3.org/2000/svg">
<path d="M2.76579 20.2874C2.61543 20.2874 2.27711 20.2122 1.75085 20.0618C1.22458 19.9114 0.948919 19.7611 0.923859 19.6107C0.923859 19.4353 1.61302 16.5283 2.99133 10.8898C4.36965 5.2512 5.13398 2.30662 5.28435 2.05601C5.66025 1.25409 6.31182 0.853121 7.23905 0.853121C7.74025 0.853121 8.26652 1.04107 8.81784 1.41698C9.36917 1.79288 9.64483 2.34421 9.64483 3.07095C9.64483 3.19625 9.61977 3.38421 9.56965 3.63481C9.54459 3.81023 8.45447 6.60445 6.29929 12.0175C4.1441 17.4305 3.02892 20.1621 2.95374 20.2122C2.87856 20.2623 2.81591 20.2874 2.76579 20.2874Z" fill="#102C57"/>
</svg>
