<svg width="23" height="23" viewBox="0 0 23 23" fill="none" xmlns="http://www.w3.org/2000/svg">
<path d="M0.312805 11.672C0.312805 11.672 0.312805 11.528 0.312805 11.2398C0.312805 10.9516 0.467978 10.7299 0.778322 10.5747H10.7204V5.58707L10.7537 0.599384C10.9754 0.311209 11.186 0.16712 11.3855 0.16712C11.6736 0.16712 11.8953 0.333376 12.0505 0.665888V10.5747H21.9594C22.2919 10.7521 22.4581 10.9738 22.4581 11.2398C22.4581 11.5058 22.2919 11.7275 21.9594 11.9048H12.0505V21.8137C11.8731 22.124 11.6736 22.2792 11.452 22.2792H11.3855H11.319C11.0529 22.2792 10.8534 22.124 10.7204 21.8137V11.9048H0.778322C0.467978 11.7496 0.312805 11.528 0.312805 11.2398V11.672Z" fill="#102C57"/>
</svg>
