<svg width="9" height="18" viewBox="0 0 9 18" fill="none" xmlns="http://www.w3.org/2000/svg">
<path d="M2.23014 17.6465C2.09714 17.6465 1.79787 17.58 1.33236 17.447C0.86684 17.314 0.622998 17.181 0.60083 17.048C0.60083 16.8928 1.21044 14.3214 2.42965 9.33368C3.64886 4.34599 4.32497 1.74131 4.45797 1.51964C4.79048 0.810276 5.36684 0.455597 6.18704 0.455597C6.63039 0.455597 7.0959 0.621853 7.58359 0.954365C8.07127 1.28688 8.31511 1.77456 8.31511 2.41742C8.31511 2.52826 8.29295 2.69451 8.24861 2.91619C8.22644 3.07136 7.26216 5.54304 5.35576 10.3312C3.44935 15.1194 2.4629 17.5356 2.3964 17.58C2.32989 17.6243 2.27448 17.6465 2.23014 17.6465Z" fill="#102C57"/>
</svg>
