<svg width="11" height="15" viewBox="0 0 11 15" fill="none" xmlns="http://www.w3.org/2000/svg">
<path d="M0.437775 3.53605C0.437775 3.33036 0.547965 2.97775 0.768346 2.47822C0.988727 1.97869 1.34134 1.45712 1.82617 0.913516C2.31101 0.36991 2.85462 0.105453 3.45699 0.120146C4.05937 0.120146 4.5442 0.289104 4.91151 0.627021C5.27881 0.964938 5.4698 1.43508 5.4845 2.03746C5.45511 2.31661 5.43307 2.47087 5.41838 2.50026C5.41838 2.54433 5.30085 2.88225 5.06577 3.51401C4.8307 4.14577 4.58828 4.85833 4.33852 5.6517C4.08875 6.44507 3.97121 7.07683 3.98591 7.54698C3.98591 8.17874 4.08875 8.6195 4.29444 8.86926C4.50013 9.11903 4.80866 9.25126 5.22004 9.26595C5.55796 9.26595 5.87384 9.18514 6.16768 9.02353C6.46152 8.86192 6.68924 8.69296 6.85086 8.51665C7.01247 8.34035 7.21081 8.09793 7.44589 7.7894C7.44589 7.77471 7.48262 7.62779 7.55608 7.34864C7.62954 7.06949 7.73238 6.63607 7.86461 6.04839C7.99684 5.46071 8.13641 4.9171 8.28333 4.41757C8.84163 2.21376 9.15016 1.06044 9.20893 0.957592C9.39993 0.560907 9.71581 0.362564 10.1566 0.362564C10.3476 0.362564 10.5018 0.413986 10.6194 0.51683C10.7369 0.619676 10.8177 0.707828 10.8618 0.781288C10.9059 0.854748 10.9206 0.920862 10.9059 0.97963C10.9059 1.17063 10.5459 2.71329 9.826 5.60763C9.10609 8.50196 8.69471 10.0887 8.59187 10.3679C8.18049 11.5873 7.46792 12.557 6.45417 13.2769C5.44042 13.9968 4.42667 14.3641 3.41292 14.3788C2.75177 14.3788 2.17144 14.2172 1.67191 13.8939C1.17238 13.5707 0.922612 13.0859 0.922612 12.4394C0.922612 12.1162 0.974035 11.8444 1.07688 11.624C1.17972 11.4036 1.3193 11.242 1.4956 11.1392C1.67191 11.0363 1.81883 10.9629 1.93636 10.9188C2.0539 10.8747 2.17878 10.8527 2.31101 10.8527C2.95746 10.8527 3.28069 11.1612 3.28069 11.7783C3.28069 12.0721 3.19254 12.3292 3.01623 12.5496C2.83993 12.77 2.67097 12.9169 2.50935 12.9904C2.34774 13.0638 2.25224 13.1006 2.22286 13.1006L2.15675 13.1226C2.18613 13.1961 2.3257 13.2842 2.57547 13.3871C2.82523 13.4899 3.075 13.5413 3.32476 13.5413H3.50107C3.75083 13.5413 3.94183 13.5266 4.07406 13.4973C4.5589 13.365 5.007 13.0859 5.41838 12.6598C5.82976 12.2337 6.14564 11.7783 6.36602 11.2935C6.5864 10.8086 6.75536 10.3972 6.8729 10.0593C6.99043 9.7214 7.0492 9.50102 7.0492 9.39818L6.91697 9.48633C6.82882 9.5451 6.68924 9.6259 6.49825 9.72875C6.30725 9.83159 6.11625 9.91975 5.92526 9.99321C5.63142 10.0667 5.34492 10.1034 5.06577 10.1034C4.38994 10.1034 3.79491 9.94178 3.28069 9.61856C2.76647 9.29533 2.42855 8.77377 2.26694 8.05385C2.25224 7.95101 2.2449 7.72328 2.2449 7.37067C2.2449 6.53323 2.50201 5.43867 3.01623 4.087C3.53045 2.73533 3.78756 1.87585 3.78756 1.50854C3.78756 1.49385 3.78756 1.47916 3.78756 1.46447C3.78756 1.33224 3.78756 1.24409 3.78756 1.20001C3.78756 1.15594 3.75818 1.10451 3.69941 1.04574C3.64064 0.986977 3.55984 0.957592 3.45699 0.957592H3.36884C3.03092 0.957592 2.72239 1.09717 2.44324 1.37632C2.16409 1.65547 1.94371 1.95665 1.7821 2.27988C1.62049 2.6031 1.4956 2.91164 1.40745 3.20548C1.3193 3.49932 1.26053 3.66093 1.23115 3.69031C1.20176 3.7197 1.08423 3.73439 0.878536 3.73439H0.570003C0.481851 3.64624 0.437775 3.58012 0.437775 3.53605Z" fill="black"/>
</svg>
