<svg width="11" height="11" viewBox="0 0 11 11" fill="none" xmlns="http://www.w3.org/2000/svg">
<path d="M7.40347 2.59371C7.24675 2.59371 6.83143 2.50752 6.15752 2.33512C5.4836 2.16272 4.98992 2.07653 4.67648 2.07653C4.36303 2.07653 4.0966 2.10787 3.87718 2.17056C3.65777 2.23325 3.47754 2.31161 3.33648 2.40565C3.19543 2.49968 3.1014 2.58588 3.05438 2.66424C3.00736 2.7426 2.95251 2.8288 2.88982 2.92284L2.8428 3.01687C2.79579 3.06389 2.67824 3.0874 2.49017 3.0874C2.16105 3.0874 1.99649 3.02471 1.99649 2.89933C1.99649 2.82096 2.02 2.71126 2.06702 2.57021C2.27076 1.95898 2.60772 1.43396 3.07789 0.99513C3.54806 0.556302 4.06525 0.289871 4.62946 0.195837C4.81753 0.164493 4.95074 0.14882 5.0291 0.14882C5.42091 0.14882 5.77354 0.282035 6.08699 0.548466C6.40044 0.814897 6.69822 1.07349 6.98032 1.32425C7.26242 1.57501 7.5602 1.70822 7.87365 1.7239C8.21844 1.7239 8.56323 1.4653 8.90803 0.948112C9.25282 0.430923 9.43305 0.172329 9.44872 0.172329C9.4644 0.156656 9.58194 0.14882 9.80135 0.14882H10.107C10.201 0.242854 10.248 0.305544 10.248 0.336888C10.248 0.399578 10.2088 0.509285 10.1305 0.666009C10.0521 0.822733 9.94241 0.987293 9.80135 1.15969C9.6603 1.33209 9.52709 1.50448 9.40171 1.67688C9.27633 1.84928 9.16662 1.99816 9.07259 2.12354L8.90803 2.33512C8.23411 3.13441 7.16839 4.1923 5.71085 5.50878C4.25332 6.82526 3.35216 7.67157 3.00736 8.04771L2.72526 8.32981L3.07789 8.35332C3.42268 8.35332 3.9242 8.43952 4.58244 8.61192C5.24068 8.78431 5.73436 8.87051 6.06348 8.87051C6.65904 8.87051 7.20757 8.72162 7.70909 8.42385C8.2106 8.12607 8.53972 7.73426 8.69645 7.24842C8.75914 7.10737 8.81399 7.02117 8.86101 6.98982C8.90803 6.95848 9.02557 6.94281 9.21364 6.94281C9.51141 6.94281 9.6603 7.02117 9.6603 7.17789C9.6603 7.25625 9.65247 7.32678 9.63679 7.38947C9.37036 8.36116 8.85317 9.16829 8.08522 9.81086C7.31728 10.4534 6.54933 10.7825 5.78138 10.7982C5.3739 10.7982 5.01343 10.665 4.69998 10.3986C4.38654 10.1321 4.08092 9.86571 3.78315 9.59928C3.48537 9.33285 3.1876 9.19963 2.88982 9.19963C2.20023 9.19963 1.58117 9.6698 1.03264 10.6101C0.938605 10.7355 0.80539 10.7982 0.632993 10.7982H0.51545H0.209838C0.115804 10.7042 0.0687866 10.6337 0.0687866 10.5866C0.0687866 10.3516 0.523286 9.67764 1.43229 8.5649C2.04351 7.85964 3.07789 6.84094 4.53542 5.50878C5.99296 4.17663 6.89412 3.33032 7.23891 2.96985C7.42698 2.71909 7.48184 2.59371 7.40347 2.59371Z" fill="#102C57"/>
</svg>
