<svg width="28" height="24" viewBox="0 0 28 24" fill="none" xmlns="http://www.w3.org/2000/svg">
<path d="M11.291 0.654408C11.3132 0.654408 12.1112 0.598989 13.6851 0.488152C15.259 0.377314 16.0681 0.310812 16.1125 0.288645C16.3785 0.288645 16.5115 0.377314 16.5115 0.554653C16.5115 0.709826 15.7024 4.05712 14.0841 10.5965C12.4659 17.1359 11.6346 20.4721 11.5903 20.6051C11.546 20.7382 11.5349 20.9044 11.557 21.1039C11.557 22.0349 11.8674 22.5005 12.4881 22.5005C12.6876 22.4783 12.9093 22.3785 13.1531 22.2012C13.6186 21.7579 14.0731 20.6938 14.5164 19.0091C14.6494 18.5657 14.7602 18.333 14.8489 18.3108C14.8932 18.2886 15.0041 18.2776 15.1814 18.2776H15.3144H15.4474C15.7799 18.2776 15.9462 18.3662 15.9462 18.5436C15.9462 18.6544 15.913 18.8317 15.8465 19.0756C15.5583 20.184 15.2258 21.0817 14.8489 21.7689C14.4721 22.4561 14.1617 22.8995 13.9179 23.099C13.674 23.2985 13.3637 23.4758 12.9868 23.631C12.8095 23.6753 12.5435 23.6975 12.1888 23.6975C11.4351 23.6975 10.8034 23.5313 10.2935 23.1987C9.78365 22.8662 9.45114 22.5226 9.29596 22.168L9.09646 21.6692C9.07429 21.647 9.02995 21.6581 8.96345 21.7024C8.91912 21.7468 8.87478 21.7911 8.83045 21.8354C7.52257 23.0768 6.19252 23.6975 4.8403 23.6975C3.62109 23.6975 2.54597 23.2542 1.61493 22.3675C0.683901 21.4808 0.218384 20.0731 0.218384 18.1446C0.218384 17.0805 0.440059 15.9943 0.883408 14.8859C1.32676 13.7776 1.85878 12.8244 2.47947 12.0263C3.52134 10.7628 4.56321 9.88717 5.60508 9.39948C6.64695 8.9118 7.58907 8.66795 8.43143 8.66795C9.67281 8.66795 10.6038 9.13347 11.2245 10.0645C11.3354 10.1975 11.3908 10.2418 11.3908 10.1975C11.413 10.1088 11.7122 8.90071 12.2886 6.57313C12.8649 4.24554 13.1753 3.01525 13.2196 2.88224C13.2196 2.59406 13.142 2.41672 12.9868 2.35022C12.8317 2.28372 12.3994 2.2283 11.6901 2.18396H10.9918C10.8588 2.05096 10.7923 1.96229 10.7923 1.91795C10.7923 1.87362 10.8144 1.66303 10.8588 1.28618C10.9696 0.864998 11.1137 0.654408 11.291 0.654408ZM10.8255 12.5251C10.3157 10.7739 9.48439 9.89825 8.33168 9.89825C7.55582 9.89825 6.81321 10.2418 6.10385 10.929C5.39449 11.6162 4.8403 12.514 4.44129 13.6224C3.79843 15.3736 3.344 17.1914 3.07799 19.0756C3.07799 19.1421 3.07799 19.264 3.07799 19.4414C3.07799 19.6187 3.0669 19.7517 3.04474 19.8404C3.04474 20.8379 3.24424 21.5251 3.64326 21.9019C4.04227 22.2788 4.51887 22.4783 5.07306 22.5005C6.2701 22.5005 7.5004 21.7024 8.76394 20.1064L9.02995 19.7406L10.8255 12.5251Z" fill="#102C57"/>
<path d="M17.2763 10.5618C17.1212 10.4066 17.0436 10.2958 17.0436 10.2292C17.0436 10.1406 17.0768 9.96324 17.1433 9.69723C17.2098 9.43122 17.2653 9.27605 17.3096 9.23171C17.3539 9.12087 17.4537 9.06546 17.6089 9.06546C17.764 9.06546 18.3293 9.05437 19.3047 9.0322H21.067L21.6988 6.37211C21.7653 6.12826 21.8428 5.80684 21.9315 5.40782C22.0202 5.00881 22.0978 4.72063 22.1643 4.54329C22.2308 4.36595 22.2973 4.14427 22.3638 3.87826C22.4303 3.61225 22.5189 3.42383 22.6298 3.31299C22.7406 3.20216 22.8515 3.06915 22.9623 2.91398C23.0731 2.75881 23.2283 2.65905 23.4278 2.61472C23.6273 2.57038 23.8268 2.54821 24.0263 2.54821C24.4254 2.57038 24.7024 2.6923 24.8576 2.91398C25.0128 3.13565 25.0904 3.34624 25.0904 3.54575C25.0904 3.70092 24.9906 4.22186 24.7911 5.10856C24.5916 5.99526 24.3699 6.87087 24.1261 7.73541L23.7936 8.9657C23.7936 9.01004 24.3478 9.0322 25.4561 9.0322H27.152C27.3071 9.18738 27.3847 9.3093 27.3847 9.39797C27.3847 9.88565 27.2406 10.2736 26.9524 10.5618H23.3946L22.1975 15.3832C21.333 18.93 20.9007 20.8364 20.9007 21.1024C20.9007 22.0334 21.2 22.499 21.7985 22.499C22.5744 22.499 23.3281 22.1221 24.0596 21.3684C24.7911 20.6147 25.3786 19.6837 25.8219 18.5753C25.8662 18.4423 25.9217 18.3647 25.9882 18.3425C26.0547 18.3204 26.2209 18.2982 26.4869 18.276H26.6199C26.9524 18.276 27.1187 18.3647 27.1187 18.5421C27.1187 18.6086 27.0855 18.7416 27.019 18.9411C26.9081 19.2958 26.7086 19.7169 26.4204 20.2046C26.1323 20.6923 25.7554 21.2132 25.2899 21.7674C24.8244 22.3216 24.2591 22.7871 23.5941 23.164C22.929 23.5408 22.2529 23.7292 21.5657 23.7292C20.9007 23.7292 20.2689 23.563 19.6704 23.2305C19.0719 22.898 18.6396 22.3216 18.3736 21.5014C18.3293 21.3241 18.3071 21.0248 18.3071 20.6036V20.0051L19.4709 15.3499C20.2468 12.2243 20.6458 10.6504 20.668 10.6283C20.668 10.5839 20.1027 10.5618 18.9722 10.5618H17.2763Z" fill="#102C57"/>
</svg>
