<svg width="45" height="35" viewBox="0 0 45 35" fill="none" xmlns="http://www.w3.org/2000/svg">
<path d="M6.17305 22.0921C6.17305 22.6242 6.68291 22.9345 7.70261 23.0232C8.10162 23.0232 8.30113 23.1451 8.30113 23.3889C8.30113 23.4111 8.27896 23.5552 8.23463 23.8212C8.16813 24.1316 8.10162 24.3311 8.03512 24.4197C7.96862 24.5084 7.82453 24.5527 7.60286 24.5527C7.55852 24.5527 7.42552 24.5527 7.20384 24.5527C6.98217 24.5527 6.60532 24.5417 6.0733 24.5195C5.54128 24.4973 4.83192 24.4862 3.94522 24.4862C2.37133 24.4862 1.36271 24.5084 0.919362 24.5527H0.653352C0.498179 24.3976 0.420593 24.2756 0.420593 24.187C0.464928 23.5884 0.609017 23.2005 0.852859 23.0232H1.31838C2.8701 22.9567 4.00064 22.4025 4.71 21.3606C4.84301 21.2276 6.84916 17.8471 10.7285 11.219C14.6078 4.59092 16.5807 1.23255 16.6472 1.14388C16.8024 0.877869 17.0684 0.744865 17.4452 0.744865H17.7112H18.2765C18.4095 0.944372 18.476 1.05521 18.476 1.07738L19.407 11.8175C20.0277 18.9776 20.3602 22.5909 20.4046 22.6574C20.5154 22.9013 21.2359 23.0232 22.5659 23.0232C23.1201 23.0232 23.3972 23.134 23.3972 23.3557C23.3972 23.4 23.3639 23.5552 23.2974 23.8212C23.2309 24.1537 23.1755 24.3532 23.1312 24.4197C23.0868 24.4862 22.9317 24.5306 22.6657 24.5527C22.5992 24.5527 22.444 24.5527 22.2001 24.5527C21.9563 24.5527 21.524 24.5417 20.9033 24.5195C20.2827 24.4973 19.4735 24.4862 18.476 24.4862C16.3923 24.4862 15.029 24.5084 14.3861 24.5527H13.9871C13.8541 24.4197 13.7876 24.32 13.7876 24.2535C13.7876 24.187 13.8098 23.9875 13.8541 23.655C13.9428 23.3668 14.0093 23.1894 14.0536 23.1229L14.1866 23.0232H14.8516C16.0487 22.9567 16.758 22.7683 16.9797 22.4579L16.5807 17.4702H8.6669L7.53635 19.3988C6.62749 20.9284 6.17305 21.8261 6.17305 22.0921ZM16.4144 15.9074C16.4144 15.6636 16.2814 13.9345 16.0154 10.7202C15.7494 7.50595 15.5942 5.88772 15.5499 5.86555L14.6521 7.29535C14.2974 7.89388 13.5992 9.07984 12.5573 10.8532L9.56468 15.9074L12.9896 15.9407C15.2728 15.9407 16.4144 15.9296 16.4144 15.9074Z" fill="#102C57"/>
<path d="M26.8221 23.1238C26.6891 23.1238 26.3898 23.0573 25.9243 22.9243C25.4588 22.7913 25.2149 22.6583 25.1927 22.5253C25.1927 22.3701 25.8024 19.7987 27.0216 14.811C28.2408 9.82329 28.9169 7.21861 29.0499 6.99693C29.3824 6.28757 29.9588 5.93289 30.779 5.93289C31.2223 5.93289 31.6878 6.09915 32.1755 6.43166C32.6632 6.76417 32.907 7.25186 32.907 7.89471C32.907 8.00555 32.8849 8.17181 32.8405 8.39348C32.8184 8.54866 31.8541 11.0203 29.9477 15.8085C28.0413 20.5967 27.0548 23.0129 26.9883 23.0573C26.9218 23.1016 26.8664 23.1238 26.8221 23.1238Z" fill="#102C57"/>
<path d="M33.8326 22.7936C33.8326 22.5742 33.9502 22.1981 34.1853 21.6652C34.4204 21.1323 34.7965 20.576 35.3137 19.9961C35.8309 19.4162 36.4108 19.1341 37.0533 19.1498C37.6959 19.1498 38.2131 19.33 38.6049 19.6905C38.9967 20.0509 39.2004 20.5525 39.2161 21.195C39.1848 21.4928 39.1613 21.6574 39.1456 21.6887C39.1456 21.7357 39.0202 22.0962 38.7695 22.7701C38.5187 23.444 38.2601 24.2041 37.9937 25.0504C37.7272 25.8968 37.6019 26.5707 37.6175 27.0722C37.6175 27.7461 37.7272 28.2163 37.9466 28.4827C38.1661 28.7491 38.4952 28.8902 38.934 28.9059C39.2945 28.9059 39.6314 28.8197 39.9449 28.6473C40.2583 28.4749 40.5013 28.2946 40.6736 28.1066C40.846 27.9185 41.0576 27.6599 41.3084 27.3308C41.3084 27.3151 41.3476 27.1584 41.4259 26.8606C41.5043 26.5628 41.614 26.1005 41.755 25.4736C41.8961 24.8467 42.045 24.2668 42.2017 23.734C42.7973 21.3831 43.1264 20.1528 43.1891 20.0431C43.3928 19.62 43.7298 19.4084 44.1999 19.4084C44.4037 19.4084 44.5682 19.4632 44.6936 19.5729C44.819 19.6826 44.9052 19.7767 44.9522 19.855C44.9992 19.9334 45.0149 20.0039 44.9992 20.0666C44.9992 20.2704 44.6153 21.916 43.8473 25.0034C43.0794 28.0909 42.6405 29.7835 42.5308 30.0813C42.092 31.3821 41.3319 32.4165 40.2505 33.1844C39.1691 33.9524 38.0877 34.3442 37.0063 34.3599C36.301 34.3599 35.682 34.1875 35.1491 33.8427C34.6163 33.4979 34.3498 32.9807 34.3498 32.2911C34.3498 31.9463 34.4047 31.6564 34.5144 31.4213C34.6241 31.1862 34.773 31.0138 34.9611 30.9041C35.1491 30.7944 35.3058 30.716 35.4312 30.669C35.5566 30.622 35.6898 30.5985 35.8309 30.5985C36.5205 30.5985 36.8653 30.9276 36.8653 31.5858C36.8653 31.8993 36.7712 32.1736 36.5831 32.4086C36.3951 32.6437 36.2148 32.8005 36.0425 32.8788C35.8701 32.9572 35.7682 32.9964 35.7368 32.9964L35.6663 33.0199C35.6977 33.0982 35.8465 33.1923 36.113 33.302C36.3794 33.4117 36.6458 33.4665 36.9123 33.4665H37.1003C37.3668 33.4665 37.5705 33.4509 37.7116 33.4195C38.2288 33.2785 38.7068 32.9807 39.1456 32.5262C39.5844 32.0717 39.9214 31.5858 40.1565 31.0687C40.3915 30.5515 40.5718 30.1126 40.6972 29.7522C40.8225 29.3917 40.8852 29.1566 40.8852 29.0469L40.7442 29.1409C40.6501 29.2036 40.5013 29.2898 40.2975 29.3995C40.0938 29.5092 39.89 29.6033 39.6863 29.6816C39.3728 29.76 39.0672 29.7992 38.7695 29.7992C38.0485 29.7992 37.4138 29.6268 36.8653 29.282C36.3167 28.9372 35.9563 28.3808 35.7839 27.6129C35.7682 27.5032 35.7603 27.2603 35.7603 26.8841C35.7603 25.9908 36.0346 24.8232 36.5831 23.3813C37.1317 21.9395 37.406 21.0226 37.406 20.6308C37.406 20.6152 37.406 20.5995 37.406 20.5838C37.406 20.4428 37.406 20.3487 37.406 20.3017C37.406 20.2547 37.3746 20.1998 37.3119 20.1371C37.2492 20.0745 37.163 20.0431 37.0533 20.0431H36.9593C36.5988 20.0431 36.2697 20.192 35.9719 20.4898C35.6741 20.7875 35.4391 21.1088 35.2667 21.4536C35.0943 21.7984 34.9611 22.1275 34.867 22.441C34.773 22.7544 34.7103 22.9268 34.679 22.9582C34.6476 22.9895 34.5222 23.0052 34.3028 23.0052H33.9737C33.8797 22.9112 33.8326 22.8406 33.8326 22.7936Z" fill="#102C57"/>
</svg>
