<svg width="10" height="21" viewBox="0 0 10 21" fill="none" xmlns="http://www.w3.org/2000/svg">
<path d="M2.31221 20.2874C2.16184 20.2874 1.82353 20.2122 1.29726 20.0618C0.770999 19.9114 0.495336 19.7611 0.470276 19.6107C0.470276 19.4353 1.15943 16.5283 2.53775 10.8898C3.91606 5.2512 4.6804 2.30662 4.83076 2.05601C5.20667 1.25409 5.85823 0.853121 6.78546 0.853121C7.28667 0.853121 7.81294 1.04107 8.36426 1.41698C8.91559 1.79288 9.19125 2.34421 9.19125 3.07095C9.19125 3.19625 9.16619 3.38421 9.11607 3.63481C9.09101 3.81023 8.00089 6.60445 5.8457 12.0175C3.69052 17.4305 2.57534 20.1621 2.50016 20.2122C2.42498 20.2623 2.36233 20.2874 2.31221 20.2874Z" fill="#102C57"/>
</svg>
