<svg width="12" height="11" viewBox="0 0 12 11" fill="none" xmlns="http://www.w3.org/2000/svg">
<path d="M1.20753 3.49197C1.31038 2.8749 1.70706 2.16234 2.39759 1.35427C3.08812 0.546211 3.94026 0.134833 4.95401 0.120142C5.46823 0.120142 5.93837 0.25237 6.36444 0.516828C6.79051 0.781284 7.10639 1.11186 7.31208 1.50854C7.92915 0.582941 8.6711 0.120142 9.53793 0.120142C10.0815 0.120142 10.5517 0.281754 10.9484 0.60498C11.3451 0.928205 11.5507 1.36162 11.5654 1.90523C11.5654 2.3313 11.4626 2.67656 11.2569 2.94102C11.0512 3.20547 10.8529 3.36709 10.6619 3.42585C10.4709 3.48462 10.3019 3.51401 10.155 3.51401C9.87584 3.51401 9.64812 3.4332 9.47181 3.27159C9.29551 3.10997 9.20736 2.89694 9.20736 2.63248C9.20736 1.95665 9.57466 1.49385 10.3093 1.24408C10.1476 1.05309 9.85381 0.957589 9.42774 0.957589C9.23674 0.957589 9.09717 0.972281 9.00901 1.00167C8.45072 1.23674 8.03934 1.72158 7.77488 2.45618C6.89336 5.70312 6.4526 7.5984 6.4526 8.142C6.4526 8.55338 6.57013 8.84722 6.80521 9.02353C7.04028 9.19983 7.29739 9.28798 7.57654 9.28798C8.12014 9.28798 8.6564 9.04557 9.18532 8.56073C9.71423 8.07589 10.0742 7.48086 10.2652 6.77564C10.3093 6.62872 10.3533 6.54792 10.3974 6.53322C10.4415 6.51853 10.559 6.50384 10.75 6.48915H10.8382C11.0586 6.48915 11.1687 6.54792 11.1687 6.66545C11.1687 6.68014 11.1541 6.76095 11.1247 6.90787C10.8896 7.74532 10.4341 8.48727 9.75831 9.13372C9.08247 9.78017 8.29645 10.1034 7.40023 10.1034C6.37179 10.1034 5.59311 9.64059 5.0642 8.71499C4.46182 9.6259 3.7713 10.0814 2.99262 10.0814H2.86039C2.14048 10.0814 1.62626 9.89036 1.31772 9.50837C1.00919 9.12637 0.847578 8.72234 0.832886 8.29627C0.832886 7.82612 0.97246 7.44413 1.25161 7.15029C1.53076 6.85645 1.86133 6.70953 2.24332 6.70953C2.87508 6.70953 3.19096 7.01806 3.19096 7.63513C3.19096 7.92897 3.10281 8.18608 2.9265 8.40646C2.7502 8.62684 2.58124 8.77376 2.41963 8.84722C2.25802 8.92068 2.16252 8.95741 2.13313 8.95741L2.06702 8.97945C2.06702 8.99414 2.11109 9.02353 2.19925 9.0676C2.2874 9.11168 2.40494 9.1631 2.55186 9.22187C2.69878 9.28064 2.83835 9.30268 2.97058 9.28798C3.49949 9.28798 3.95495 8.95741 4.33694 8.29627C4.46917 8.0612 4.63813 7.56167 4.84382 6.79768C5.04951 6.03369 5.25519 5.24032 5.46088 4.41757C5.66657 3.59481 5.78411 3.10997 5.81349 2.96305C5.88695 2.56637 5.92368 2.27987 5.92368 2.10357C5.92368 1.69219 5.81349 1.39835 5.59311 1.22205C5.37273 1.04574 5.12297 0.957589 4.84382 0.957589C4.25613 0.957589 3.70518 1.19266 3.19096 1.66281C2.67674 2.13295 2.31678 2.73533 2.11109 3.46993C2.08171 3.60216 2.04498 3.67562 2.0009 3.69031C1.95683 3.705 1.83929 3.7197 1.64829 3.73439H1.33976C1.25161 3.64623 1.20753 3.56543 1.20753 3.49197Z" fill="black"/>
</svg>
