<svg width="15" height="16" viewBox="0 0 15 16" fill="none" xmlns="http://www.w3.org/2000/svg">
<path d="M10.962 4.31415C10.7404 4.31415 10.1529 4.19223 9.19972 3.94839C8.24651 3.70454 7.54824 3.58262 7.10489 3.58262C6.66154 3.58262 6.28469 3.62696 5.97435 3.71563C5.664 3.8043 5.40908 3.91513 5.20957 4.04814C5.01006 4.18114 4.87706 4.30307 4.81055 4.4139C4.74405 4.52474 4.66646 4.64666 4.5778 4.77967L4.51129 4.91267C4.44479 4.97917 4.27853 5.01242 4.01252 5.01242C3.54701 5.01242 3.31425 4.92375 3.31425 4.74642C3.31425 4.63558 3.3475 4.48041 3.414 4.2809C3.70218 3.41637 4.17878 2.67376 4.8438 2.05307C5.50883 1.43238 6.24036 1.05553 7.03839 0.922525C7.3044 0.87819 7.49282 0.856023 7.60366 0.856023C8.15784 0.856023 8.65661 1.04445 9.09996 1.42129C9.54331 1.79814 9.9645 2.1639 10.3635 2.51858C10.7625 2.87326 11.1837 3.06169 11.6271 3.08385C12.1147 3.08385 12.6024 2.71809 13.0901 1.98656C13.5778 1.25504 13.8327 0.889275 13.8549 0.889275C13.8771 0.867106 14.0433 0.856023 14.3537 0.856023H14.7859C14.9189 0.989028 14.9854 1.0777 14.9854 1.12203C14.9854 1.2107 14.93 1.36588 14.8192 1.58755C14.7083 1.80922 14.5532 2.04198 14.3537 2.28582C14.1542 2.52967 13.9657 2.77351 13.7884 3.01735C13.611 3.26119 13.4559 3.47179 13.3229 3.64913L13.0901 3.94839C12.1369 5.07893 10.6295 6.57523 8.56794 8.4373C6.50637 10.2994 5.23174 11.4964 4.74405 12.0284L4.34504 12.4274L4.8438 12.4607C5.33149 12.4607 6.04085 12.5826 6.97188 12.8265C7.90292 13.0703 8.60119 13.1922 9.06671 13.1922C9.90908 13.1922 10.6849 12.9816 11.3943 12.5605C12.1037 12.1393 12.5692 11.5851 12.7909 10.8979C12.8795 10.6984 12.9571 10.5765 13.0236 10.5321C13.0901 10.4878 13.2564 10.4656 13.5224 10.4656C13.9436 10.4656 14.1542 10.5765 14.1542 10.7981C14.1542 10.909 14.1431 11.0087 14.1209 11.0974C13.7441 12.4718 13.0125 13.6134 11.9263 14.5223C10.8401 15.4311 9.7539 15.8967 8.6677 15.9188C8.09134 15.9188 7.58149 15.7304 7.13814 15.3536C6.69479 14.9767 6.26252 14.5999 5.84134 14.223C5.42016 13.8462 4.99898 13.6577 4.5778 13.6577C3.60243 13.6577 2.72681 14.3228 1.95095 15.6528C1.81794 15.8302 1.62952 15.9188 1.38568 15.9188H1.21942H0.787154C0.654149 15.7858 0.587646 15.6861 0.587646 15.6196C0.587646 15.2871 1.2305 14.3338 2.51622 12.76C3.38075 11.7624 4.8438 10.3215 6.90538 8.4373C8.96696 6.55306 10.2416 5.35602 10.7293 4.84617C10.9953 4.49149 11.0729 4.31415 10.962 4.31415Z" fill="#102C57"/>
</svg>
