<svg width="10" height="11" viewBox="0 0 10 11" fill="none" xmlns="http://www.w3.org/2000/svg">
<path d="M0.462799 3.53604C0.477491 3.49197 0.492183 3.4332 0.506875 3.35974C0.521567 3.28628 0.558297 3.12467 0.617066 2.8749C0.675834 2.62514 0.749294 2.39741 0.837446 2.19172C0.925599 1.98603 1.03579 1.74361 1.16802 1.46447C1.30025 1.18532 1.44717 0.964935 1.60878 0.803322C1.77039 0.641709 1.96139 0.480097 2.18177 0.318484C2.40215 0.156872 2.64457 0.0907574 2.90903 0.120142C3.3351 0.120142 3.70974 0.208294 4.03297 0.384599C4.35619 0.560904 4.58392 0.722516 4.71615 0.869436C4.84838 1.01636 4.92918 1.16328 4.95857 1.3102C4.98795 1.39835 5.00999 1.44243 5.02468 1.44243C5.03937 1.44243 5.09814 1.391 5.20099 1.28816C5.90621 0.524173 6.72161 0.142179 7.64721 0.142179H7.71333C8.41855 0.142179 8.94746 0.443367 9.30007 1.04574C9.41761 1.32489 9.47637 1.59669 9.47637 1.86115C9.47637 2.30191 9.38088 2.65452 9.18988 2.91898C8.99888 3.18344 8.80789 3.35239 8.61689 3.42585C8.42589 3.49931 8.24224 3.5287 8.06594 3.51401C7.7721 3.51401 7.53702 3.4332 7.36072 3.27159C7.18441 3.10997 7.09626 2.89694 7.09626 2.63248C7.09626 1.92726 7.50764 1.45712 8.33039 1.22205C8.00717 1.03105 7.74271 0.935551 7.53702 0.935551C6.71427 0.935551 5.95763 1.47916 5.2671 2.56637C5.12018 2.80144 5.00999 3.04386 4.93653 3.29363C4.86307 3.54339 4.6133 4.52041 4.18723 6.22469C3.68771 8.28158 3.40121 9.37614 3.32775 9.50837C3.13675 9.90505 2.82087 10.1034 2.38011 10.1034C2.18912 10.1034 2.03485 10.0593 1.91731 9.97117C1.79978 9.88301 1.71897 9.79486 1.67489 9.70671C1.63082 9.61856 1.61613 9.5451 1.63082 9.48633C1.63082 9.29533 1.92466 8.03181 2.51234 5.69578C3.10002 3.35974 3.39386 2.05949 3.39386 1.79504C3.39386 1.22205 3.20287 0.935551 2.82087 0.935551C2.51234 0.935551 2.24788 1.14124 2.0275 1.55262C1.80712 1.96399 1.63082 2.4121 1.49859 2.89694C1.36636 3.38178 1.28555 3.64623 1.25617 3.69031C1.22679 3.7197 1.10925 3.73439 0.903561 3.73439H0.595028C0.506875 3.64623 0.462799 3.58012 0.462799 3.53604Z" fill="black"/>
</svg>
