<svg width="16" height="18" viewBox="0 0 16 18" fill="none" xmlns="http://www.w3.org/2000/svg">
<path d="M0 6.06318C0.0254055 5.98696 0.050811 5.88534 0.0762165 5.75831C0.101622 5.63128 0.165136 5.35182 0.266758 4.91993C0.36838 4.48803 0.495407 4.09425 0.64784 3.73857C0.800273 3.3829 0.990815 2.96371 1.21946 2.481C1.44811 1.9983 1.70217 1.61721 1.98163 1.33775C2.26109 1.05829 2.59136 0.778831 2.97244 0.499371C3.35353 0.219912 3.77272 0.105587 4.23002 0.156397C4.96678 0.156397 5.61462 0.30883 6.17354 0.613697C6.73246 0.918562 7.12624 1.19802 7.35489 1.45208C7.58354 1.70613 7.72327 1.96019 7.77408 2.21424C7.8249 2.36668 7.863 2.44289 7.88841 2.44289C7.91381 2.44289 8.01544 2.35397 8.19328 2.17613C9.41274 0.855049 10.8227 0.194506 12.4233 0.194506H12.5376C13.7571 0.194506 14.6717 0.715319 15.2814 1.75694C15.4847 2.23965 15.5863 2.70965 15.5863 3.16695C15.5863 3.92911 15.4211 4.53885 15.0909 4.99614C14.7606 5.45344 14.4303 5.74561 14.1001 5.87263C13.7698 5.99966 13.4522 6.05047 13.1473 6.02507C12.6392 6.02507 12.2327 5.88534 11.9279 5.60588C11.623 5.32642 11.4706 4.95804 11.4706 4.50074C11.4706 3.28127 12.1819 2.4683 13.6046 2.06181C13.0457 1.73154 12.5884 1.5664 12.2327 1.5664C10.81 1.5664 9.50166 2.50641 8.3076 4.38641C8.05354 4.7929 7.863 5.21209 7.73598 5.64398C7.60895 6.07588 7.17705 7.76534 6.4403 10.7124C5.57651 14.2692 5.0811 16.1619 4.95407 16.3905C4.6238 17.0765 4.07758 17.4194 3.31542 17.4194C2.98515 17.4194 2.71839 17.3432 2.51514 17.1908C2.3119 17.0384 2.17217 16.8859 2.09595 16.7335C2.01974 16.5811 1.99433 16.454 2.01974 16.3524C2.01974 16.0221 2.52785 13.8373 3.54407 9.79778C4.56029 5.75831 5.0684 3.50992 5.0684 3.05262C5.0684 2.06181 4.73813 1.5664 4.07758 1.5664C3.54407 1.5664 3.08677 1.92208 2.70569 2.63343C2.3246 3.34479 2.01974 4.11965 1.79109 4.95804C1.56244 5.79642 1.42271 6.25372 1.3719 6.32993C1.32109 6.38074 1.11784 6.40615 0.762165 6.40615H0.22865C0.0762165 6.25372 0 6.13939 0 6.06318Z" fill="#102C57"/>
</svg>
