<svg width="26" height="27" viewBox="0 0 26 27" fill="none" xmlns="http://www.w3.org/2000/svg">
<path d="M0.405365 13.9687C0.405365 13.9687 0.405365 13.8036 0.405365 13.4733C0.405365 13.143 0.583203 12.889 0.93888 12.7111H12.3332V6.99491L12.3714 1.27868C12.6254 0.948404 12.8668 0.78327 13.0954 0.78327C13.4257 0.78327 13.6797 0.97381 13.8576 1.35489V12.7111H25.2138C25.5949 12.9144 25.7855 13.1684 25.7855 13.4733C25.7855 13.7782 25.5949 14.0322 25.2138 14.2355H13.8576V25.5917C13.6543 25.9474 13.4257 26.1252 13.1716 26.1252H13.0954H13.0192C12.7143 26.1252 12.4857 25.9474 12.3332 25.5917V14.2355H0.93888C0.583203 14.0576 0.405365 13.8036 0.405365 13.4733V13.9687Z" fill="#102C57"/>
</svg>
