<svg width="15" height="15" viewBox="0 0 15 15" fill="none" xmlns="http://www.w3.org/2000/svg">
<path d="M0.0280457 7.63794C0.0280457 7.63794 0.0280457 7.54244 0.0280457 7.35145C0.0280457 7.16045 0.13089 7.01353 0.336579 6.91069H6.92597V3.60497L6.948 0.29926C7.09492 0.108264 7.2345 0.0127649 7.36673 0.0127649C7.55772 0.0127649 7.70464 0.122955 7.80749 0.343336V6.91069H14.3748C14.5952 7.02822 14.7054 7.17514 14.7054 7.35145C14.7054 7.52775 14.5952 7.67467 14.3748 7.79221H7.80749V14.3596C7.68995 14.5652 7.55772 14.6681 7.4108 14.6681H7.36673H7.32265C7.14635 14.6681 7.01412 14.5652 6.92597 14.3596V7.79221H0.336579C0.13089 7.68936 0.0280457 7.54244 0.0280457 7.35145V7.63794Z" fill="black"/>
</svg>
