<svg width="4" height="8" viewBox="0 0 4 8" fill="none" xmlns="http://www.w3.org/2000/svg">
<path d="M0.283875 4.97417C0.283875 4.18079 0.445487 3.42415 0.768712 2.70424C1.09194 1.98433 1.42251 1.44807 1.76043 1.09546C2.09834 0.742853 2.31138 0.566549 2.39953 0.566549C2.44361 0.566549 2.53176 0.632663 2.66399 0.764891C2.79622 0.89712 2.86968 0.992618 2.88437 1.05139C2.88437 1.09546 2.79622 1.213 2.61991 1.404C2.44361 1.59499 2.25261 1.82272 2.04692 2.08718C1.84123 2.35163 1.63554 2.73363 1.42985 3.23316C1.22417 3.73269 1.11398 4.2616 1.09928 4.8199C1.09928 4.9962 1.10663 5.08436 1.12132 5.08436C1.13601 5.08436 1.17274 5.06966 1.23151 5.04028C1.29028 5.0109 1.38578 4.96682 1.51801 4.90805C1.65024 4.84928 1.78246 4.82724 1.91469 4.84194C2.28199 4.84194 2.59053 4.96682 2.84029 5.21658C3.09006 5.46635 3.22229 5.78223 3.23698 6.16422C3.25167 6.54622 3.12679 6.86209 2.86233 7.11186C2.59787 7.36162 2.28934 7.49385 1.93673 7.50854C1.51066 7.50854 1.12867 7.31755 0.79075 6.93555C0.452833 6.55356 0.283875 5.89976 0.283875 4.97417Z" fill="black"/>
</svg>
