<svg width="10" height="21" viewBox="0 0 10 21" fill="none" xmlns="http://www.w3.org/2000/svg">
<path d="M2.60508 20.2874C2.45472 20.2874 2.11641 20.2122 1.59014 20.0618C1.06388 19.9114 0.788213 19.7611 0.763153 19.6107C0.763153 19.4353 1.45231 16.5283 2.83063 10.8898C4.20894 5.2512 4.97328 2.30662 5.12364 2.05601C5.49954 1.25409 6.15111 0.853121 7.07834 0.853121C7.57955 0.853121 8.10581 1.04107 8.65714 1.41698C9.20846 1.79288 9.48413 2.34421 9.48413 3.07095C9.48413 3.19625 9.45907 3.38421 9.40895 3.63481C9.38389 3.81023 8.29376 6.60445 6.13858 12.0175C3.9834 17.4305 2.86822 20.1621 2.79304 20.2122C2.71785 20.2623 2.6552 20.2874 2.60508 20.2874Z" fill="#102C57"/>
</svg>
