<svg width="9" height="19" viewBox="0 0 9 19" fill="none" xmlns="http://www.w3.org/2000/svg">
<path d="M2.31452 18.1238C2.18152 18.1238 1.88226 18.0573 1.41674 17.9243C0.951221 17.7913 0.707379 17.6583 0.685211 17.5253C0.685211 17.3701 1.29482 14.7987 2.51403 9.81097C3.73324 4.82329 4.40935 2.21861 4.54235 1.99693C4.87487 1.28757 5.45122 0.932892 6.27142 0.932892C6.71477 0.932892 7.18028 1.09915 7.66797 1.43166C8.15565 1.76417 8.3995 2.25186 8.3995 2.89471C8.3995 3.00555 8.37733 3.17181 8.33299 3.39348C8.31083 3.54866 7.34654 6.02033 5.44014 10.8085C3.53373 15.5967 2.54728 18.0129 2.48078 18.0573C2.41427 18.1016 2.35886 18.1238 2.31452 18.1238Z" fill="#102C57"/>
</svg>
