<svg width="8" height="18" viewBox="0 0 8 18" fill="none" xmlns="http://www.w3.org/2000/svg">
<path d="M1.70585 17.6462C1.57284 17.6462 1.27358 17.5797 0.808065 17.4467C0.342548 17.3137 0.0987056 17.1807 0.0765381 17.0477C0.0765381 16.8925 0.686144 14.3211 1.90536 9.33343C3.12457 4.34575 3.80068 1.74107 3.93368 1.51939C4.26619 0.810032 4.84255 0.455353 5.66274 0.455353C6.10609 0.455353 6.57161 0.621609 7.0593 0.954121C7.54698 1.28663 7.79082 1.77432 7.79082 2.41718C7.79082 2.52801 7.76865 2.69427 7.72432 2.91594C7.70215 3.07112 6.73787 5.54279 4.83146 10.331C2.92506 15.1191 1.93861 17.5354 1.8721 17.5797C1.8056 17.6241 1.75018 17.6462 1.70585 17.6462Z" fill="#102C57"/>
</svg>
