<svg width="9" height="19" viewBox="0 0 9 19" fill="none" xmlns="http://www.w3.org/2000/svg">
<path d="M2.12061 18.1239C1.98761 18.1239 1.68835 18.0574 1.22283 17.9244C0.757312 17.7914 0.51347 17.6584 0.491302 17.5254C0.491302 17.3702 1.10091 14.7988 2.32012 9.81109C3.53933 4.82341 4.21544 2.21873 4.34844 1.99705C4.68096 1.28769 5.25731 0.933014 6.07751 0.933014C6.52086 0.933014 6.98638 1.09927 7.47406 1.43178C7.96174 1.76429 8.20559 2.25198 8.20559 2.89484C8.20559 3.00567 8.18342 3.17193 8.13908 3.39361C8.11692 3.54878 7.15263 6.02045 5.24623 10.8086C3.33982 15.5968 2.35337 18.0131 2.28687 18.0574C2.22037 18.1017 2.16495 18.1239 2.12061 18.1239Z" fill="#102C57"/>
</svg>
