<svg width="19" height="25" viewBox="0 0 19 25" fill="none" xmlns="http://www.w3.org/2000/svg">
<path d="M0.657227 6.11563C0.657227 5.76479 0.845179 5.16335 1.22108 4.3113C1.59699 3.45925 2.19843 2.56961 3.02542 1.64238C3.85241 0.715149 4.77964 0.264063 5.80712 0.289124C6.83459 0.289124 7.66158 0.577316 8.28808 1.1537C8.91459 1.73009 9.24038 2.53202 9.26544 3.55949C9.21531 4.03563 9.17772 4.29877 9.15266 4.34889C9.15266 4.42407 8.95218 5.00045 8.55122 6.07804C8.15025 7.15564 7.73676 8.37106 7.31073 9.72431C6.88471 11.0776 6.68423 12.1552 6.70929 12.9571C6.70929 14.0347 6.88471 14.7865 7.23555 15.2125C7.5864 15.6385 8.11266 15.8641 8.81435 15.8891C9.39074 15.8891 9.92953 15.7513 10.4307 15.4756C10.9319 15.2 11.3204 14.9118 11.596 14.6111C11.8717 14.3103 12.21 13.8968 12.611 13.3706C12.611 13.3455 12.6736 13.0949 12.7989 12.6188C12.9242 12.1426 13.0997 11.4033 13.3252 10.4009C13.5507 9.39853 13.7888 8.4713 14.0394 7.61925C14.9917 3.86021 15.518 1.89298 15.6182 1.71756C15.944 1.04093 16.4828 0.702618 17.2346 0.702618C17.5604 0.702618 17.8235 0.790329 18.024 0.965752C18.2245 1.14117 18.3623 1.29153 18.4375 1.41684C18.5127 1.54214 18.5377 1.65491 18.5127 1.75515C18.5127 2.08093 17.8987 4.71226 16.6708 9.64913C15.4428 14.586 14.7411 17.2925 14.5657 17.7687C13.864 19.8487 12.6486 21.5026 10.9194 22.7306C9.19026 23.9585 7.46109 24.585 5.73194 24.6101C4.60422 24.6101 3.61434 24.3344 2.76229 23.7831C1.91024 23.2318 1.48422 22.4048 1.48422 21.3022C1.48422 20.7508 1.57193 20.2872 1.74735 19.9113C1.92277 19.5354 2.16084 19.2597 2.46157 19.0843C2.76229 18.9089 3.01289 18.7836 3.21338 18.7084C3.41386 18.6332 3.62687 18.5956 3.85241 18.5956C4.95507 18.5956 5.50639 19.1219 5.50639 20.1744C5.50639 20.6756 5.35603 21.1142 5.05531 21.4901C4.75458 21.866 4.46639 22.1166 4.19073 22.2419C3.91506 22.3672 3.75217 22.4299 3.70205 22.4299L3.58928 22.4675C3.6394 22.5928 3.87747 22.7431 4.3035 22.9185C4.72952 23.094 5.15555 23.1817 5.58157 23.1817H5.8823C6.30832 23.1817 6.63411 23.1566 6.85965 23.1065C7.68664 22.8809 8.45098 22.4048 9.15266 21.6781C9.85435 20.9513 10.3931 20.1744 10.7691 19.3475C11.145 18.5205 11.4332 17.8188 11.6336 17.2424C11.8341 16.666 11.9344 16.2901 11.9344 16.1147L11.7088 16.265C11.5585 16.3653 11.3204 16.5031 10.9946 16.6785C10.6688 16.854 10.343 17.0043 10.0172 17.1296C9.51604 17.2549 9.02736 17.3176 8.55122 17.3176C7.39844 17.3176 6.3835 17.0419 5.50639 16.4906C4.62928 15.9393 4.0529 15.0496 3.77723 13.8217C3.75217 13.6462 3.73964 13.2578 3.73964 12.6564C3.73964 11.2279 4.1782 9.36094 5.05531 7.0554C5.93242 4.74985 6.37097 3.28382 6.37097 2.65732C6.37097 2.63226 6.37097 2.6072 6.37097 2.58214C6.37097 2.3566 6.37097 2.20623 6.37097 2.13105C6.37097 2.05587 6.32085 1.96816 6.22061 1.86792C6.12037 1.76768 5.98254 1.71756 5.80712 1.71756H5.65675C5.08037 1.71756 4.5541 1.95563 4.07796 2.43178C3.60181 2.90792 3.22591 3.42166 2.95024 3.97298C2.67458 4.52431 2.46157 5.05057 2.31121 5.55178C2.16084 6.05298 2.0606 6.32865 2.01048 6.37877C1.96036 6.42889 1.75988 6.45395 1.40904 6.45395H0.882769C0.732407 6.30359 0.657227 6.19081 0.657227 6.11563Z" fill="#102C57"/>
</svg>
