<svg width="20" height="18" viewBox="0 0 20 18" fill="none" xmlns="http://www.w3.org/2000/svg">
<path d="M1.18934 5.98697C1.36718 4.91993 2.05313 3.68777 3.24719 2.29047C4.44125 0.893164 5.91477 0.18181 7.66775 0.156406C8.55694 0.156406 9.36992 0.385056 10.1067 0.842354C10.8434 1.29965 11.3897 1.87128 11.7453 2.55722C12.8124 0.956678 14.0953 0.156406 15.5943 0.156406C16.5343 0.156406 17.3472 0.435865 18.0332 0.994787C18.7191 1.55371 19.0748 2.30317 19.1002 3.24317C19.1002 3.97993 18.9224 4.57696 18.5667 5.03426C18.211 5.49156 17.8681 5.77102 17.5378 5.87264C17.2075 5.97426 16.9154 6.02507 16.6613 6.02507C16.1786 6.02507 15.7848 5.88534 15.4799 5.60588C15.1751 5.32642 15.0226 4.95804 15.0226 4.50074C15.0226 3.33209 15.6578 2.53182 16.9281 2.09993C16.6486 1.76965 16.1405 1.60452 15.4037 1.60452C15.0735 1.60452 14.8321 1.62992 14.6797 1.68073C13.7143 2.08722 13.0029 2.9256 12.5456 4.19588C11.0213 9.81049 10.2591 13.0878 10.2591 14.0278C10.2591 14.7392 10.4624 15.2473 10.8688 15.5521C11.2753 15.857 11.7199 16.0094 12.2026 16.0094C13.1426 16.0094 14.0699 15.5902 14.9845 14.7519C15.8991 13.9135 16.5216 12.8846 16.8518 11.6651C16.9281 11.411 17.0043 11.2713 17.0805 11.2459C17.1567 11.2205 17.3599 11.1951 17.6902 11.1697H17.8427C18.2237 11.1697 18.4143 11.2713 18.4143 11.4745C18.4143 11.5 18.3889 11.6397 18.3381 11.8937C17.9316 13.3419 17.144 14.6248 15.9753 15.7427C14.8067 16.8605 13.4475 17.4194 11.8978 17.4194C10.1194 17.4194 8.77289 16.6192 7.85829 15.0186C6.81666 16.5938 5.6226 17.3813 4.27611 17.3813H4.04746C2.80259 17.3813 1.9134 17.0511 1.37989 16.3905C0.84637 15.73 0.566909 15.0313 0.541504 14.2946C0.541504 13.4816 0.782856 12.821 1.26556 12.3129C1.74827 11.8048 2.31989 11.5508 2.98043 11.5508C4.07287 11.5508 4.61909 12.0843 4.61909 13.1513C4.61909 13.6594 4.46665 14.104 4.16179 14.4851C3.85692 14.8662 3.56476 15.1202 3.2853 15.2473C3.00584 15.3743 2.8407 15.4378 2.78989 15.4378L2.67557 15.4759C2.67557 15.5013 2.75178 15.5521 2.90422 15.6283C3.05665 15.7046 3.25989 15.7935 3.51395 15.8951C3.768 15.9967 4.00936 16.0348 4.238 16.0094C5.1526 16.0094 5.94017 15.4378 6.60072 14.2946C6.82937 13.8881 7.12153 13.0243 7.47721 11.7032C7.83288 10.3821 8.18856 9.01022 8.54424 7.58751C8.89991 6.1648 9.10316 5.32642 9.15397 5.07237C9.281 4.38642 9.34451 3.89101 9.34451 3.58615C9.34451 2.87479 9.15397 2.36668 8.77289 2.06182C8.3918 1.75695 7.95991 1.60452 7.47721 1.60452C6.46099 1.60452 5.50828 2.01101 4.61909 2.82398C3.72989 3.63696 3.10746 4.67858 2.75178 5.94886C2.70097 6.17751 2.63746 6.30453 2.56124 6.32994C2.48502 6.35534 2.28178 6.38075 1.95151 6.40616H1.41799C1.26556 6.25372 1.18934 6.11399 1.18934 5.98697Z" fill="#102C57"/>
</svg>
