<svg width="23" height="23" viewBox="0 0 23 23" fill="none" xmlns="http://www.w3.org/2000/svg">
<path d="M0.690796 11.672C0.690796 11.672 0.690796 11.528 0.690796 11.2398C0.690796 10.9516 0.845968 10.7299 1.15631 10.5747H11.0984V5.58707L11.1317 0.599384C11.3534 0.311209 11.5639 0.16712 11.7635 0.16712C12.0516 0.16712 12.2733 0.333376 12.4285 0.665888V10.5747H22.3373C22.6699 10.7521 22.8361 10.9738 22.8361 11.2398C22.8361 11.5058 22.6699 11.7275 22.3373 11.9048H12.4285V21.8137C12.2511 22.124 12.0516 22.2792 11.83 22.2792H11.7635H11.697C11.4309 22.2792 11.2314 22.124 11.0984 21.8137V11.9048H1.15631C0.845968 11.7496 0.690796 11.528 0.690796 11.2398V11.672Z" fill="#102C57"/>
</svg>
