<svg width="47" height="30" viewBox="0 0 47 30" fill="none" xmlns="http://www.w3.org/2000/svg">
<path d="M6.63433 22.0921C6.63433 22.6242 7.14418 22.9345 8.16388 23.0232C8.5629 23.0232 8.76241 23.1451 8.76241 23.3889C8.76241 23.4111 8.74024 23.5552 8.6959 23.8212C8.6294 24.1316 8.5629 24.3311 8.4964 24.4197C8.42989 24.5084 8.2858 24.5527 8.06413 24.5527C8.01979 24.5527 7.88679 24.5527 7.66511 24.5527C7.44344 24.5527 7.06659 24.5417 6.53457 24.5195C6.00255 24.4973 5.29319 24.4862 4.4065 24.4862C2.8326 24.4862 1.82398 24.5084 1.38063 24.5527H1.11462C0.959453 24.3976 0.881866 24.2756 0.881866 24.187C0.926201 23.5884 1.07029 23.2005 1.31413 23.0232H1.77965C3.33137 22.9567 4.46191 22.4025 5.17127 21.3606C5.30428 21.2276 7.31044 17.8471 11.1897 11.219C15.0691 4.59092 17.042 1.23255 17.1085 1.14388C17.2636 0.877869 17.5296 0.744865 17.9065 0.744865H18.1725H18.7378C18.8708 0.944372 18.9373 1.05521 18.9373 1.07738L19.8683 11.8175C20.489 18.9776 20.8215 22.5909 20.8658 22.6574C20.9767 22.9013 21.6971 23.0232 23.0272 23.0232C23.5814 23.0232 23.8585 23.134 23.8585 23.3557C23.8585 23.4 23.8252 23.5552 23.7587 23.8212C23.6922 24.1537 23.6368 24.3532 23.5924 24.4197C23.5481 24.4862 23.3929 24.5306 23.1269 24.5527C23.0604 24.5527 22.9053 24.5527 22.6614 24.5527C22.4176 24.5527 21.9853 24.5417 21.3646 24.5195C20.7439 24.4973 19.9348 24.4862 18.9373 24.4862C16.8535 24.4862 15.4902 24.5084 14.8474 24.5527H14.4484C14.3154 24.4197 14.2489 24.32 14.2489 24.2535C14.2489 24.187 14.271 23.9875 14.3154 23.655C14.404 23.3668 14.4705 23.1894 14.5149 23.1229L14.6479 23.0232H15.3129C16.5099 22.9567 17.2193 22.7683 17.441 22.4579L17.042 17.4702H9.12817L7.99763 19.3988C7.08876 20.9284 6.63433 21.8261 6.63433 22.0921ZM16.8757 15.9074C16.8757 15.6636 16.7427 13.9345 16.4767 10.7202C16.2107 7.50595 16.0555 5.88772 16.0112 5.86555L15.1134 7.29535C14.7587 7.89388 14.0604 9.07984 13.0186 10.8532L10.026 15.9074L13.4508 15.9407C15.7341 15.9407 16.8757 15.9296 16.8757 15.9074Z" fill="#102C57"/>
<path d="M27.2835 23.1235C27.1505 23.1235 26.8513 23.057 26.3858 22.924C25.9202 22.791 25.6764 22.658 25.6542 22.525C25.6542 22.3698 26.2638 19.7984 27.4831 14.8107C28.7023 9.82304 29.3784 7.21836 29.5114 6.99669C29.8439 6.28733 30.4202 5.93265 31.2404 5.93265C31.6838 5.93265 32.1493 6.0989 32.637 6.43142C33.1247 6.76393 33.3685 7.25161 33.3685 7.89447C33.3685 8.00531 33.3464 8.17156 33.302 8.39324C33.2799 8.54841 32.3156 11.0201 30.4092 15.8083C28.5028 20.5964 27.5163 23.0127 27.4498 23.057C27.3833 23.1014 27.3279 23.1235 27.2835 23.1235Z" fill="#102C57"/>
<path d="M35.0232 22.7456C35.1329 22.0874 35.5561 21.3273 36.2927 20.4653C37.0293 19.6033 37.9383 19.1645 39.0197 19.1488C39.5682 19.1488 40.0698 19.2899 40.5243 19.572C40.9788 19.8541 41.3157 20.2067 41.5351 20.6299C42.1934 19.6425 42.9848 19.1488 43.9095 19.1488C44.4894 19.1488 44.9909 19.3212 45.414 19.666C45.8372 20.0108 46.0566 20.4731 46.0723 21.053C46.0723 21.5075 45.9626 21.8758 45.7432 22.1579C45.5238 22.44 45.3122 22.6124 45.1084 22.6751C44.9047 22.7378 44.7245 22.7691 44.5677 22.7691C44.27 22.7691 44.027 22.6829 43.839 22.5106C43.6509 22.3382 43.5569 22.1109 43.5569 21.8288C43.5569 21.1079 43.9487 20.6142 44.7323 20.3478C44.5599 20.144 44.2465 20.0421 43.792 20.0421C43.5882 20.0421 43.4393 20.0578 43.3453 20.0892C42.7497 20.3399 42.3109 20.8571 42.0288 21.6407C41.0885 25.1043 40.6183 27.1261 40.6183 27.706C40.6183 28.1448 40.7437 28.4582 40.9944 28.6463C41.2452 28.8344 41.5195 28.9284 41.8172 28.9284C42.3971 28.9284 42.9692 28.6698 43.5334 28.1526C44.0976 27.6354 44.4815 27.0007 44.6853 26.2484C44.7323 26.0917 44.7793 26.0055 44.8263 25.9898C44.8733 25.9742 44.9987 25.9585 45.2025 25.9428H45.2965C45.5316 25.9428 45.6491 26.0055 45.6491 26.1309C45.6491 26.1465 45.6335 26.2327 45.6021 26.3895C45.3514 27.2828 44.8655 28.0743 44.1446 28.7638C43.4237 29.4534 42.5852 29.7982 41.6292 29.7982C40.5321 29.7982 39.7015 29.3045 39.1372 28.3172C38.4947 29.2889 37.7581 29.7747 36.9274 29.7747H36.7864C36.0184 29.7747 35.4699 29.571 35.1408 29.1635C34.8117 28.756 34.6393 28.325 34.6236 27.8705C34.6236 27.369 34.7725 26.9615 35.0703 26.6481C35.368 26.3346 35.7207 26.1779 36.1281 26.1779C36.8021 26.1779 37.139 26.507 37.139 27.1653C37.139 27.4787 37.045 27.753 36.8569 27.9881C36.6688 28.2231 36.4886 28.3799 36.3162 28.4582C36.1438 28.5366 36.0419 28.5758 36.0106 28.5758L35.9401 28.5993C35.9401 28.615 35.9871 28.6463 36.0811 28.6933C36.1752 28.7403 36.3005 28.7952 36.4573 28.8579C36.614 28.9206 36.7629 28.9441 36.9039 28.9284C37.4681 28.9284 37.954 28.5758 38.3615 27.8705C38.5025 27.6198 38.6827 27.0869 38.9022 26.2719C39.1216 25.457 39.341 24.6107 39.5604 23.733C39.7798 22.8553 39.9052 22.3382 39.9365 22.1814C40.0149 21.7583 40.0541 21.4527 40.0541 21.2646C40.0541 20.8258 39.9365 20.5123 39.7015 20.3243C39.4664 20.1362 39.1999 20.0421 38.9022 20.0421C38.2753 20.0421 37.6876 20.2929 37.139 20.7944C36.5905 21.2959 36.2065 21.9385 35.9871 22.7221C35.9558 22.8632 35.9166 22.9415 35.8696 22.9572C35.8225 22.9729 35.6972 22.9886 35.4934 23.0042H35.1643C35.0703 22.9102 35.0232 22.824 35.0232 22.7456Z" fill="#102C57"/>
</svg>
