<svg width="26" height="26" viewBox="0 0 26 26" fill="none" xmlns="http://www.w3.org/2000/svg">
<path d="M0.359985 13.9936C0.359985 13.9936 0.359985 13.8308 0.359985 13.505C0.359985 13.1792 0.535407 12.9286 0.886251 12.7532H12.1258V7.11461L12.1634 1.47605C12.414 1.15026 12.6521 0.987371 12.8776 0.987371C13.2034 0.987371 13.454 1.17532 13.6294 1.55123V12.7532H24.8313C25.2073 12.9536 25.3952 13.2043 25.3952 13.505C25.3952 13.8057 25.2073 14.0563 24.8313 14.2568H13.6294V25.4587C13.4289 25.8096 13.2034 25.985 12.9528 25.985H12.8776H12.8024C12.5017 25.985 12.2761 25.8096 12.1258 25.4587V14.2568H0.886251C0.535407 14.0814 0.359985 13.8308 0.359985 13.505V13.9936Z" fill="#102C57"/>
</svg>
