<svg width="4" height="8" viewBox="0 0 4 8" fill="none" xmlns="http://www.w3.org/2000/svg">
<path d="M0.519592 4.97417C0.519592 4.18079 0.681205 3.42415 1.00443 2.70424C1.32766 1.98433 1.65823 1.44807 1.99614 1.09546C2.33406 0.742853 2.5471 0.566549 2.63525 0.566549C2.67932 0.566549 2.76748 0.632663 2.89971 0.764891C3.03193 0.89712 3.10539 0.992618 3.12009 1.05139C3.12009 1.09546 3.03193 1.213 2.85563 1.404C2.67932 1.59499 2.48833 1.82272 2.28264 2.08718C2.07695 2.35163 1.87126 2.73363 1.66557 3.23316C1.45988 3.73269 1.34969 4.2616 1.335 4.8199C1.335 4.9962 1.34235 5.08436 1.35704 5.08436C1.37173 5.08436 1.40846 5.06966 1.46723 5.04028C1.526 5.0109 1.6215 4.96682 1.75372 4.90805C1.88595 4.84928 2.01818 4.82724 2.15041 4.84194C2.51771 4.84194 2.82625 4.96682 3.07601 5.21658C3.32577 5.46635 3.458 5.78223 3.4727 6.16422C3.48739 6.54622 3.3625 6.86209 3.09805 7.11186C2.83359 7.36162 2.52506 7.49385 2.17245 7.50854C1.74638 7.50854 1.36439 7.31755 1.02647 6.93555C0.688551 6.55356 0.519592 5.89976 0.519592 4.97417Z" fill="black"/>
</svg>
