<svg width="27" height="27" viewBox="0 0 27 27" fill="none" xmlns="http://www.w3.org/2000/svg">
<path d="M0.834717 13.9687C0.834717 13.9687 0.834717 13.8036 0.834717 13.4733C0.834717 13.143 1.01256 12.889 1.36823 12.7111H12.7626V6.99491L12.8007 1.27868C13.0548 0.948404 13.2961 0.78327 13.5248 0.78327C13.855 0.78327 14.1091 0.97381 14.2869 1.35489V12.7111H25.6432C26.0243 12.9144 26.2148 13.1684 26.2148 13.4733C26.2148 13.7782 26.0243 14.0322 25.6432 14.2355H14.2869V25.5917C14.0837 25.9474 13.855 26.1252 13.601 26.1252H13.5248H13.4485C13.1437 26.1252 12.915 25.9474 12.7626 25.5917V14.2355H1.36823C1.01256 14.0576 0.834717 13.8036 0.834717 13.4733V13.9687Z" fill="#102C57"/>
</svg>
