<svg width="26" height="9" viewBox="0 0 26 9" fill="none" xmlns="http://www.w3.org/2000/svg">
<path d="M0.107071 0.77721C0.107071 0.446939 0.284909 0.192884 0.640586 0.0150452H24.9155C25.2966 0.218289 25.4872 0.472344 25.4872 0.77721C25.4872 1.05667 25.3093 1.29802 24.9536 1.50127L12.8352 1.53937H0.716803C0.310315 1.41235 0.107071 1.15829 0.107071 0.77721ZM0.107071 8.17021C0.107071 7.78913 0.310315 7.53507 0.716803 7.40804H24.9536C25.3093 7.6621 25.4872 7.91615 25.4872 8.17021C25.4872 8.50048 25.2966 8.75453 24.9155 8.93237H0.640586C0.284909 8.75453 0.107071 8.50048 0.107071 8.17021Z" fill="#102C57"/>
</svg>
