<svg width="178" height="37" viewBox="0 0 178 37" fill="none" xmlns="http://www.w3.org/2000/svg">
<path d="M2.28882e-05 15.8884C2.28882e-05 15.4786 0.22069 15.1634 0.662023 14.9427H30.783C31.2559 15.1949 31.4923 15.5101 31.4923 15.8884C31.4923 16.2352 31.2717 16.5347 30.8303 16.7868L15.7935 16.8341H0.756595C0.252214 16.6765 2.28882e-05 16.3613 2.28882e-05 15.8884ZM2.28882e-05 25.0619C2.28882e-05 24.589 0.252214 24.2738 0.756595 24.1161H30.8303C31.2717 24.4314 31.4923 24.7466 31.4923 25.0619C31.4923 25.4717 31.2559 25.7869 30.783 26.0076H0.662023C0.22069 25.7869 2.28882e-05 25.4717 2.28882e-05 25.0619Z" fill="#102C57"/>
<path d="M55.4567 14.3266C55.4567 13.5385 55.1572 13.1444 54.5583 13.1444C53.8017 13.1444 53.0136 13.6015 52.194 14.5157C51.3744 15.4299 50.6966 16.8327 50.1607 18.7242C50.1292 18.7557 50.0977 18.803 50.0661 18.866C50.0346 18.9291 50.0188 18.9763 50.0188 19.0079C50.0188 19.0394 49.9873 19.0709 49.9243 19.1024C49.8612 19.134 49.8139 19.1497 49.7824 19.1497C49.7509 19.1497 49.6878 19.1497 49.5933 19.1497C49.4987 19.1497 49.3726 19.1497 49.215 19.1497H48.553C48.3638 18.9606 48.2693 18.8187 48.2693 18.7242C48.2693 18.5035 48.3954 18.0464 48.6476 17.3529C48.8997 16.6593 49.278 15.8397 49.7824 14.894C50.2868 13.9483 50.9803 13.1444 51.863 12.4824C52.7457 11.8204 53.7387 11.4737 54.842 11.4422C56.166 11.4422 57.1905 11.8204 57.9156 12.577C58.6406 13.3336 59.0189 14.2162 59.0504 15.225C59.0504 15.7609 59.0031 16.1707 58.9086 16.4544C58.9086 16.6436 58.6721 17.3371 58.1993 18.535C57.7264 19.7329 57.2378 21.1357 56.7334 22.7434C56.229 24.3512 55.9453 25.754 55.8823 26.9519C55.8823 27.803 55.9611 28.4965 56.1187 29.0324C56.5285 30.388 57.5215 31.0657 59.0977 31.0657C60.2641 31.0657 61.3517 30.5298 62.3604 29.458C63.3692 28.3862 64.1573 27.141 64.7247 25.7224C65.2921 24.3039 65.7492 22.9956 66.096 21.7977C66.4428 20.5998 66.6161 19.7329 66.6161 19.197C66.6161 18.472 66.49 17.8415 66.2379 17.3056C65.9857 16.7697 65.702 16.3599 65.3867 16.0762C65.0715 15.7924 64.7878 15.5087 64.5356 15.225C64.2834 14.9413 64.1573 14.5945 64.1573 14.1847C64.1573 13.4912 64.4568 12.845 65.0557 12.246C65.6547 11.6471 66.3009 11.3476 66.9944 11.3476C67.5934 11.3476 68.1293 11.6313 68.6021 12.1987C69.075 12.7662 69.3272 13.6803 69.3587 14.9413C69.3587 15.7924 69.1696 17.1007 68.7913 18.866C68.413 20.6313 67.8298 22.6016 67.0417 24.7767C66.2536 26.9519 65.1345 28.8275 63.6844 30.4037C62.2343 31.9799 60.5636 32.7838 58.6721 32.8153C56.6546 32.8153 55.0469 32.2952 53.849 31.2549C52.6826 30.2461 52.0994 28.7487 52.0994 26.7627C52.0994 25.7855 52.2255 24.7767 52.4777 23.7364C52.7299 22.6962 53.3761 20.852 54.4164 18.204C55.1099 16.1865 55.4567 14.894 55.4567 14.3266Z" fill="#102C57"/>
<path d="M73.9454 30.2635C73.7563 30.2635 73.3307 30.169 72.6687 29.9798C72.0067 29.7907 71.66 29.6015 71.6284 29.4124C71.6284 29.1917 72.4954 25.535 74.2292 18.4421C75.963 11.3493 76.9244 7.6452 77.1136 7.32996C77.5864 6.3212 78.4061 5.81682 79.5725 5.81682C80.2029 5.81682 80.8649 6.05325 81.5585 6.52611C82.252 6.99896 82.5987 7.69249 82.5987 8.60668C82.5987 8.7643 82.5672 9.00073 82.5042 9.31597C82.4726 9.53663 81.1014 13.0515 78.3903 19.8607C75.6793 26.6698 74.2764 30.1059 74.1819 30.169C74.0873 30.232 74.0085 30.2635 73.9454 30.2635Z" fill="#102C57"/>
<path d="M96.3685 21.0892C96.3685 21.0892 96.3685 20.8843 96.3685 20.4745C96.3685 20.0647 96.5891 19.7494 97.0305 19.5288H111.169V12.4359L111.216 5.34305C111.531 4.93324 111.831 4.72834 112.115 4.72834C112.524 4.72834 112.84 4.96476 113.06 5.43762V19.5288H127.151C127.624 19.781 127.861 20.0962 127.861 20.4745C127.861 20.8528 127.624 21.168 127.151 21.4202H113.06V35.5113C112.808 35.9527 112.524 36.1733 112.209 36.1733H112.115H112.02C111.642 36.1733 111.358 35.9527 111.169 35.5113V21.4202H97.0305C96.5891 21.1995 96.3685 20.8843 96.3685 20.4745V21.0892Z" fill="#102C57"/>
<path d="M143.474 1.65487C143.474 0.961342 143.679 0.409676 144.089 -0.000133514H144.609C145.933 0.0944366 147.588 0.141724 149.574 0.141724C153.294 0.141724 155.485 0.0944366 156.147 -0.000133514H156.62C156.809 0.189007 156.903 0.330864 156.903 0.425438C156.903 0.520008 156.872 0.803722 156.809 1.27658C156.651 1.74944 156.509 2.04891 156.383 2.17501H155.39C154.697 2.23806 154.224 2.26958 153.972 2.26958C153.057 2.4272 152.553 2.66363 152.459 2.97887C152.459 3.04191 152.916 6.99815 153.83 14.8476C154.744 22.697 155.217 26.6533 155.248 26.7163L158.7 21.1839C161.001 17.4956 163.303 13.7758 165.604 10.0244C167.905 6.27311 169.087 4.33439 169.15 4.2083C169.276 3.98763 169.34 3.7512 169.34 3.49901C169.34 2.74244 168.646 2.3011 167.259 2.17501C166.692 2.17501 166.408 2.00163 166.408 1.65487C166.408 1.62334 166.439 1.41844 166.502 1.04015C166.597 0.59882 166.692 0.315105 166.786 0.189007C166.881 0.062912 167.086 -0.000133514 167.401 -0.000133514C167.464 -0.000133514 167.653 -0.000133514 167.968 -0.000133514C168.283 -0.000133514 168.819 0.0156288 169.576 0.0471497C170.333 0.0786743 171.341 0.0944366 172.602 0.0944366C174.777 0.0944366 176.149 0.062912 176.716 -0.000133514H177.047C177.268 0.220531 177.378 0.393913 177.378 0.520008C177.378 1.05591 177.236 1.5603 176.953 2.03315C176.858 2.12772 176.59 2.17501 176.149 2.17501C175.739 2.20653 175.361 2.23806 175.014 2.26958C174.667 2.3011 174.336 2.37991 174.021 2.50601C173.706 2.6321 173.453 2.74244 173.264 2.83701C173.075 2.93158 172.886 3.05768 172.697 3.2153C172.508 3.37291 172.35 3.48325 172.224 3.5463C172.098 3.60934 171.972 3.7512 171.846 3.97187C171.72 4.19253 171.609 4.30287 171.515 4.30287L162.389 18.9614C156.714 28.1349 153.783 32.8319 153.593 33.0526C153.499 33.1156 153.388 33.1944 153.262 33.289L152.411 33.3363H152.08C151.513 33.3363 151.229 33.226 151.229 33.0053C151.135 32.8162 150.52 27.7723 149.385 17.8739C148.187 7.8493 147.572 2.78972 147.541 2.69515C147.383 2.34839 146.406 2.17501 144.609 2.17501H143.805C143.585 2.01739 143.474 1.84401 143.474 1.65487Z" fill="#102C57"/>
</svg>
