<svg width="17" height="23" viewBox="0 0 17 23" fill="none" xmlns="http://www.w3.org/2000/svg">
<path d="M0.686523 6.01075C0.686523 5.70041 0.85278 5.16839 1.18529 4.41469C1.5178 3.661 2.04982 2.87405 2.78135 2.05386C3.51288 1.23366 4.33308 0.834644 5.24194 0.856812C6.15081 0.856812 6.88234 1.11174 7.43652 1.62159C7.99071 2.13144 8.27889 2.8408 8.30105 3.74967C8.25672 4.17085 8.22347 4.40361 8.2013 4.44794C8.2013 4.51445 8.02396 5.0243 7.66928 5.9775C7.3146 6.9307 6.94884 8.00583 6.57199 9.20287C6.19514 10.3999 6.0178 11.3531 6.03997 12.0625C6.03997 13.0157 6.19514 13.6807 6.50549 14.0576C6.81583 14.4344 7.28135 14.6339 7.90204 14.6561C8.41189 14.6561 8.88849 14.5342 9.33184 14.2903C9.77519 14.0465 10.1188 13.7915 10.3626 13.5255C10.6065 13.2595 10.9057 12.8938 11.2604 12.4282C11.2604 12.4061 11.3158 12.1844 11.4267 11.7632C11.5375 11.342 11.6927 10.6881 11.8922 9.80139C12.0917 8.91469 12.3023 8.0945 12.524 7.3408C13.3663 4.01568 13.8318 2.27553 13.9205 2.12036C14.2087 1.52184 14.6853 1.22257 15.3503 1.22257C15.6385 1.22257 15.8713 1.30016 16.0486 1.45533C16.2259 1.61051 16.3479 1.74351 16.4144 1.85435C16.4809 1.96519 16.503 2.06494 16.4809 2.15361C16.4809 2.44179 15.9378 4.76937 14.8515 9.13637C13.7653 13.5034 13.1447 15.8975 12.9895 16.3186C12.3688 18.1585 11.2937 19.6216 9.76411 20.7078C8.23455 21.794 6.705 22.3482 5.17544 22.3704C4.1779 22.3704 3.30229 22.1265 2.54859 21.6388C1.7949 21.1511 1.41805 20.4196 1.41805 19.4443C1.41805 18.9566 1.49564 18.5465 1.65081 18.214C1.80598 17.8814 2.01657 17.6376 2.28258 17.4824C2.54859 17.3273 2.77027 17.2164 2.94761 17.1499C3.12495 17.0834 3.31337 17.0502 3.51288 17.0502C4.48825 17.0502 4.97593 17.5157 4.97593 18.4467C4.97593 18.8901 4.84293 19.278 4.57692 19.6105C4.31091 19.943 4.05598 20.1647 3.81214 20.2755C3.5683 20.3864 3.42421 20.4418 3.37987 20.4418L3.28012 20.475C3.32445 20.5859 3.53505 20.7189 3.91189 20.8741C4.28874 21.0292 4.66559 21.1068 5.04243 21.1068H5.30844C5.68529 21.1068 5.97347 21.0846 6.17298 21.0403C6.9045 20.8408 7.58061 20.4196 8.2013 19.7768C8.82199 19.1339 9.29859 18.4467 9.6311 17.7152C9.96362 16.9837 10.2185 16.363 10.3959 15.8531C10.5732 15.3433 10.6619 15.0108 10.6619 14.8556L10.4624 14.9886C10.3294 15.0773 10.1188 15.1992 9.83061 15.3544C9.54243 15.5095 9.25426 15.6425 8.96608 15.7534C8.52273 15.8642 8.09046 15.9196 7.66928 15.9196C6.64958 15.9196 5.75179 15.6758 4.97593 15.1881C4.20007 14.7004 3.69022 13.9135 3.44638 12.8273C3.42421 12.6721 3.41312 12.3285 3.41312 11.7965C3.41312 10.5329 3.80106 8.88144 4.57692 6.84203C5.35278 4.80262 5.74071 3.50583 5.74071 2.95164C5.74071 2.92947 5.74071 2.9073 5.74071 2.88514C5.74071 2.68563 5.74071 2.55262 5.74071 2.48612C5.74071 2.41962 5.69638 2.34203 5.60771 2.25336C5.51904 2.16469 5.39711 2.12036 5.24194 2.12036H5.10894C4.59908 2.12036 4.13357 2.33095 3.71239 2.75213C3.2912 3.17331 2.95869 3.62775 2.71485 4.11543C2.47101 4.60312 2.28258 5.06863 2.14958 5.51198C2.01657 5.95533 1.9279 6.19918 1.88357 6.24351C1.83923 6.28785 1.66189 6.31001 1.35155 6.31001H0.886031C0.753026 6.17701 0.686523 6.07726 0.686523 6.01075Z" fill="#102C57"/>
</svg>
