<svg width="19" height="25" viewBox="0 0 19 25" fill="none" xmlns="http://www.w3.org/2000/svg">
<path d="M0.0506134 6.0624C0.0506134 5.70672 0.241155 5.09699 0.622237 4.2332C1.00332 3.36942 1.61305 2.46752 2.45143 1.52752C3.28981 0.587515 4.22982 0.130215 5.27144 0.155621C6.31307 0.155621 7.15145 0.447784 7.78659 1.03211C8.42173 1.61644 8.752 2.42941 8.7774 3.47104C8.72659 3.95374 8.68848 4.2205 8.66308 4.27131C8.66308 4.34753 8.45983 4.93185 8.05335 6.02429C7.64686 7.11672 7.22767 8.34889 6.79577 9.72079C6.36388 11.0927 6.16064 12.1851 6.18604 12.9981C6.18604 14.0905 6.36388 14.8527 6.71956 15.2846C7.07523 15.7165 7.60875 15.9451 8.3201 15.9705C8.90443 15.9705 9.45065 15.8308 9.95876 15.5513C10.4669 15.2719 10.8607 14.9797 11.1401 14.6749C11.4196 14.37 11.7625 13.9508 12.169 13.4173C12.169 13.3919 12.2325 13.1378 12.3596 12.6551C12.4866 12.1724 12.6644 11.423 12.8931 10.4067C13.1217 9.39052 13.3631 8.45051 13.6171 7.58673C14.5826 3.7759 15.1161 1.78157 15.2177 1.60373C15.548 0.917786 16.0942 0.574812 16.8563 0.574812C17.1866 0.574812 17.4534 0.663731 17.6566 0.84157C17.8599 1.01941 17.9996 1.17184 18.0758 1.29887C18.152 1.4259 18.1774 1.54022 18.152 1.64184C18.152 1.97211 17.5296 4.63969 16.2847 9.64457C15.0399 14.6495 14.3285 17.3932 14.1507 17.8759C13.4393 19.9846 12.2071 21.6614 10.4542 22.9062C8.70119 24.1511 6.94821 24.7862 5.19523 24.8116C4.05198 24.8116 3.04846 24.5322 2.18468 23.9733C1.32089 23.4143 0.888995 22.576 0.888995 21.4581C0.888995 20.8992 0.977914 20.4292 1.15575 20.0481C1.33359 19.667 1.57494 19.3876 1.87981 19.2097C2.18468 19.0319 2.43873 18.9049 2.64197 18.8287C2.84522 18.7524 3.06117 18.7143 3.28981 18.7143C4.40766 18.7143 4.96658 19.2478 4.96658 20.3149C4.96658 20.823 4.81414 21.2676 4.50928 21.6487C4.20441 22.0297 3.91225 22.2838 3.63279 22.4108C3.35333 22.5379 3.18819 22.6014 3.13738 22.6014L3.02306 22.6395C3.07387 22.7665 3.31522 22.9189 3.74711 23.0968C4.17901 23.2746 4.6109 23.3635 5.04279 23.3635H5.34766C5.77955 23.3635 6.10982 23.3381 6.33847 23.2873C7.17686 23.0587 7.95172 22.576 8.66308 21.8392C9.37443 21.1024 9.92065 20.3149 10.3017 19.4765C10.6828 18.6381 10.975 17.9268 11.1782 17.3424C11.3815 16.7581 11.4831 16.377 11.4831 16.1992L11.2544 16.3516C11.102 16.4532 10.8607 16.593 10.5304 16.7708C10.2001 16.9486 9.86984 17.1011 9.53957 17.2281C9.03146 17.3551 8.53605 17.4186 8.05335 17.4186C6.88469 17.4186 5.85577 17.1392 4.96658 16.5803C4.07738 16.0213 3.49306 15.1195 3.2136 13.8746C3.18819 13.6967 3.17549 13.303 3.17549 12.6932C3.17549 11.2451 3.62009 9.35241 4.50928 7.0151C5.39847 4.6778 5.84307 3.19158 5.84307 2.55644C5.84307 2.53103 5.84307 2.50563 5.84307 2.48022C5.84307 2.25157 5.84307 2.09914 5.84307 2.02292C5.84307 1.94671 5.79226 1.85779 5.69063 1.75617C5.58901 1.65454 5.44928 1.60373 5.27144 1.60373H5.11901C4.53468 1.60373 4.00117 1.84509 3.51846 2.32779C3.03576 2.81049 2.65468 3.33131 2.37522 3.89023C2.09576 4.44915 1.87981 4.98266 1.72738 5.49077C1.57494 5.99888 1.47332 6.27834 1.42251 6.32915C1.3717 6.37996 1.16846 6.40537 0.812778 6.40537H0.279263C0.12683 6.25294 0.0506134 6.13861 0.0506134 6.0624Z" fill="#102C57"/>
</svg>
