<svg width="26" height="26" viewBox="0 0 26 26" fill="none" xmlns="http://www.w3.org/2000/svg">
<path d="M0.430252 13.9936C0.430252 13.9936 0.430252 13.8308 0.430252 13.505C0.430252 13.1792 0.605674 12.9286 0.956518 12.7532H12.1961V7.11461L12.2336 1.47605C12.4842 1.15026 12.7223 0.987371 12.9479 0.987371C13.2736 0.987371 13.5242 1.17532 13.6997 1.55123V12.7532H24.9016C25.2775 12.9536 25.4655 13.2043 25.4655 13.505C25.4655 13.8057 25.2775 14.0563 24.9016 14.2568H13.6997V25.4587C13.4992 25.8096 13.2736 25.985 13.023 25.985H12.9479H12.8727C12.572 25.985 12.3464 25.8096 12.1961 25.4587V14.2568H0.956518C0.605674 14.0814 0.430252 13.8308 0.430252 13.505V13.9936Z" fill="#102C57"/>
</svg>
