<svg width="9" height="18" viewBox="0 0 9 18" fill="none" xmlns="http://www.w3.org/2000/svg">
<path d="M2.16587 17.6462C2.03287 17.6462 1.7336 17.5797 1.26809 17.4467C0.80257 17.3137 0.558728 17.1807 0.53656 17.0477C0.53656 16.8925 1.14617 14.3211 2.36538 9.33343C3.58459 4.34575 4.2607 1.74107 4.3937 1.51939C4.72621 0.810032 5.30257 0.455353 6.12277 0.455353C6.56612 0.455353 7.03163 0.621609 7.51932 0.954121C8.007 1.28663 8.25084 1.77432 8.25084 2.41718C8.25084 2.52801 8.22868 2.69427 8.18434 2.91594C8.16217 3.07112 7.19789 5.54279 5.29149 10.331C3.38508 15.1191 2.39863 17.5354 2.33213 17.5797C2.26562 17.6241 2.21021 17.6462 2.16587 17.6462Z" fill="#102C57"/>
</svg>
