<svg width="16" height="18" viewBox="0 0 16 18" fill="none" xmlns="http://www.w3.org/2000/svg">
<path d="M0 6.11654C0.0250603 6.04136 0.0501205 5.94112 0.0751808 5.81582C0.100241 5.69052 0.162892 5.41485 0.263133 4.98883C0.363374 4.5628 0.488675 4.17437 0.639037 3.82353C0.789399 3.47268 0.977351 3.05919 1.20289 2.58304C1.42844 2.1069 1.67904 1.73099 1.9547 1.45533C2.23036 1.17967 2.55615 0.904003 2.93205 0.628342C3.30796 0.352678 3.72145 0.239906 4.17254 0.290028C4.89928 0.290028 5.53832 0.44039 6.08965 0.741112C6.64097 1.04184 7.02941 1.3175 7.25495 1.5681C7.48049 1.8187 7.61832 2.06931 7.66844 2.31991C7.71856 2.47027 7.75615 2.54545 7.78122 2.54545C7.80628 2.54545 7.90652 2.45774 8.08194 2.28232C9.28483 0.979185 10.6757 0.327618 12.2545 0.327618H12.3672C13.5701 0.327618 14.4723 0.841352 15.0738 1.86882C15.2742 2.34497 15.3745 2.80858 15.3745 3.25967C15.3745 4.01148 15.2116 4.61292 14.8858 5.06401C14.56 5.51509 14.2342 5.80329 13.9085 5.92859C13.5827 6.05389 13.2694 6.10401 12.9687 6.07895C12.4675 6.07895 12.0665 5.94112 11.7658 5.66545C11.4651 5.38979 11.3147 5.02642 11.3147 4.57533C11.3147 3.37244 12.0164 2.57051 13.4198 2.16955C12.8685 1.84376 12.4174 1.68087 12.0665 1.68087C10.6631 1.68087 9.37254 2.6081 8.19471 4.46256C7.94411 4.86353 7.75615 5.27702 7.63085 5.70305C7.50555 6.12907 7.07953 7.79558 6.35278 10.7026C5.50073 14.211 5.01205 16.078 4.88675 16.3035C4.56097 16.9802 4.02217 17.3185 3.27037 17.3185C2.94458 17.3185 2.68145 17.2433 2.48097 17.0929C2.28048 16.9426 2.14265 16.7922 2.06747 16.6419C1.99229 16.4915 1.96723 16.3662 1.99229 16.266C1.99229 15.9402 2.4935 13.785 3.49591 9.8004C4.49832 5.81582 4.99952 3.59798 4.99952 3.1469C4.99952 2.16955 4.67374 1.68087 4.02217 1.68087C3.49591 1.68087 3.04482 2.03172 2.66892 2.7334C2.29302 3.43509 1.99229 4.19943 1.76675 5.02642C1.54121 5.85341 1.40338 6.30449 1.35325 6.37967C1.30313 6.42979 1.10265 6.45485 0.751808 6.45485H0.225542C0.0751808 6.30449 0 6.19172 0 6.11654Z" fill="#102C57"/>
</svg>
