<svg width="18" height="24" viewBox="0 0 18 24" fill="none" xmlns="http://www.w3.org/2000/svg">
<path d="M12.0081 0.365833C12.0303 0.365833 12.8283 0.310415 14.4022 0.199577C15.9761 0.0887394 16.7852 0.0222378 16.8296 7.05719e-05C17.0956 7.05719e-05 17.2286 0.0887394 17.2286 0.266079C17.2286 0.421251 16.4195 3.76854 14.8012 10.308C13.183 16.8474 12.3517 20.1836 12.3074 20.3166C12.2631 20.4496 12.252 20.6158 12.2741 20.8153C12.2741 21.7464 12.5845 22.2119 13.2052 22.2119C13.4047 22.1897 13.6264 22.09 13.8702 21.9126C14.3357 21.4693 14.7902 20.4052 15.2335 18.7205C15.3665 18.2772 15.4773 18.0444 15.566 18.0222C15.6104 18.0001 15.7212 17.989 15.8985 17.989H16.0315H16.1645C16.4971 17.989 16.6633 18.0777 16.6633 18.255C16.6633 18.3658 16.6301 18.5432 16.5636 18.787C16.2754 19.8954 15.9429 20.7932 15.566 21.4804C15.1892 22.1676 14.8788 22.6109 14.635 22.8104C14.3911 23.0099 14.0808 23.1873 13.7039 23.3424C13.5266 23.3868 13.2606 23.4089 12.9059 23.4089C12.1522 23.4089 11.5205 23.2427 11.0106 22.9102C10.5007 22.5777 10.1682 22.2341 10.0131 21.8794L9.81356 21.3806C9.79139 21.3584 9.74706 21.3695 9.68055 21.4139C9.63622 21.4582 9.59188 21.5025 9.54755 21.5469C8.23967 22.7882 6.90962 23.4089 5.5574 23.4089C4.33819 23.4089 3.26307 22.9656 2.33204 22.0789C1.401 21.1922 0.935486 19.7846 0.935486 17.856C0.935486 16.7919 1.15716 15.7057 1.60051 14.5974C2.04386 13.489 2.57588 12.5358 3.19657 11.7378C4.23844 10.4742 5.28031 9.59859 6.32218 9.11091C7.36405 8.62322 8.30617 8.37938 9.14853 8.37938C10.3899 8.37938 11.3209 8.8449 11.9416 9.77593C12.0525 9.90894 12.1079 9.95327 12.1079 9.90894C12.1301 9.82027 12.4293 8.61214 13.0057 6.28455C13.582 3.95697 13.8924 2.72667 13.9367 2.59367C13.9367 2.30549 13.8591 2.12815 13.7039 2.06165C13.5488 1.99514 13.1165 1.93973 12.4072 1.89539H11.7089C11.5759 1.76238 11.5094 1.67372 11.5094 1.62938C11.5094 1.58504 11.5315 1.37445 11.5759 0.997606C11.6867 0.576424 11.8308 0.365833 12.0081 0.365833ZM11.5426 12.2365C11.0328 10.4853 10.2015 9.60968 9.04878 9.60968C8.27292 9.60968 7.53031 9.95327 6.82095 10.6405C6.11159 11.3277 5.5574 12.2254 5.15839 13.3338C4.51553 15.085 4.0611 16.9028 3.79509 18.787C3.79509 18.8535 3.79509 18.9754 3.79509 19.1528C3.79509 19.3301 3.78401 19.4631 3.76184 19.5518C3.76184 20.5493 3.96135 21.2365 4.36036 21.6134C4.75937 21.9902 5.23598 22.1897 5.79016 22.2119C6.98721 22.2119 8.2175 21.4139 9.48105 19.8178L9.74706 19.452L11.5426 12.2365Z" fill="#102C57"/>
</svg>
