<svg width="28" height="24" viewBox="0 0 28 24" fill="none" xmlns="http://www.w3.org/2000/svg">
<path d="M11.8151 0.65453C11.8373 0.65453 12.6353 0.599112 14.2092 0.488274C15.7831 0.377436 16.5922 0.310934 16.6366 0.288767C16.9026 0.288767 17.0356 0.377436 17.0356 0.554775C17.0356 0.709948 16.2265 4.05724 14.6082 10.5966C12.99 17.1361 12.1587 20.4723 12.1144 20.6053C12.0701 20.7383 12.059 20.9045 12.0812 21.104C12.0812 22.0351 12.3915 22.5006 13.0122 22.5006C13.2117 22.4784 13.4334 22.3787 13.6772 22.2013C14.1427 21.758 14.5972 20.6939 15.0405 19.0092C15.1735 18.5659 15.2844 18.3331 15.373 18.3109C15.4174 18.2888 15.5282 18.2777 15.7055 18.2777H15.8385H15.9715C16.3041 18.2777 16.4703 18.3664 16.4703 18.5437C16.4703 18.6545 16.4371 18.8319 16.3706 19.0757C16.0824 20.1841 15.7499 21.0819 15.373 21.7691C14.9962 22.4563 14.6858 22.8996 14.442 23.0991C14.1981 23.2986 13.8878 23.476 13.511 23.6311C13.3336 23.6755 13.0676 23.6976 12.7129 23.6976C11.9592 23.6976 11.3275 23.5314 10.8176 23.1989C10.3078 22.8664 9.97524 22.5228 9.82007 22.1681L9.62057 21.6693C9.5984 21.6471 9.55406 21.6582 9.48756 21.7026C9.44322 21.7469 9.39889 21.7912 9.35456 21.8356C8.04667 23.0769 6.71663 23.6976 5.36441 23.6976C4.1452 23.6976 3.07008 23.2543 2.13904 22.3676C1.20801 21.4809 0.742493 20.0732 0.742493 18.1447C0.742493 17.0806 0.964167 15.9944 1.40752 14.8861C1.85087 13.7777 2.38289 12.8245 3.00357 12.0265C4.04545 10.7629 5.08732 9.88729 6.12919 9.3996C7.17106 8.91192 8.11318 8.66808 8.95554 8.66808C10.1969 8.66808 11.128 9.13359 11.7486 10.0646C11.8595 10.1976 11.9149 10.242 11.9149 10.1976C11.9371 10.109 12.2363 8.90084 12.8127 6.57325C13.389 4.24566 13.6994 3.01537 13.7437 2.88236C13.7437 2.59418 13.6661 2.41685 13.511 2.35034C13.3558 2.28384 12.9235 2.22842 12.2142 2.18409H11.5159C11.3829 2.05108 11.3164 1.96241 11.3164 1.91808C11.3164 1.87374 11.3385 1.66315 11.3829 1.2863C11.4937 0.86512 11.6378 0.65453 11.8151 0.65453ZM11.3496 12.5252C10.8398 10.774 10.0085 9.89837 8.85579 9.89837C8.07993 9.89837 7.33732 10.242 6.62796 10.9292C5.9186 11.6164 5.36441 12.5141 4.9654 13.6225C4.32254 15.3737 3.86811 17.1915 3.6021 19.0757C3.6021 19.1422 3.6021 19.2641 3.6021 19.4415C3.6021 19.6188 3.59101 19.7518 3.56885 19.8405C3.56885 20.838 3.76835 21.5252 4.16737 21.9021C4.56638 22.2789 5.04298 22.4784 5.59717 22.5006C6.79421 22.5006 8.02451 21.7026 9.28805 20.1065L9.55406 19.7407L11.3496 12.5252Z" fill="#102C57"/>
<path d="M17.8009 10.5619C17.6457 10.4067 17.5681 10.2959 17.5681 10.2294C17.5681 10.1407 17.6014 9.96336 17.6679 9.69735C17.7344 9.43134 17.7898 9.27617 17.8341 9.23183C17.8785 9.121 17.9782 9.06558 18.1334 9.06558C18.2886 9.06558 18.8538 9.05449 19.8292 9.03233H21.5915L22.2233 6.37223C22.2898 6.12839 22.3674 5.80696 22.456 5.40794C22.5447 5.00893 22.6223 4.72075 22.6888 4.54341C22.7553 4.36607 22.8218 4.1444 22.8883 3.87839C22.9548 3.61238 23.0435 3.42395 23.1543 3.31311C23.2652 3.20228 23.376 3.06927 23.4868 2.9141C23.5977 2.75893 23.7528 2.65917 23.9524 2.61484C24.1519 2.57051 24.3514 2.54834 24.5509 2.54834C24.9499 2.57051 25.227 2.69242 25.3822 2.9141C25.5373 3.13577 25.6149 3.34637 25.6149 3.54587C25.6149 3.70105 25.5152 4.22198 25.3157 5.10868C25.1161 5.99538 24.8945 6.871 24.6506 7.73553L24.3181 8.96582C24.3181 9.01016 24.8723 9.03233 25.9807 9.03233H27.6765C27.8317 9.1875 27.9093 9.30942 27.9093 9.39809C27.9093 9.88577 27.7652 10.2737 27.477 10.5619H23.9191L22.7221 15.3833C21.8575 18.9301 21.4253 20.8365 21.4253 21.1025C21.4253 22.0336 21.7245 22.4991 22.323 22.4991C23.0989 22.4991 23.8526 22.1222 24.5841 21.3685C25.3157 20.6148 25.9031 19.6838 26.3464 18.5754C26.3908 18.4424 26.4462 18.3648 26.5127 18.3427C26.5792 18.3205 26.7455 18.2983 27.0115 18.2762H27.1445C27.477 18.2762 27.6432 18.3648 27.6432 18.5422C27.6432 18.6087 27.61 18.7417 27.5435 18.9412C27.4326 19.2959 27.2331 19.7171 26.945 20.2047C26.6568 20.6924 26.2799 21.2134 25.8144 21.7675C25.3489 22.3217 24.7836 22.7873 24.1186 23.1641C23.4536 23.5409 22.7775 23.7294 22.0903 23.7294C21.4253 23.7294 20.7935 23.5631 20.195 23.2306C19.5964 22.8981 19.1642 22.3217 18.8982 21.5015C18.8538 21.3242 18.8317 21.0249 18.8317 20.6038V20.0052L19.9955 15.3501C20.7713 12.2244 21.1703 10.6506 21.1925 10.6284C21.1925 10.5841 20.6272 10.5619 19.4967 10.5619H17.8009Z" fill="#102C57"/>
</svg>
