<svg width="18" height="18" viewBox="0 0 18 18" fill="none" xmlns="http://www.w3.org/2000/svg">
<path d="M12.4275 4.11966C12.1734 4.11966 11.5002 3.97993 10.4078 3.70047C9.31532 3.42101 8.51505 3.28128 8.00694 3.28128C7.49883 3.28128 7.06694 3.33209 6.71126 3.43371C6.35558 3.53534 6.06342 3.66236 5.83477 3.8148C5.60612 3.96723 5.45369 4.10696 5.37747 4.23399C5.30125 4.36101 5.21233 4.50074 5.11071 4.65318L5.03449 4.80561C4.95828 4.88183 4.76774 4.91993 4.46287 4.91993C3.92936 4.91993 3.6626 4.81831 3.6626 4.61507C3.6626 4.48804 3.70071 4.3102 3.77692 4.08155C4.10719 3.09074 4.65341 2.23966 5.41558 1.5283C6.17774 0.816948 7.01612 0.385056 7.93072 0.232622C8.23559 0.18181 8.45154 0.156406 8.57856 0.156406C9.2137 0.156406 9.78533 0.372353 10.2934 0.804245C10.8015 1.23614 11.2843 1.65533 11.7415 2.06182C12.1988 2.4683 12.6816 2.68425 13.1897 2.70966C13.7486 2.70966 14.3075 2.29047 14.8664 1.45209C15.4253 0.613705 15.7175 0.194513 15.7429 0.194513C15.7683 0.169107 15.9589 0.156406 16.3145 0.156406H16.8099C16.9624 0.308838 17.0386 0.41046 17.0386 0.461271C17.0386 0.562893 16.9751 0.740732 16.8481 0.994787C16.721 1.24884 16.5432 1.5156 16.3145 1.79506C16.0859 2.07452 15.8699 2.35398 15.6667 2.63344C15.4635 2.9129 15.2856 3.15425 15.1332 3.3575L14.8664 3.70047C13.774 4.99615 12.0464 6.71102 9.6837 8.84508C7.32099 10.9791 5.86017 12.351 5.30125 12.9608L4.84395 13.4181L5.41558 13.4562C5.9745 13.4562 6.78748 13.5959 7.85451 13.8754C8.92154 14.1548 9.72181 14.2946 10.2553 14.2946C11.2207 14.2946 12.1099 14.0532 12.9229 13.5705C13.7359 13.0878 14.2694 12.4527 14.5235 11.6651C14.6251 11.4364 14.714 11.2967 14.7902 11.2459C14.8664 11.1951 15.057 11.1697 15.3618 11.1697C15.8445 11.1697 16.0859 11.2967 16.0859 11.5508C16.0859 11.6778 16.0732 11.7921 16.0478 11.8937C15.6159 13.4689 14.7775 14.7773 13.5326 15.8189C12.2878 16.8605 11.0429 17.394 9.79803 17.4194C9.13748 17.4194 8.55316 17.2035 8.04505 16.7716C7.53694 16.3397 7.04153 15.9078 6.55883 15.4759C6.07612 15.044 5.59342 14.8281 5.11071 14.8281C3.99287 14.8281 2.98935 15.5902 2.10016 17.1146C1.94773 17.3178 1.73178 17.4194 1.45232 17.4194H1.26178H0.766369C0.613936 17.267 0.53772 17.1527 0.53772 17.0765C0.53772 16.6954 1.27448 15.6029 2.748 13.7992C3.73881 12.6559 5.41558 11.0045 7.77829 8.84508C10.141 6.68562 11.6018 5.31372 12.1607 4.72939C12.4656 4.32291 12.5545 4.11966 12.4275 4.11966Z" fill="#102C57"/>
</svg>
