<svg width="19" height="18" viewBox="0 0 19 18" fill="none" xmlns="http://www.w3.org/2000/svg">
<path d="M0.987272 5.98697C1.16511 4.91993 1.85106 3.68777 3.04512 2.29047C4.23918 0.893164 5.7127 0.18181 7.46568 0.156406C8.35487 0.156406 9.16784 0.385056 9.9046 0.842354C10.6414 1.29965 11.1876 1.87128 11.5433 2.55722C12.6103 0.956678 13.8933 0.156406 15.3922 0.156406C16.3322 0.156406 17.1452 0.435865 17.8311 0.994787C18.5171 1.55371 18.8727 2.30317 18.8982 3.24317C18.8982 3.97993 18.7203 4.57696 18.3646 5.03426C18.009 5.49156 17.666 5.77102 17.3357 5.87264C17.0054 5.97426 16.7133 6.02507 16.4592 6.02507C15.9765 6.02507 15.5827 5.88534 15.2779 5.60588C14.973 5.32642 14.8206 4.95804 14.8206 4.50074C14.8206 3.33209 15.4557 2.53182 16.726 2.09993C16.4465 1.76965 15.9384 1.60452 15.2017 1.60452C14.8714 1.60452 14.63 1.62992 14.4776 1.68073C13.5122 2.08722 12.8008 2.9256 12.3435 4.19588C10.8192 9.81049 10.057 13.0878 10.057 14.0278C10.057 14.7392 10.2603 15.2473 10.6668 15.5521C11.0733 15.857 11.5179 16.0094 12.0006 16.0094C12.9406 16.0094 13.8679 15.5902 14.7825 14.7519C15.6971 13.9135 16.3195 12.8846 16.6498 11.6651C16.726 11.411 16.8022 11.2713 16.8784 11.2459C16.9546 11.2205 17.1579 11.1951 17.4881 11.1697H17.6406C18.0217 11.1697 18.2122 11.2713 18.2122 11.4745C18.2122 11.5 18.1868 11.6397 18.136 11.8937C17.7295 13.3419 16.9419 14.6248 15.7733 15.7427C14.6046 16.8605 13.2454 17.4194 11.6957 17.4194C9.91731 17.4194 8.57082 16.6192 7.65622 15.0186C6.61459 16.5938 5.42053 17.3813 4.07404 17.3813H3.84539C2.60052 17.3813 1.71133 17.0511 1.17781 16.3905C0.644298 15.73 0.364837 15.0313 0.339432 14.2946C0.339432 13.4816 0.580784 12.821 1.06349 12.3129C1.54619 11.8048 2.11782 11.5508 2.77836 11.5508C3.8708 11.5508 4.41702 12.0843 4.41702 13.1513C4.41702 13.6594 4.26458 14.104 3.95972 14.4851C3.65485 14.8662 3.36269 15.1202 3.08323 15.2473C2.80377 15.3743 2.63863 15.4378 2.58782 15.4378L2.47349 15.4759C2.47349 15.5013 2.54971 15.5521 2.70214 15.6283C2.85458 15.7046 3.05782 15.7935 3.31188 15.8951C3.56593 15.9967 3.80728 16.0348 4.03593 16.0094C4.95053 16.0094 5.7381 15.4378 6.39864 14.2946C6.62729 13.8881 6.91946 13.0243 7.27513 11.7032C7.63081 10.3821 7.98649 9.01022 8.34216 7.58751C8.69784 6.1648 8.90109 5.32642 8.9519 5.07237C9.07893 4.38642 9.14244 3.89101 9.14244 3.58615C9.14244 2.87479 8.9519 2.36668 8.57082 2.06182C8.18973 1.75695 7.75784 1.60452 7.27513 1.60452C6.25891 1.60452 5.30621 2.01101 4.41702 2.82398C3.52782 3.63696 2.90539 4.67858 2.54971 5.94886C2.4989 6.17751 2.43539 6.30453 2.35917 6.32994C2.28295 6.35534 2.07971 6.38075 1.74944 6.40616H1.21592C1.06349 6.25372 0.987272 6.11399 0.987272 5.98697Z" fill="#102C57"/>
</svg>
